0
SECTION
2
HEADER
9
$INSUNITS
70
4
9
$ACADVER
1
AC1014
9
$HANDSEED
5
FFFF
0
ENDSEC
0
SECTION
2
TABLES
0
TABLE
2
VPORT
5
8
100
AcDbSymbolTable
0
ENDTAB
0
TABLE
2
LTYPE
5
5
100
AcDbSymbolTable
0
LTYPE
5
14
100
AcDbSymbolTableRecord
100
AcDbLinetypeTableRecord
2
BYBLOCK
70
0
0
LTYPE
5
15
100
AcDbSymbolTableRecord
100
AcDbLinetypeTableRecord
2
BYLAYER
70
0
0
ENDTAB
0
TABLE
2
LAYER
5
2
100
AcDbSymbolTable
70
2
0
LAYER
5
50
100
AcDbSymbolTableRecord
100
AcDbLayerTableRecord
2
0
70
0
6
CONTINUOUS
0
ENDTAB
0
TABLE
2
STYLE
5
3
100
AcDbSymbolTable
70
1
0
STYLE
5
11
100
AcDbSymbolTableRecord
100
AcDbTextStyleTableRecord
2
STANDARD
70
0
0
ENDTAB
0
TABLE
2
VIEW
5
6
100
AcDbSymbolTable
70
0
0
ENDTAB
0
TABLE
2
UCS
5
7
100
AcDbSymbolTable
70
0
0
ENDTAB
0
TABLE
2
APPID
5
9
100
AcDbSymbolTable
70
2
0
APPID
5
12
100
AcDbSymbolTableRecord
100
AcDbRegAppTableRecord
2
ACAD
70
0
0
ENDTAB
0
TABLE
2
DIMSTYLE
5
A
100
AcDbSymbolTable
70
1
0
ENDTAB
0
TABLE
2
BLOCK_RECORD
5
1
100
AcDbSymbolTable
70
1
0
BLOCK_RECORD
5
1F
100
AcDbSymbolTableRecord
100
AcDbBlockTableRecord
2
*MODEL_SPACE
0
BLOCK_RECORD
5
1B
100
AcDbSymbolTableRecord
100
AcDbBlockTableRecord
2
*PAPER_SPACE
0
ENDTAB
0
ENDSEC
0
SECTION
2
BLOCKS
0
BLOCK
5
20
100
AcDbEntity
100
AcDbBlockBegin
2
*MODEL_SPACE
0
ENDBLK
5
21
100
AcDbEntity
100
AcDbBlockEnd
0
BLOCK
5
1C
100
AcDbEntity
100
AcDbBlockBegin
2
*PAPER_SPACE
0
ENDBLK
5
1D
100
AcDbEntity
100
AcDbBlockEnd
0
ENDSEC
0
SECTION
2
ENTITIES
0
LWPOLYLINE
5
100
100
AcDbEntity
8
0
100
AcDbPolyline
90
4
70
1
43
0.0
10
-16.206071090694319
20
34.17276030951173
10
-96.80607109069426
20
34.172760309521507
10
-96.806071090697273
20
9.1118186541112998
10
-16.206071090697343
20
9.111818654101425
0
LWPOLYLINE
5
101
100
AcDbEntity
8
0
100
AcDbPolyline
90
4
70
1
43
0.0
10
-16.20607109069423
20
34.172760309511482
10
-96.806071090694218
20
34.172760309521308
10
-96.806071090697287
20
9.1118186541112998
10
-16.206071090697289
20
9.1118186541014232
0
ELLIPSE
5
102
100
AcDbEntity
8
0
100
AcDbEllipse
10
-50.928591251759954
20
20.077982404352138
30
0
11
3.8439385356515616e-13
21
3.2010969359707757
31
0.0
40
0.99965732497555704
41
0
42
6.2831853071795862
0
LINE
5
103
100
AcDbEntity
8
0
100
AcDbLine
10
-50.928591251759954
20
20.077982404352138
30
0
11
-47.728591251759966
21
20.077982404351395
31
-8.701192791256444e-15
0
LINE
5
104
100
AcDbEntity
8
0
100
AcDbLine
10
-50.928591251759954
20
20.077982404352138
30
0
11
-54.12859125175995
21
20.077982404352962
31
9.7045369317463435e-15
0
LINE
5
105
100
AcDbEntity
8
0
100
AcDbLine
10
-50.928591251758334
20
23.279079340322912
30
0
11
-50.928591251762107
21
16.87688546838136
31
0
0
LWPOLYLINE
5
106
100
AcDbEntity
8
0
100
AcDbPolyline
90
4
70
1
43
0.0
10
-56.914971702099692
20
27.006880728993004
10
-51.9149716275939
20
27.006880728993004
10
-51.9149716275939
20
28.006880743894165
10
-56.914971702099692
20
28.006880743894165
0
LINE
5
107
100
AcDbEntity
8
0
100
AcDbLine
10
-55.809923865199934
20
25.006880624684875
30
0
11
-56.178273193837057
21
25.006880624684875
31
0
0
LINE
5
108
100
AcDbEntity
8
0
100
AcDbLine
10
-56.178273193837057
20
25.006880624684875
30
0
11
-56.178273193837057
21
27.354083968791549
31
0
0
SPLINE
5
109
100
AcDbEntity
8
0
100
AcDbSpline
70
0
71
2
72
6
73
3
74
0
42
0.000000001
43
0.0000000001
44
0.0000000001
40
0
40
0
40
0
40
1
40
1
40
1
10
-56.178273193837057
20
27.354083968791549
30
0
10
-56.311288185716521
20
27.227208031806533
30
0
10
-56.527181797028433
20
27.10033224383313
30
0
0
SPLINE
5
110
100
AcDbEntity
8
0
100
AcDbSpline
70
0
71
2
72
6
73
3
74
0
42
0.000000001
43
0.0000000001
44
0.0000000001
40
0
40
0
40
0
40
1
40
1
40
1
10
-56.527181797028433
20
27.10033224383313
30
0
10
-56.743075408340346
20
26.973456306848114
30
0
10
-56.914971702099692
20
26.910018487367218
30
0
0
LINE
5
111
100
AcDbEntity
8
0
100
AcDbLine
10
-56.914971702099692
20
26.910018487367218
30
0
11
-56.914971702099692
21
27.266089333686416
31
0
0
SPLINE
5
112
100
AcDbEntity
8
0
100
AcDbSpline
70
0
71
2
72
6
73
3
74
0
42
0.000000001
43
0.0000000001
44
0.0000000001
40
0
40
0
40
0
40
1
40
1
40
1
10
-56.914971702099692
20
27.266089333686416
30
0
10
-56.605967589021574
20
27.411382658872192
30
0
10
-56.374726154209029
20
27.618067725095337
30
0
0
SPLINE
5
113
100
AcDbEntity
8
0
100
AcDbSpline
70
0
71
2
72
6
73
3
74
0
42
0.000000001
43
0.0000000001
44
0.0000000001
40
0
40
0
40
0
40
1
40
1
40
1
10
-56.374726154209029
20
27.618067725095337
30
0
10
-56.143484644890677
20
27.824752493295257
30
0
10
-56.047304578424345
20
28.019159002694671
30
0
0
LINE
5
114
100
AcDbEntity
8
0
100
AcDbLine
10
-56.047304578424345
20
28.019159002694671
30
0
11
-55.809923865199934
21
28.019159002694671
31
0
0
LINE
5
115
100
AcDbEntity
8
0
100
AcDbLine
10
-55.809923865199934
20
28.019159002694671
30
0
11
-55.809923865199934
21
25.006880624684875
31
0
0
SPLINE
5
116
100
AcDbEntity
8
0
100
AcDbSpline
70
0
71
2
72
6
73
3
74
0
42
0.000000001
43
0.0000000001
44
0.0000000001
40
0
40
0
40
0
40
1
40
1
40
1
10
-54.866540588737379
20
26.486416919622009
30
0
10
-54.866540588737379
20
27.018476887139862
30
0
10
-54.757059075237166
20
27.342828823718612
30
0
0
SPLINE
5
117
100
AcDbEntity
8
0
100
AcDbSpline
70
0
71
2
72
6
73
3
74
0
42
0.000000001
43
0.0000000001
44
0.0000000001
40
0
40
0
40
0
40
1
40
1
40
1
10
-54.757059075237166
20
27.342828823718612
30
0
10
-54.647577561736952
20
27.667180760297363
30
0
10
-54.431683875919234
20
27.843170030507629
30
0
0
SPLINE
5
118
100
AcDbEntity
8
0
100
AcDbSpline
70
0
71
2
72
6
73
3
74
0
42
0.000000001
43
0.0000000001
44
0.0000000001
40
0
40
0
40
0
40
1
40
1
40
1
10
-54.431683875919234
20
27.843170030507629
30
0
10
-54.215790190101515
20
28.019159002694671
30
0
10
-53.888368763328444
20
28.019159002694671
30
0
0
SPLINE
5
119
100
AcDbEntity
8
0
100
AcDbSpline
70
0
71
2
72
6
73
3
74
0
42
0.000000001
43
0.0000000001
44
0.0000000001
40
0
40
0
40
0
40
1
40
1
40
1
10
-53.888368763328444
20
28.019159002694671
30
0
10
-53.646895446182143
20
28.019159002694671
30
0
10
-53.464766897560011
20
27.921955747994964
30
0
0
SPLINE
5
120
100
AcDbEntity
8
0
100
AcDbSpline
70
0
71
2
72
6
73
3
74
0
42
0.000000001
43
0.0000000001
44
0.0000000001
40
0
40
0
40
0
40
1
40
1
40
1
10
-53.464766897560011
20
27.921955747994964
30
0
10
-53.282638944984328
20
27.824752493295257
30
0
10
-53.163948513866316
20
27.64160112896878
30
0
0
SPLINE
5
121
100
AcDbEntity
8
0
100
AcDbSpline
70
0
71
2
72
6
73
3
74
0
42
0.000000001
43
0.0000000001
44
0.0000000001
40
0
40
0
40
0
40
1
40
1
40
1
10
-53.163948513866316
20
27.64160112896878
30
0
10
-53.045258082748305
20
27.458449764642303
30
0
10
-52.977727510333906
20
27.195489122066085
30
0
0
SPLINE
5
122
100
AcDbEntity
8
0
100
AcDbSpline
70
0
71
2
72
6
73
3
74
0
42
0.000000001
43
0.0000000001
44
0.0000000001
40
0
40
0
40
0
40
1
40
1
40
1
10
-52.977727510333906
20
27.195489122066085
30
0
10
-52.910196937919508
20
26.932528777513092
30
0
10
-52.910196937919508
20
26.486416919622009
30
0
0
SPLINE
5
123
100
AcDbEntity
8
0
100
AcDbSpline
70
0
71
2
72
6
73
3
74
0
42
0.000000001
43
0.0000000001
44
0.0000000001
40
0
40
0
40
0
40
1
40
1
40
1
10
-52.910196937919508
20
26.486416919622009
30
0
10
-52.910196937919508
20
25.958449407014434
30
0
10
-53.018655337692152
20
25.634097619447296
30
0
0
SPLINE
5
124
100
AcDbEntity
8
0
100
AcDbSpline
70
0
71
2
72
6
73
3
74
0
42
0.000000001
43
0.0000000001
44
0.0000000001
40
0
40
0
40
0
40
1
40
1
40
1
10
-53.018655337692152
20
25.634097619447296
30
0
10
-53.127113737464796
20
25.309745533856933
30
0
10
-53.343007125259291
20
25.132733149919098
30
0
0
SPLINE
5
125
100
AcDbEntity
8
0
100
AcDbSpline
70
0
71
2
72
6
73
3
74
0
42
0.000000001
43
0.0000000001
44
0.0000000001
40
0
40
0
40
0
40
1
40
1
40
1
10
-53.343007125259291
20
25.132733149919098
30
0
10
-53.558900513053786
20
24.955721064004486
30
0
10
-53.888368763328444
20
24.955721064004486
30
0
0
SPLINE
5
126
100
AcDbEntity
8
0
100
AcDbSpline
70
0
71
2
72
6
73
3
74
0
42
0.000000001
43
0.0000000001
44
0.0000000001
40
0
40
0
40
0
40
1
40
1
40
1
10
-53.888368763328444
20
24.955721064004486
30
0
10
-54.32220236241902
20
24.955721064004486
30
0
10
-54.569814659953963
20
25.266771479043548
30
0
0
SPLINE
5
127
100
AcDbEntity
8
0
100
AcDbSpline
70
0
71
2
72
6
73
3
74
0
42
0.000000001
43
0.0000000001
44
0.0000000001
40
0
40
0
40
0
40
1
40
1
40
1
10
-54.569814659953963
20
25.266771479043548
30
0
10
-54.866540588737379
20
25.641259713563507
30
0
10
-54.866540588737379
20
26.486416919622009
30
0
0
SPLINE
5
128
100
AcDbEntity
8
0
100
AcDbSpline
70
0
71
2
72
6
73
3
74
0
42
0.000000001
43
0.0000000001
44
0.0000000001
40
0
40
0
40
0
40
1
40
1
40
1
10
-54.487959303260695
20
26.486416919622009
30
0
10
-54.487959303260695
20
25.747671885881012
30
0
10
-54.315039970279585
20
25.503128929528778
30
0
0
SPLINE
5
129
100
AcDbEntity
8
0
100
AcDbSpline
70
0
71
2
72
6
73
3
74
0
42
0.000000001
43
0.0000000001
44
0.0000000001
40
0
40
0
40
0
40
1
40
1
40
1
10
-54.315039970279585
20
25.503128929528778
30
0
10
-54.142120339275252
20
25.258585973176544
30
0
10
-53.888368763328444
20
25.258585973176544
30
0
0
SPLINE
5
130
100
AcDbEntity
8
0
100
AcDbSpline
70
0
71
2
72
6
73
3
74
0
42
0.000000001
43
0.0000000001
44
0.0000000001
40
0
40
0
40
0
40
1
40
1
40
1
10
-53.888368763328444
20
25.258585973176544
30
0
10
-53.634616889358412
20
25.258585973176544
30
0
10
-53.461697258354079
20
25.504152043256347
30
0
0
SPLINE
5
131
100
AcDbEntity
8
0
100
AcDbSpline
70
0
71
2
72
6
73
3
74
0
42
0.000000001
43
0.0000000001
44
0.0000000001
40
0
40
0
40
0
40
1
40
1
40
1
10
-53.461697258354079
20
25.504152043256347
30
0
10
-53.288777925372969
20
25.749718113336151
30
0
10
-53.288777925372969
20
26.486416919622009
30
0
0
SPLINE
5
132
100
AcDbEntity
8
0
100
AcDbSpline
70
0
71
2
72
6
73
3
74
0
42
0.000000001
43
0.0000000001
44
0.0000000001
40
0
40
0
40
0
40
1
40
1
40
1
10
-53.288777925372969
20
26.486416919622009
30
0
10
-53.288777925372969
20
27.227208180818145
30
0
10
-53.461697258354079
20
27.47072802344281
30
0
0
SPLINE
5
133
100
AcDbEntity
8
0
100
AcDbSpline
70
0
71
2
72
6
73
3
74
0
42
0.000000001
43
0.0000000001
44
0.0000000001
40
0
40
0
40
0
40
1
40
1
40
1
10
-53.461697258354079
20
27.47072802344281
30
0
10
-53.634616889358412
20
27.714247866067474
30
0
10
-53.892461516261946
20
27.714247866067474
30
0
0
SPLINE
5
134
100
AcDbEntity
8
0
100
AcDbSpline
70
0
71
2
72
6
73
3
74
0
42
0.000000001
43
0.0000000001
44
0.0000000001
40
0
40
0
40
0
40
1
40
1
40
1
10
-53.892461516261946
20
27.714247866067474
30
0
10
-54.146213092208754
20
27.714247866067474
30
0
10
-54.297645546794783
20
27.499377293977325
30
0
0
SPLINE
5
135
100
AcDbEntity
8
0
100
AcDbSpline
70
0
71
2
72
6
73
3
74
0
42
0.000000001
43
0.0000000001
44
0.0000000001
40
0
40
0
40
0
40
1
40
1
40
1
10
-54.297645546794783
20
27.499377293977325
30
0
10
-54.487959303260695
20
27.225161804351394
30
0
10
-54.487959303260695
20
26.486416919622009
30
0
0
LINE
5
136
100
AcDbEntity
8
0
100
AcDbLine
10
-52.433389284015547
20
25.006880624684875
30
0
11
-52.433389284015547
21
27.180141224059646
31
0
0
LINE
5
137
100
AcDbEntity
8
0
100
AcDbLine
10
-52.433389284015547
20
27.180141224059646
30
0
11
-52.103921331764113
21
27.180141224059646
31
0
0
LINE
5
138
100
AcDbEntity
8
0
100
AcDbLine
10
-52.103921331764113
20
27.180141224059646
30
0
11
-52.103921331764113
21
26.875229938420837
31
0
0
SPLINE
5
139
100
AcDbEntity
8
0
100
AcDbSpline
70
0
71
2
72
6
73
3
74
0
42
0.000000001
43
0.0000000001
44
0.0000000001
40
0
40
0
40
0
40
1
40
1
40
1
10
-52.103921331764113
20
26.875229938420837
30
0
10
-52.001602210403334
20
27.034847898873871
30
0
10
-51.831752218604933
20
27.132051153573578
30
0
0
SPLINE
5
140
100
AcDbEntity
8
0
100
AcDbSpline
70
0
71
2
72
6
73
3
74
0
42
0.000000001
43
0.0000000001
44
0.0000000001
40
0
40
0
40
0
40
1
40
1
40
1
10
-51.831752218604933
20
27.132051153573578
30
0
10
-51.661902226806532
20
27.229254408273285
30
0
10
-51.444985427261244
20
27.229254408273285
30
0
0
SPLINE
5
141
100
AcDbEntity
8
0
100
AcDbSpline
70
0
71
2
72
6
73
3
74
0
42
0.000000001
43
0.0000000001
44
0.0000000001
40
0
40
0
40
0
40
1
40
1
40
1
10
-51.444985427261244
20
27.229254408273285
30
0
10
-51.203512110114943
20
27.229254408273285
30
0
10
-51.049009718299757
20
27.128981663379257
30
0
0
SPLINE
5
142
100
AcDbEntity
8
0
100
AcDbSpline
70
0
71
2
72
6
73
3
74
0
42
0.000000001
43
0.0000000001
44
0.0000000001
40
0
40
0
40
0
40
1
40
1
40
1
10
-51.049009718299757
20
27.128981663379257
30
0
10
-50.89450792253102
20
27.028708769473617
30
0
10
-50.831070103050124
20
26.848626895341461
30
0
0
SPLINE
5
143
100
AcDbEntity
8
0
100
AcDbSpline
70
0
71
2
72
6
73
3
74
0
42
0.000000001
43
0.0000000001
44
0.0000000001
40
0
40
0
40
0
40
1
40
1
40
1
10
-50.831070103050124
20
26.848626895341461
30
0
10
-50.573225774169813
20
27.229254408273285
30
0
10
-50.159855641723524
20
27.229254408273285
30
0
0
SPLINE
5
144
100
AcDbEntity
8
0
100
AcDbSpline
70
0
71
2
72
6
73
3
74
0
42
0.000000001
43
0.0000000001
44
0.0000000001
40
0
40
0
40
0
40
1
40
1
40
1
10
-50.159855641723524
20
27.229254408273285
30
0
10
-49.836526669860731
20
27.229254408273285
30
0
10
-49.662584223152052
20
27.05019579688031
30
0
0
SPLINE
5
145
100
AcDbEntity
8
0
100
AcDbSpline
70
0
71
2
72
6
73
3
74
0
42
0.000000001
43
0.0000000001
44
0.0000000001
40
0
40
0
40
0
40
1
40
1
40
1
10
-49.662584223152052
20
27.05019579688031
30
0
10
-49.488641776443373
20
26.871137185487335
30
0
10
-49.488641776443373
20
26.498695178422516
30
0
0
LINE
5
146
100
AcDbEntity
8
0
100
AcDbLine
10
-49.488641776443373
20
26.498695178422516
30
0
11
-49.488641776443373
21
25.006880624684875
31
0
0
LINE
5
147
100
AcDbEntity
8
0
100
AcDbLine
10
-49.488641776443373
20
25.006880624684875
30
0
11
-49.854944505096327
21
25.006880624684875
31
0
0
LINE
5
148
100
AcDbEntity
8
0
100
AcDbLine
10
-49.854944505096327
20
25.006880624684875
30
0
11
-49.854944505096327
21
26.375911994371002
31
0
0
SPLINE
5
149
100
AcDbEntity
8
0
100
AcDbSpline
70
0
71
2
72
6
73
3
74
0
42
0.000000001
43
0.0000000001
44
0.0000000001
40
0
40
0
40
0
40
1
40
1
40
1
10
-49.854944505096327
20
26.375911994371002
30
0
10
-49.854944505096327
20
26.596921546849792
30
0
10
-49.890756167770277
20
26.694124801549499
30
0
0
SPLINE
5
150
100
AcDbEntity
8
0
100
AcDbSpline
70
0
71
2
72
6
73
3
74
0
42
0.000000001
43
0.0000000001
44
0.0000000001
40
0
40
0
40
0
40
1
40
1
40
1
10
-49.890756167770277
20
26.694124801549499
30
0
10
-49.926567830444228
20
26.791328205260818
30
0
10
-50.020701445938002
20
26.850673271808212
30
0
0
SPLINE
5
151
100
AcDbEntity
8
0
100
AcDbSpline
70
0
71
2
72
6
73
3
74
0
42
0.000000001
43
0.0000000001
44
0.0000000001
40
0
40
0
40
0
40
1
40
1
40
1
10
-50.020701445938002
20
26.850673271808212
30
0
10
-50.114835061431776
20
26.910018487367218
30
0
10
-50.241710700393568
20
26.910018487367218
30
0
0
SPLINE
5
152
100
AcDbEntity
8
0
100
AcDbSpline
70
0
71
2
72
6
73
3
74
0
42
0.000000001
43
0.0000000001
44
0.0000000001
40
0
40
0
40
0
40
1
40
1
40
1
10
-50.241710700393568
20
26.910018487367218
30
0
10
-50.470906056762587
20
26.910018487367218
30
0
10
-50.62233880937184
20
26.757562770042007
30
0
0
SPLINE
5
153
100
AcDbEntity
8
0
100
AcDbSpline
70
0
71
2
72
6
73
3
74
0
42
0.000000001
43
0.0000000001
44
0.0000000001
40
0
40
0
40
0
40
1
40
1
40
1
10
-50.62233880937184
20
26.757562770042007
30
0
10
-50.773770965934645
20
26.605107052716797
30
0
10
-50.773770965934645
20
26.269499822053497
30
0
0
LINE
5
154
100
AcDbEntity
8
0
100
AcDbLine
10
-50.773770965934645
20
26.269499822053497
30
0
11
-50.773770965934645
21
25.006880624684875
31
0
0
LINE
5
155
100
AcDbEntity
8
0
100
AcDbLine
10
-50.773770965934645
20
25.006880624684875
30
0
11
-51.142120518089186
21
25.006880624684875
31
0
0
LINE
5
156
100
AcDbEntity
8
0
100
AcDbLine
10
-51.142120518089186
20
25.006880624684875
30
0
11
-51.142120518089186
21
26.418886049184387
31
0
0
SPLINE
5
157
100
AcDbEntity
8
0
100
AcDbSpline
70
0
71
2
72
6
73
3
74
0
42
0.000000001
43
0.0000000001
44
0.0000000001
40
0
40
0
40
0
40
1
40
1
40
1
10
-51.142120518089186
20
26.418886049184387
30
0
10
-51.142120518089186
20
26.664452268275802
30
0
10
-51.232161082626234
20
26.787235303315704
30
0
0
SPLINE
5
158
100
AcDbEntity
8
0
100
AcDbSpline
70
0
71
2
72
6
73
3
74
0
42
0.000000001
43
0.0000000001
44
0.0000000001
40
0
40
0
40
0
40
1
40
1
40
1
10
-51.232161082626234
20
26.787235303315704
30
0
10
-51.32220224320973
20
26.910018487367218
30
0
10
-51.526840485931288
20
26.910018487367218
30
0
0
SPLINE
5
159
100
AcDbEntity
8
0
100
AcDbSpline
70
0
71
2
72
6
73
3
74
0
42
0.000000001
43
0.0000000001
44
0.0000000001
40
0
40
0
40
0
40
1
40
1
40
1
10
-51.526840485931288
20
26.910018487367218
30
0
10
-51.682365693450819
20
26.910018487367218
30
0
10
-51.814357795120131
20
26.82816313067395
30
0
0
SPLINE
5
160
100
AcDbEntity
8
0
100
AcDbSpline
70
0
71
2
72
6
73
3
74
0
42
0.000000001
43
0.0000000001
44
0.0000000001
40
0
40
0
40
0
40
1
40
1
40
1
10
-51.814357795120131
20
26.82816313067395
30
0
10
-51.946349896789442
20
26.74630762496907
30
0
10
-52.005694665313612
20
26.588736040982788
30
0
0
SPLINE
5
161
100
AcDbEntity
8
0
100
AcDbSpline
70
0
71
2
72
6
73
3
74
0
42
0.000000001
43
0.0000000001
44
0.0000000001
40
0
40
0
40
0
40
1
40
1
40
1
10
-52.005694665313612
20
26.588736040982788
30
0
10
-52.06504002988423
20
26.431164456996505
30
0
10
-52.06504002988423
20
26.134438677224701
30
0
0
LINE
5
162
100
AcDbEntity
8
0
100
AcDbLine
10
-52.06504002988423
20
26.134438677224701
30
0
11
-52.06504002988423
21
25.006880624684875
31
0
0
LINE
5
163
100
AcDbEntity
8
0
100
AcDbLine
10
-52.06504002988423
20
25.006880624684875
30
0
11
-52.433389284015547
21
25.006880624684875
31
0
0
LINE
5
164
100
AcDbEntity
8
0
100
AcDbLine
10
-48.942256726623427
20
25.006880624684875
30
0
11
-48.942256726623427
21
27.180141224059646
31
0
0
LINE
5
165
100
AcDbEntity
8
0
100
AcDbLine
10
-48.942256726623427
20
27.180141224059646
30
0
11
-48.612788476348769
21
27.180141224059646
31
0
0
LINE
5
166
100
AcDbEntity
8
0
100
AcDbLine
10
-48.612788476348769
20
27.180141224059646
30
0
11
-48.612788476348769
21
26.875229938420837
31
0
0
SPLINE
5
167
100
AcDbEntity
8
0
100
AcDbSpline
70
0
71
2
72
6
73
3
74
0
42
0.000000001
43
0.0000000001
44
0.0000000001
40
0
40
0
40
0
40
1
40
1
40
1
10
-48.612788476348769
20
26.875229938420837
30
0
10
-48.51046935498799
20
27.034847898873871
30
0
10
-48.340619363189589
20
27.132051153573578
30
0
0
SPLINE
5
168
100
AcDbEntity
8
0
100
AcDbSpline
70
0
71
2
72
6
73
3
74
0
42
0.000000001
43
0.0000000001
44
0.0000000001
40
0
40
0
40
0
40
1
40
1
40
1
10
-48.340619363189589
20
27.132051153573578
30
0
10
-48.170769371391188
20
27.229254408273285
30
0
10
-47.9538525718459
20
27.229254408273285
30
0
0
SPLINE
5
169
100
AcDbEntity
8
0
100
AcDbSpline
70
0
71
2
72
6
73
3
74
0
42
0.000000001
43
0.0000000001
44
0.0000000001
40
0
40
0
40
0
40
1
40
1
40
1
10
-47.9538525718459
20
27.229254408273285
30
0
10
-47.712379254699599
20
27.229254408273285
30
0
10
-47.557877458930861
20
27.128981663379257
30
0
0
SPLINE
5
170
100
AcDbEntity
8
0
100
AcDbSpline
70
0
71
2
72
6
73
3
74
0
42
0.000000001
43
0.0000000001
44
0.0000000001
40
0
40
0
40
0
40
1
40
1
40
1
10
-47.557877458930861
20
27.128981663379257
30
0
10
-47.403375067115675
20
27.028708769473617
30
0
10
-47.339937247634779
20
26.848626895341461
30
0
0
SPLINE
5
171
100
AcDbEntity
8
0
100
AcDbSpline
70
0
71
2
72
6
73
3
74
0
42
0.000000001
43
0.0000000001
44
0.0000000001
40
0
40
0
40
0
40
1
40
1
40
1
10
-47.339937247634779
20
26.848626895341461
30
0
10
-47.082092322708021
20
27.229254408273285
30
0
10
-46.668723382354628
20
27.229254408273285
30
0
0
SPLINE
5
172
100
AcDbEntity
8
0
100
AcDbSpline
70
0
71
2
72
6
73
3
74
0
42
0.000000001
43
0.0000000001
44
0.0000000001
40
0
40
0
40
0
40
1
40
1
40
1
10
-46.668723382354628
20
27.229254408273285
30
0
10
-46.345394410491835
20
27.229254408273285
30
0
10
-46.171451367736708
20
27.05019579688031
30
0
0
SPLINE
5
173
100
AcDbEntity
8
0
100
AcDbSpline
70
0
71
2
72
6
73
3
74
0
42
0.000000001
43
0.0000000001
44
0.0000000001
40
0
40
0
40
0
40
1
40
1
40
1
10
-46.171451367736708
20
27.05019579688031
30
0
10
-45.997509517074477
20
26.871137185487335
30
0
10
-45.997509517074477
20
26.498695178422516
30
0
0
LINE
5
174
100
AcDbEntity
8
0
100
AcDbLine
10
-45.997509517074477
20
26.498695178422516
30
0
11
-45.997509517074477
21
25.006880624684875
31
0
0
LINE
5
175
100
AcDbEntity
8
0
100
AcDbLine
10
-45.997509517074477
20
25.006880624684875
30
0
11
-46.363811053634535
21
25.006880624684875
31
0
0
LINE
5
176
100
AcDbEntity
8
0
100
AcDbLine
10
-46.363811053634535
20
25.006880624684875
30
0
11
-46.363811053634535
21
26.375911994371002
31
0
0
SPLINE
5
177
100
AcDbEntity
8
0
100
AcDbSpline
70
0
71
2
72
6
73
3
74
0
42
0.000000001
43
0.0000000001
44
0.0000000001
40
0
40
0
40
0
40
1
40
1
40
1
10
-46.363811053634535
20
26.375911994371002
30
0
10
-46.363811053634535
20
26.596921546849792
30
0
10
-46.399623908401381
20
26.694124801549499
30
0
0
SPLINE
5
178
100
AcDbEntity
8
0
100
AcDbSpline
70
0
71
2
72
6
73
3
74
0
42
0.000000001
43
0.0000000001
44
0.0000000001
40
0
40
0
40
0
40
1
40
1
40
1
10
-46.399623908401381
20
26.694124801549499
30
0
10
-46.435435571075331
20
26.791328205260818
30
0
10
-46.529569186569105
20
26.850673271808212
30
0
0
SPLINE
5
179
100
AcDbEntity
8
0
100
AcDbSpline
70
0
71
2
72
6
73
3
74
0
42
0.000000001
43
0.0000000001
44
0.0000000001
40
0
40
0
40
0
40
1
40
1
40
1
10
-46.529569186569105
20
26.850673271808212
30
0
10
-46.62370280206288
20
26.910018487367218
30
0
10
-46.750578441024672
20
26.910018487367218
30
0
0
SPLINE
5
180
100
AcDbEntity
8
0
100
AcDbSpline
70
0
71
2
72
6
73
3
74
0
42
0.000000001
43
0.0000000001
44
0.0000000001
40
0
40
0
40
0
40
1
40
1
40
1
10
-46.750578441024672
20
26.910018487367218
30
0
10
-46.97977379739369
20
26.910018487367218
30
0
10
-47.131206550002943
20
26.757562770042007
30
0
0
SPLINE
5
181
100
AcDbEntity
8
0
100
AcDbSpline
70
0
71
2
72
6
73
3
74
0
42
0.000000001
43
0.0000000001
44
0.0000000001
40
0
40
0
40
0
40
1
40
1
40
1
10
-47.131206550002943
20
26.757562770042007
30
0
10
-47.282638110519301
20
26.605107052716797
30
0
10
-47.282638110519301
20
26.269499822053497
30
0
0
LINE
5
182
100
AcDbEntity
8
0
100
AcDbLine
10
-47.282638110519301
20
26.269499822053497
30
0
11
-47.282638110519301
21
25.006880624684875
31
0
0
LINE
5
183
100
AcDbEntity
8
0
100
AcDbLine
10
-47.282638110519301
20
25.006880624684875
30
0
11
-47.650987662673842
21
25.006880624684875
31
0
0
LINE
5
184
100
AcDbEntity
8
0
100
AcDbLine
10
-47.650987662673842
20
25.006880624684875
30
0
11
-47.650987662673842
21
26.418886049184387
31
0
0
SPLINE
5
185
100
AcDbEntity
8
0
100
AcDbSpline
70
0
71
2
72
6
73
3
74
0
42
0.000000001
43
0.0000000001
44
0.0000000001
40
0
40
0
40
0
40
1
40
1
40
1
10
-47.650987662673842
20
26.418886049184387
30
0
10
-47.650987662673842
20
26.664452268275802
30
0
10
-47.741028823257338
20
26.787235303315704
30
0
0
SPLINE
5
186
100
AcDbEntity
8
0
100
AcDbSpline
70
0
71
2
72
6
73
3
74
0
42
0.000000001
43
0.0000000001
44
0.0000000001
40
0
40
0
40
0
40
1
40
1
40
1
10
-47.741028823257338
20
26.787235303315704
30
0
10
-47.831069983840834
20
26.910018487367218
30
0
10
-48.035708226562392
20
26.910018487367218
30
0
0
SPLINE
5
187
100
AcDbEntity
8
0
100
AcDbSpline
70
0
71
2
72
6
73
3
74
0
42
0.000000001
43
0.0000000001
44
0.0000000001
40
0
40
0
40
0
40
1
40
1
40
1
10
-48.035708226562392
20
26.910018487367218
30
0
10
-48.191233434081923
20
26.910018487367218
30
0
10
-48.323225535751234
20
26.82816313067395
30
0
0
SPLINE
5
188
100
AcDbEntity
8
0
100
AcDbSpline
70
0
71
2
72
6
73
3
74
0
42
0.000000001
43
0.0000000001
44
0.0000000001
40
0
40
0
40
0
40
1
40
1
40
1
10
-48.323225535751234
20
26.82816313067395
30
0
10
-48.455217041374098
20
26.74630762496907
30
0
10
-48.514562405944716
20
26.588736040982788
30
0
0
SPLINE
5
189
100
AcDbEntity
8
0
100
AcDbSpline
70
0
71
2
72
6
73
3
74
0
42
0.000000001
43
0.0000000001
44
0.0000000001
40
0
40
0
40
0
40
1
40
1
40
1
10
-48.514562405944716
20
26.588736040982788
30
0
10
-48.573907174468886
20
26.431164456996505
30
0
10
-48.573907174468886
20
26.134438677224701
30
0
0
LINE
5
190
100
AcDbEntity
8
0
100
AcDbLine
10
-48.573907174468886
20
26.134438677224701
30
0
11
-48.573907174468886
21
25.006880624684875
31
0
0
LINE
5
191
100
AcDbEntity
8
0
100
AcDbLine
10
-48.573907174468886
20
25.006880624684875
30
0
11
-48.942256726623427
21
25.006880624684875
31
0
0
ENDSEC
0
SECTION
2
OBJECTS
0
DICTIONARY
5
C
100
AcDbDictionary
3
ACAD_GROUP
350
D
3
ACAD_MLINESTYLE
350
17
0
DICTIONARY
5
D
100
AcDbDictionary
0
DICTIONARY
5
1A
330
C
100
AcDbDictionary
0
DICTIONARY
5
17
100
AcDbDictionary
0
ENDSEC
0
EOF
