0
SECTION
2
HEADER
9
$INSUNITS
70
4
9
$ACADVER
1
AC1014
9
$HANDSEED
5
FFFF
0
ENDSEC
0
SECTION
2
TABLES
0
TABLE
2
VPORT
5
8
100
AcDbSymbolTable
0
ENDTAB
0
TABLE
2
LTYPE
5
5
100
AcDbSymbolTable
0
LTYPE
5
14
100
AcDbSymbolTableRecord
100
AcDbLinetypeTableRecord
2
BYBLOCK
70
0
0
LTYPE
5
15
100
AcDbSymbolTableRecord
100
AcDbLinetypeTableRecord
2
BYLAYER
70
0
0
ENDTAB
0
TABLE
2
LAYER
5
2
100
AcDbSymbolTable
70
2
0
LAYER
5
50
100
AcDbSymbolTableRecord
100
AcDbLayerTableRecord
2
0
70
0
6
CONTINUOUS
0
ENDTAB
0
TABLE
2
STYLE
5
3
100
AcDbSymbolTable
70
1
0
STYLE
5
11
100
AcDbSymbolTableRecord
100
AcDbTextStyleTableRecord
2
STANDARD
70
0
0
ENDTAB
0
TABLE
2
VIEW
5
6
100
AcDbSymbolTable
70
0
0
ENDTAB
0
TABLE
2
UCS
5
7
100
AcDbSymbolTable
70
0
0
ENDTAB
0
TABLE
2
APPID
5
9
100
AcDbSymbolTable
70
2
0
APPID
5
12
100
AcDbSymbolTableRecord
100
AcDbRegAppTableRecord
2
ACAD
70
0
0
ENDTAB
0
TABLE
2
DIMSTYLE
5
A
100
AcDbSymbolTable
70
1
0
ENDTAB
0
TABLE
2
BLOCK_RECORD
5
1
100
AcDbSymbolTable
70
1
0
BLOCK_RECORD
5
1F
100
AcDbSymbolTableRecord
100
AcDbBlockTableRecord
2
*MODEL_SPACE
0
BLOCK_RECORD
5
1B
100
AcDbSymbolTableRecord
100
AcDbBlockTableRecord
2
*PAPER_SPACE
0
ENDTAB
0
ENDSEC
0
SECTION
2
BLOCKS
0
BLOCK
5
20
100
AcDbEntity
100
AcDbBlockBegin
2
*MODEL_SPACE
0
ENDBLK
5
21
100
AcDbEntity
100
AcDbBlockEnd
0
BLOCK
5
1C
100
AcDbEntity
100
AcDbBlockBegin
2
*PAPER_SPACE
0
ENDBLK
5
1D
100
AcDbEntity
100
AcDbBlockEnd
0
ENDSEC
0
SECTION
2
ENTITIES
0
LWPOLYLINE
5
100
100
AcDbEntity
8
0
100
AcDbPolyline
90
4
70
1
43
0.0
10
-96.806071090702119
20
-30.799194163393476
10
-16.206071090702192
20
-30.799194163403204
10
-16.20607109069914
20
-5.7382525079928826
10
-96.806071090699078
20
-5.7382525079832591
0
LWPOLYLINE
5
101
100
AcDbEntity
8
0
100
AcDbPolyline
90
4
70
1
43
0.0
10
-96.806071090702147
20
-30.799194163393274
10
-16.206071090702121
20
-30.799194163402944
10
-16.206071090699137
20
-5.7382525079928826
10
-96.806071090699135
20
-5.7382525079832591
0
ELLIPSE
5
102
100
AcDbEntity
8
0
100
AcDbEllipse
10
-40.678591251764558
20
-16.704416258236446
30
0
11
-3.894822732620825e-13
21
-3.2010969359707762
31
0.0
40
0.99965732497555704
41
0
42
6.2831853071795862
0
LINE
5
103
100
AcDbEntity
8
0
100
AcDbLine
10
-40.678591251764558
20
-16.704416258236446
30
0
11
-43.878591251764561
21
-16.704416258236446
31
-1.772951695156239e-31
0
LINE
5
104
100
AcDbEntity
8
0
100
AcDbLine
10
-37.478591251764563
20
-16.704416258236446
30
1.772951695156239e-31
11
-40.678591251764558
21
-16.704416258236446
31
0
0
LINE
5
105
100
AcDbEntity
8
0
100
AcDbLine
10
-40.678591251764558
20
-16.704416258236446
30
0
11
-40.678591251764558
21
-19.905513194207224
31
0
0
LINE
5
106
100
AcDbEntity
8
0
100
AcDbLine
10
-40.678591251764558
20
-16.704416258236446
30
0
11
-40.678591251764558
21
-13.503319322265668
31
0
0
LWPOLYLINE
5
107
100
AcDbEntity
8
0
100
AcDbPolyline
90
4
70
1
43
0.0
10
-35.019264612089728
20
-23.348082263245793
10
-42.809469123981756
20
-23.348082263245775
10
-42.809469123981756
20
-25.00709676549976
10
-35.019264612089728
20
-25.007096765499778
0
LINE
5
108
100
AcDbEntity
8
0
100
AcDbLine
10
-36.124312448989485
20
-22.007096646290485
30
0
11
-35.755963120352362
21
-22.007096646290485
31
0
0
LINE
5
109
100
AcDbEntity
8
0
100
AcDbLine
10
-35.755963120352362
20
-22.007096646290485
30
0
11
-35.755963120352362
21
-24.354299990397159
31
0
0
SPLINE
5
110
100
AcDbEntity
8
0
100
AcDbSpline
70
0
71
2
72
6
73
3
74
0
42
0.000000001
43
0.0000000001
44
0.0000000001
40
0
40
0
40
0
40
1
40
1
40
1
10
-35.755963120352362
20
-24.354299990397159
30
0
10
-35.622948128472899
20
-24.227424053412143
30
0
10
-35.407054517160987
20
-24.100548265438743
30
0
0
SPLINE
5
111
100
AcDbEntity
8
0
100
AcDbSpline
70
0
71
2
72
6
73
3
74
0
42
0.000000001
43
0.0000000001
44
0.0000000001
40
0
40
0
40
0
40
1
40
1
40
1
10
-35.407054517160987
20
-24.100548265438743
30
0
10
-35.191160905849074
20
-23.973672328453727
30
0
10
-35.019264612089728
20
-23.910234508972831
30
0
0
LINE
5
112
100
AcDbEntity
8
0
100
AcDbLine
10
-35.019264612089728
20
-23.910234508972831
30
0
11
-35.019264612089728
21
-24.26630535529203
31
0
0
SPLINE
5
113
100
AcDbEntity
8
0
100
AcDbSpline
70
0
71
2
72
6
73
3
74
0
42
0.000000001
43
0.0000000001
44
0.0000000001
40
0
40
0
40
0
40
1
40
1
40
1
10
-35.019264612089728
20
-24.26630535529203
30
0
10
-35.328268725167845
20
-24.411598680477805
30
0
10
-35.559510159980391
20
-24.618283746700946
30
0
0
SPLINE
5
114
100
AcDbEntity
8
0
100
AcDbSpline
70
0
71
2
72
6
73
3
74
0
42
0.000000001
43
0.0000000001
44
0.0000000001
40
0
40
0
40
0
40
1
40
1
40
1
10
-35.559510159980391
20
-24.618283746700946
30
0
10
-35.790751669298743
20
-24.824968514900867
30
0
10
-35.886931735765074
20
-25.019375024300281
30
0
0
LINE
5
115
100
AcDbEntity
8
0
100
AcDbLine
10
-35.886931735765074
20
-25.019375024300281
30
0
11
-36.124312448989485
21
-25.019375024300281
31
0
0
LINE
5
116
100
AcDbEntity
8
0
100
AcDbLine
10
-36.124312448989485
20
-25.019375024300281
30
0
11
-36.124312448989485
21
-22.007096646290485
31
0
0
SPLINE
5
117
100
AcDbEntity
8
0
100
AcDbSpline
70
0
71
2
72
6
73
3
74
0
42
0.000000001
43
0.0000000001
44
0.0000000001
40
0
40
0
40
0
40
1
40
1
40
1
10
-37.06769572545204
20
-23.486632941227619
30
0
10
-37.06769572545204
20
-24.018692908745471
30
0
10
-37.177177238952254
20
-24.343044845324222
30
0
0
SPLINE
5
118
100
AcDbEntity
8
0
100
AcDbSpline
70
0
71
2
72
6
73
3
74
0
42
0.000000001
43
0.0000000001
44
0.0000000001
40
0
40
0
40
0
40
1
40
1
40
1
10
-37.177177238952254
20
-24.343044845324222
30
0
10
-37.286658752452468
20
-24.667396781902973
30
0
10
-37.502552438270186
20
-24.843386052113239
30
0
0
SPLINE
5
119
100
AcDbEntity
8
0
100
AcDbSpline
70
0
71
2
72
6
73
3
74
0
42
0.000000001
43
0.0000000001
44
0.0000000001
40
0
40
0
40
0
40
1
40
1
40
1
10
-37.502552438270186
20
-24.843386052113239
30
0
10
-37.718446124087905
20
-25.019375024300277
30
0
10
-38.045867550860976
20
-25.019375024300277
30
0
0
SPLINE
5
120
100
AcDbEntity
8
0
100
AcDbSpline
70
0
71
2
72
6
73
3
74
0
42
0.000000001
43
0.0000000001
44
0.0000000001
40
0
40
0
40
0
40
1
40
1
40
1
10
-38.045867550860976
20
-25.019375024300277
30
0
10
-38.287340868007277
20
-25.019375024300277
30
0
10
-38.469469416629408
20
-24.92217176960057
30
0
0
SPLINE
5
121
100
AcDbEntity
8
0
100
AcDbSpline
70
0
71
2
72
6
73
3
74
0
42
0.000000001
43
0.0000000001
44
0.0000000001
40
0
40
0
40
0
40
1
40
1
40
1
10
-38.469469416629408
20
-24.92217176960057
30
0
10
-38.651597369205092
20
-24.824968514900863
30
0
10
-38.770287800323104
20
-24.641817150574386
30
0
0
SPLINE
5
122
100
AcDbEntity
8
0
100
AcDbSpline
70
0
71
2
72
6
73
3
74
0
42
0.000000001
43
0.0000000001
44
0.0000000001
40
0
40
0
40
0
40
1
40
1
40
1
10
-38.770287800323104
20
-24.641817150574386
30
0
10
-38.888978231441115
20
-24.458665786247909
30
0
10
-38.956508803855513
20
-24.195705143671692
30
0
0
SPLINE
5
123
100
AcDbEntity
8
0
100
AcDbSpline
70
0
71
2
72
6
73
3
74
0
42
0.000000001
43
0.0000000001
44
0.0000000001
40
0
40
0
40
0
40
1
40
1
40
1
10
-38.956508803855513
20
-24.195705143671692
30
0
10
-39.024039376269911
20
-23.932744799118698
30
0
10
-39.024039376269911
20
-23.486632941227615
30
0
0
SPLINE
5
124
100
AcDbEntity
8
0
100
AcDbSpline
70
0
71
2
72
6
73
3
74
0
42
0.000000001
43
0.0000000001
44
0.0000000001
40
0
40
0
40
0
40
1
40
1
40
1
10
-39.024039376269911
20
-23.486632941227615
30
0
10
-39.024039376269911
20
-22.958665428620041
30
0
10
-38.915580976497267
20
-22.634313641052902
30
0
0
SPLINE
5
125
100
AcDbEntity
8
0
100
AcDbSpline
70
0
71
2
72
6
73
3
74
0
42
0.000000001
43
0.0000000001
44
0.0000000001
40
0
40
0
40
0
40
1
40
1
40
1
10
-38.915580976497267
20
-22.634313641052902
30
0
10
-38.807122576724623
20
-22.309961555462539
30
0
10
-38.591229188930129
20
-22.132949171524704
30
0
0
SPLINE
5
126
100
AcDbEntity
8
0
100
AcDbSpline
70
0
71
2
72
6
73
3
74
0
42
0.000000001
43
0.0000000001
44
0.0000000001
40
0
40
0
40
0
40
1
40
1
40
1
10
-38.591229188930129
20
-22.132949171524704
30
0
10
-38.375335801135634
20
-21.955937085610092
30
0
10
-38.045867550860976
20
-21.955937085610092
30
0
0
SPLINE
5
127
100
AcDbEntity
8
0
100
AcDbSpline
70
0
71
2
72
6
73
3
74
0
42
0.000000001
43
0.0000000001
44
0.0000000001
40
0
40
0
40
0
40
1
40
1
40
1
10
-38.045867550860976
20
-21.955937085610092
30
0
10
-37.6120339517704
20
-21.955937085610092
30
0
10
-37.364421654235457
20
-22.266987500649158
30
0
0
SPLINE
5
128
100
AcDbEntity
8
0
100
AcDbSpline
70
0
71
2
72
6
73
3
74
0
42
0.000000001
43
0.0000000001
44
0.0000000001
40
0
40
0
40
0
40
1
40
1
40
1
10
-37.364421654235457
20
-22.266987500649158
30
0
10
-37.06769572545204
20
-22.641475735169116
30
0
10
-37.06769572545204
20
-23.486632941227619
30
0
0
SPLINE
5
129
100
AcDbEntity
8
0
100
AcDbSpline
70
0
71
2
72
6
73
3
74
0
42
0.000000001
43
0.0000000001
44
0.0000000001
40
0
40
0
40
0
40
1
40
1
40
1
10
-37.446277010928725
20
-23.486632941227619
30
0
10
-37.446277010928725
20
-22.747887907486621
30
0
10
-37.619196343909834
20
-22.503344951134384
30
0
0
SPLINE
5
130
100
AcDbEntity
8
0
100
AcDbSpline
70
0
71
2
72
6
73
3
74
0
42
0.000000001
43
0.0000000001
44
0.0000000001
40
0
40
0
40
0
40
1
40
1
40
1
10
-37.619196343909834
20
-22.503344951134384
30
0
10
-37.792115974914168
20
-22.25880199478215
30
0
10
-38.045867550860976
20
-22.25880199478215
30
0
0
SPLINE
5
131
100
AcDbEntity
8
0
100
AcDbSpline
70
0
71
2
72
6
73
3
74
0
42
0.000000001
43
0.0000000001
44
0.0000000001
40
0
40
0
40
0
40
1
40
1
40
1
10
-38.045867550860976
20
-22.25880199478215
30
0
10
-38.299619424831008
20
-22.25880199478215
30
0
10
-38.472539055835341
20
-22.504368064861954
30
0
0
SPLINE
5
132
100
AcDbEntity
8
0
100
AcDbSpline
70
0
71
2
72
6
73
3
74
0
42
0.000000001
43
0.0000000001
44
0.0000000001
40
0
40
0
40
0
40
1
40
1
40
1
10
-38.472539055835341
20
-22.504368064861954
30
0
10
-38.645458388816451
20
-22.749934134941757
30
0
10
-38.645458388816451
20
-23.486632941227615
30
0
0
SPLINE
5
133
100
AcDbEntity
8
0
100
AcDbSpline
70
0
71
2
72
6
73
3
74
0
42
0.000000001
43
0.0000000001
44
0.0000000001
40
0
40
0
40
0
40
1
40
1
40
1
10
-38.645458388816451
20
-23.486632941227615
30
0
10
-38.645458388816451
20
-24.227424202423752
30
0
10
-38.472539055835341
20
-24.470944045048416
30
0
0
SPLINE
5
134
100
AcDbEntity
8
0
100
AcDbSpline
70
0
71
2
72
6
73
3
74
0
42
0.000000001
43
0.0000000001
44
0.0000000001
40
0
40
0
40
0
40
1
40
1
40
1
10
-38.472539055835341
20
-24.470944045048416
30
0
10
-38.299619424831008
20
-24.71446388767308
30
0
10
-38.041774797927474
20
-24.71446388767308
30
0
0
SPLINE
5
135
100
AcDbEntity
8
0
100
AcDbSpline
70
0
71
2
72
6
73
3
74
0
42
0.000000001
43
0.0000000001
44
0.0000000001
40
0
40
0
40
0
40
1
40
1
40
1
10
-38.041774797927474
20
-24.71446388767308
30
0
10
-37.788023221980666
20
-24.71446388767308
30
0
10
-37.636590767394637
20
-24.499593315582931
30
0
0
SPLINE
5
136
100
AcDbEntity
8
0
100
AcDbSpline
70
0
71
2
72
6
73
3
74
0
42
0.000000001
43
0.0000000001
44
0.0000000001
40
0
40
0
40
0
40
1
40
1
40
1
10
-37.636590767394637
20
-24.499593315582931
30
0
10
-37.446277010928725
20
-24.225377825957004
30
0
10
-37.446277010928725
20
-23.486632941227619
30
0
0
LINE
5
137
100
AcDbEntity
8
0
100
AcDbLine
10
-39.500847030173873
20
-22.007096646290478
30
0
11
-39.500847030173873
21
-24.180357245665249
31
0
0
LINE
5
138
100
AcDbEntity
8
0
100
AcDbLine
10
-39.500847030173873
20
-24.180357245665249
30
0
11
-39.830314982425307
21
-24.180357245665249
31
0
0
LINE
5
139
100
AcDbEntity
8
0
100
AcDbLine
10
-39.830314982425307
20
-24.180357245665249
30
0
11
-39.830314982425307
21
-23.87544596002644
31
0
0
SPLINE
5
140
100
AcDbEntity
8
0
100
AcDbSpline
70
0
71
2
72
6
73
3
74
0
42
0.000000001
43
0.0000000001
44
0.0000000001
40
0
40
0
40
0
40
1
40
1
40
1
10
-39.830314982425307
20
-23.87544596002644
30
0
10
-39.932634103786086
20
-24.035063920479473
30
0
10
-40.102484095584487
20
-24.13226717517918
30
0
0
SPLINE
5
141
100
AcDbEntity
8
0
100
AcDbSpline
70
0
71
2
72
6
73
3
74
0
42
0.000000001
43
0.0000000001
44
0.0000000001
40
0
40
0
40
0
40
1
40
1
40
1
10
-40.102484095584487
20
-24.13226717517918
30
0
10
-40.272334087382887
20
-24.229470429878887
30
0
10
-40.489250886928176
20
-24.229470429878887
30
0
0
SPLINE
5
142
100
AcDbEntity
8
0
100
AcDbSpline
70
0
71
2
72
6
73
3
74
0
42
0.000000001
43
0.0000000001
44
0.0000000001
40
0
40
0
40
0
40
1
40
1
40
1
10
-40.489250886928176
20
-24.229470429878887
30
0
10
-40.730724204074477
20
-24.229470429878887
30
0
10
-40.885226595889662
20
-24.12919768498486
30
0
0
SPLINE
5
143
100
AcDbEntity
8
0
100
AcDbSpline
70
0
71
2
72
6
73
3
74
0
42
0.000000001
43
0.0000000001
44
0.0000000001
40
0
40
0
40
0
40
1
40
1
40
1
10
-40.885226595889662
20
-24.12919768498486
30
0
10
-41.0397283916584
20
-24.02892479107922
30
0
10
-41.103166211139296
20
-23.848842916947063
30
0
0
SPLINE
5
144
100
AcDbEntity
8
0
100
AcDbSpline
70
0
71
2
72
6
73
3
74
0
42
0.000000001
43
0.0000000001
44
0.0000000001
40
0
40
0
40
0
40
1
40
1
40
1
10
-41.103166211139296
20
-23.848842916947063
30
0
10
-41.361010540019606
20
-24.229470429878887
30
0
10
-41.774380672465895
20
-24.22947042987888
30
0
0
SPLINE
5
145
100
AcDbEntity
8
0
100
AcDbSpline
70
0
71
2
72
6
73
3
74
0
42
0.000000001
43
0.0000000001
44
0.0000000001
40
0
40
0
40
0
40
1
40
1
40
1
10
-41.774380672465895
20
-24.22947042987888
30
0
10
-42.097709644328688
20
-24.22947042987888
30
0
10
-42.271652091037367
20
-24.050411818485905
30
0
0
SPLINE
5
146
100
AcDbEntity
8
0
100
AcDbSpline
70
0
71
2
72
6
73
3
74
0
42
0.000000001
43
0.0000000001
44
0.0000000001
40
0
40
0
40
0
40
1
40
1
40
1
10
-42.271652091037367
20
-24.050411818485905
30
0
10
-42.445594537746047
20
-23.87135320709293
30
0
10
-42.445594537746047
20
-23.498911200028111
30
0
0
LINE
5
147
100
AcDbEntity
8
0
100
AcDbLine
10
-42.445594537746047
20
-23.498911200028111
30
0
11
-42.445594537746047
21
-22.007096646290471
31
0
0
LINE
5
148
100
AcDbEntity
8
0
100
AcDbLine
10
-42.445594537746047
20
-22.007096646290471
30
0
11
-42.079291809093093
21
-22.007096646290471
31
0
0
LINE
5
149
100
AcDbEntity
8
0
100
AcDbLine
10
-42.079291809093093
20
-22.007096646290471
30
0
11
-42.079291809093093
21
-23.376128015976597
31
0
0
SPLINE
5
150
100
AcDbEntity
8
0
100
AcDbSpline
70
0
71
2
72
6
73
3
74
0
42
0.000000001
43
0.0000000001
44
0.0000000001
40
0
40
0
40
0
40
1
40
1
40
1
10
-42.079291809093093
20
-23.376128015976597
30
0
10
-42.079291809093093
20
-23.597137568455388
30
0
10
-42.043480146419142
20
-23.694340823155095
30
0
0
SPLINE
5
151
100
AcDbEntity
8
0
100
AcDbSpline
70
0
71
2
72
6
73
3
74
0
42
0.000000001
43
0.0000000001
44
0.0000000001
40
0
40
0
40
0
40
1
40
1
40
1
10
-42.043480146419142
20
-23.694340823155095
30
0
10
-42.007668483745192
20
-23.791544226866414
30
0
10
-41.913534868251418
20
-23.850889293413807
30
0
0
SPLINE
5
152
100
AcDbEntity
8
0
100
AcDbSpline
70
0
71
2
72
6
73
3
74
0
42
0.000000001
43
0.0000000001
44
0.0000000001
40
0
40
0
40
0
40
1
40
1
40
1
10
-41.913534868251418
20
-23.850889293413807
30
0
10
-41.819401252757643
20
-23.910234508972813
30
0
10
-41.692525613795851
20
-23.910234508972813
30
0
0
SPLINE
5
153
100
AcDbEntity
8
0
100
AcDbSpline
70
0
71
2
72
6
73
3
74
0
42
0.000000001
43
0.0000000001
44
0.0000000001
40
0
40
0
40
0
40
1
40
1
40
1
10
-41.692525613795851
20
-23.910234508972813
30
0
10
-41.463330257426833
20
-23.910234508972813
30
0
10
-41.31189750481758
20
-23.75777879164761
30
0
0
SPLINE
5
154
100
AcDbEntity
8
0
100
AcDbSpline
70
0
71
2
72
6
73
3
74
0
42
0.000000001
43
0.0000000001
44
0.0000000001
40
0
40
0
40
0
40
1
40
1
40
1
10
-41.31189750481758
20
-23.75777879164761
30
0
10
-41.160465348254775
20
-23.605323074322399
30
0
10
-41.160465348254775
20
-23.2697158436591
30
0
0
LINE
5
155
100
AcDbEntity
8
0
100
AcDbLine
10
-41.160465348254775
20
-23.2697158436591
30
0
11
-41.160465348254775
21
-22.007096646290478
31
0
0
LINE
5
156
100
AcDbEntity
8
0
100
AcDbLine
10
-41.160465348254775
20
-22.007096646290478
30
0
11
-40.792115796100234
21
-22.007096646290478
31
0
0
LINE
5
157
100
AcDbEntity
8
0
100
AcDbLine
10
-40.792115796100234
20
-22.007096646290478
30
0
11
-40.792115796100234
21
-23.41910207078999
31
0
0
SPLINE
5
158
100
AcDbEntity
8
0
100
AcDbSpline
70
0
71
2
72
6
73
3
74
0
42
0.000000001
43
0.0000000001
44
0.0000000001
40
0
40
0
40
0
40
1
40
1
40
1
10
-40.792115796100234
20
-23.41910207078999
30
0
10
-40.792115796100234
20
-23.664668289881405
30
0
10
-40.702075231563185
20
-23.787451324921307
30
0
0
SPLINE
5
159
100
AcDbEntity
8
0
100
AcDbSpline
70
0
71
2
72
6
73
3
74
0
42
0.000000001
43
0.0000000001
44
0.0000000001
40
0
40
0
40
0
40
1
40
1
40
1
10
-40.702075231563185
20
-23.787451324921307
30
0
10
-40.612034070979689
20
-23.91023450897282
30
0
10
-40.407395828258132
20
-23.91023450897282
30
0
0
SPLINE
5
160
100
AcDbEntity
8
0
100
AcDbSpline
70
0
71
2
72
6
73
3
74
0
42
0.000000001
43
0.0000000001
44
0.0000000001
40
0
40
0
40
0
40
1
40
1
40
1
10
-40.407395828258132
20
-23.91023450897282
30
0
10
-40.2518706207386
20
-23.91023450897282
30
0
10
-40.119878519069289
20
-23.828379152279552
30
0
0
SPLINE
5
161
100
AcDbEntity
8
0
100
AcDbSpline
70
0
71
2
72
6
73
3
74
0
42
0.000000001
43
0.0000000001
44
0.0000000001
40
0
40
0
40
0
40
1
40
1
40
1
10
-40.119878519069289
20
-23.828379152279552
30
0
10
-39.987886417399977
20
-23.746523646574673
30
0
10
-39.928541648875807
20
-23.58895206258839
30
0
0
SPLINE
5
162
100
AcDbEntity
8
0
100
AcDbSpline
70
0
71
2
72
6
73
3
74
0
42
0.000000001
43
0.0000000001
44
0.0000000001
40
0
40
0
40
0
40
1
40
1
40
1
10
-39.928541648875807
20
-23.58895206258839
30
0
10
-39.86919628430519
20
-23.431380478602108
30
0
10
-39.86919628430519
20
-23.134654698830303
30
0
0
LINE
5
163
100
AcDbEntity
8
0
100
AcDbLine
10
-39.86919628430519
20
-23.134654698830303
30
0
11
-39.86919628430519
21
-22.007096646290478
31
0
0
LINE
5
164
100
AcDbEntity
8
0
100
AcDbLine
10
-39.86919628430519
20
-22.007096646290478
30
0
11
-39.500847030173873
21
-22.007096646290478
31
0
0
LINE
5
165
100
AcDbEntity
8
0
100
AcDbLine
10
-42.991979587565993
20
-22.007096646290471
30
0
11
-42.991979587565993
21
-24.180357245665242
31
0
0
LINE
5
166
100
AcDbEntity
8
0
100
AcDbLine
10
-42.991979587565993
20
-24.180357245665242
30
0
11
-43.321447837840651
21
-24.180357245665242
31
0
0
LINE
5
167
100
AcDbEntity
8
0
100
AcDbLine
10
-43.321447837840651
20
-24.180357245665238
30
0
11
-43.321447837840651
21
-23.875445960026429
31
0
0
SPLINE
5
168
100
AcDbEntity
8
0
100
AcDbSpline
70
0
71
2
72
6
73
3
74
0
42
0.000000001
43
0.0000000001
44
0.0000000001
40
0
40
0
40
0
40
1
40
1
40
1
10
-43.321447837840651
20
-23.875445960026429
30
0
10
-43.42376695920143
20
-24.035063920479462
30
0
10
-43.593616950999831
20
-24.13226717517917
30
0
0
SPLINE
5
169
100
AcDbEntity
8
0
100
AcDbSpline
70
0
71
2
72
6
73
3
74
0
42
0.000000001
43
0.0000000001
44
0.0000000001
40
0
40
0
40
0
40
1
40
1
40
1
10
-43.593616950999831
20
-24.13226717517917
30
0
10
-43.763466942798232
20
-24.229470429878877
30
0
10
-43.98038374234352
20
-24.229470429878877
30
0
0
SPLINE
5
170
100
AcDbEntity
8
0
100
AcDbSpline
70
0
71
2
72
6
73
3
74
0
42
0.000000001
43
0.0000000001
44
0.0000000001
40
0
40
0
40
0
40
1
40
1
40
1
10
-43.98038374234352
20
-24.229470429878877
30
0
10
-44.221857059489821
20
-24.229470429878877
30
0
10
-44.376358855258559
20
-24.129197684984849
30
0
0
SPLINE
5
171
100
AcDbEntity
8
0
100
AcDbSpline
70
0
71
2
72
6
73
3
74
0
42
0.000000001
43
0.0000000001
44
0.0000000001
40
0
40
0
40
0
40
1
40
1
40
1
10
-44.376358855258559
20
-24.129197684984849
30
0
10
-44.530861247073744
20
-24.028924791079209
30
0
10
-44.59429906655464
20
-23.848842916947053
30
0
0
SPLINE
5
172
100
AcDbEntity
8
0
100
AcDbSpline
70
0
71
2
72
6
73
3
74
0
42
0.000000001
43
0.0000000001
44
0.0000000001
40
0
40
0
40
0
40
1
40
1
40
1
10
-44.59429906655464
20
-23.848842916947053
30
0
10
-44.852143991481398
20
-24.229470429878877
30
0
10
-45.265512931834792
20
-24.229470429878877
30
0
0
SPLINE
5
173
100
AcDbEntity
8
0
100
AcDbSpline
70
0
71
2
72
6
73
3
74
0
42
0.000000001
43
0.0000000001
44
0.0000000001
40
0
40
0
40
0
40
1
40
1
40
1
10
-45.265512931834792
20
-24.229470429878877
30
0
10
-45.588841903697585
20
-24.229470429878873
30
0
10
-45.762784946452712
20
-24.050411818485898
30
0
0
SPLINE
5
174
100
AcDbEntity
8
0
100
AcDbSpline
70
0
71
2
72
6
73
3
74
0
42
0.000000001
43
0.0000000001
44
0.0000000001
40
0
40
0
40
0
40
1
40
1
40
1
10
-45.762784946452712
20
-24.050411818485898
30
0
10
-45.936726797114943
20
-23.871353207092923
30
0
10
-45.936726797114943
20
-23.498911200028104
30
0
0
LINE
5
175
100
AcDbEntity
8
0
100
AcDbLine
10
-45.936726797114943
20
-23.498911200028104
30
0
11
-45.936726797114943
21
-22.007096646290464
31
0
0
LINE
5
176
100
AcDbEntity
8
0
100
AcDbLine
10
-45.936726797114943
20
-22.007096646290464
30
0
11
-45.570425260554885
21
-22.007096646290464
31
0
0
LINE
5
177
100
AcDbEntity
8
0
100
AcDbLine
10
-45.570425260554885
20
-22.007096646290464
30
0
11
-45.570425260554885
21
-23.37612801597659
31
0
0
SPLINE
5
178
100
AcDbEntity
8
0
100
AcDbSpline
70
0
71
2
72
6
73
3
74
0
42
0.000000001
43
0.0000000001
44
0.0000000001
40
0
40
0
40
0
40
1
40
1
40
1
10
-45.570425260554885
20
-23.37612801597659
30
0
10
-45.570425260554885
20
-23.597137568455381
30
0
10
-45.534612405788039
20
-23.694340823155088
30
0
0
SPLINE
5
179
100
AcDbEntity
8
0
100
AcDbSpline
70
0
71
2
72
6
73
3
74
0
42
0.000000001
43
0.0000000001
44
0.0000000001
40
0
40
0
40
0
40
1
40
1
40
1
10
-45.534612405788039
20
-23.694340823155088
30
0
10
-45.498800743114089
20
-23.791544226866407
30
0
10
-45.404667127620314
20
-23.8508892934138
30
0
0
SPLINE
5
180
100
AcDbEntity
8
0
100
AcDbSpline
70
0
71
2
72
6
73
3
74
0
42
0.000000001
43
0.0000000001
44
0.0000000001
40
0
40
0
40
0
40
1
40
1
40
1
10
-45.404667127620314
20
-23.8508892934138
30
0
10
-45.31053351212654
20
-23.91023450897281
30
0
10
-45.183657873164748
20
-23.91023450897281
30
0
0
SPLINE
5
181
100
AcDbEntity
8
0
100
AcDbSpline
70
0
71
2
72
6
73
3
74
0
42
0.000000001
43
0.0000000001
44
0.0000000001
40
0
40
0
40
0
40
1
40
1
40
1
10
-45.183657873164748
20
-23.91023450897281
30
0
10
-44.954462516795729
20
-23.91023450897281
30
0
10
-44.803029764186476
20
-23.757778791647599
30
0
0
SPLINE
5
182
100
AcDbEntity
8
0
100
AcDbSpline
70
0
71
2
72
6
73
3
74
0
42
0.000000001
43
0.0000000001
44
0.0000000001
40
0
40
0
40
0
40
1
40
1
40
1
10
-44.803029764186476
20
-23.757778791647599
30
0
10
-44.651598203670119
20
-23.605323074322389
30
0
10
-44.651598203670119
20
-23.269715843659089
30
0
0
LINE
5
183
100
AcDbEntity
8
0
100
AcDbLine
10
-44.651598203670119
20
-23.269715843659089
30
0
11
-44.651598203670119
21
-22.007096646290467
31
0
0
LINE
5
184
100
AcDbEntity
8
0
100
AcDbLine
10
-44.651598203670119
20
-22.007096646290467
30
0
11
-44.283248651515578
21
-22.007096646290467
31
0
0
LINE
5
185
100
AcDbEntity
8
0
100
AcDbLine
10
-44.283248651515578
20
-22.007096646290467
30
0
11
-44.283248651515578
21
-23.419102070789979
31
0
0
SPLINE
5
186
100
AcDbEntity
8
0
100
AcDbSpline
70
0
71
2
72
6
73
3
74
0
42
0.000000001
43
0.0000000001
44
0.0000000001
40
0
40
0
40
0
40
1
40
1
40
1
10
-44.283248651515578
20
-23.419102070789979
30
0
10
-44.283248651515578
20
-23.664668289881394
30
0
10
-44.193207490932082
20
-23.787451324921296
30
0
0
SPLINE
5
187
100
AcDbEntity
8
0
100
AcDbSpline
70
0
71
2
72
6
73
3
74
0
42
0.000000001
43
0.0000000001
44
0.0000000001
40
0
40
0
40
0
40
1
40
1
40
1
10
-44.193207490932082
20
-23.787451324921296
30
0
10
-44.103166330348586
20
-23.91023450897281
30
0
10
-43.898528087627028
20
-23.91023450897281
30
0
0
SPLINE
5
188
100
AcDbEntity
8
0
100
AcDbSpline
70
0
71
2
72
6
73
3
74
0
42
0.000000001
43
0.0000000001
44
0.0000000001
40
0
40
0
40
0
40
1
40
1
40
1
10
-43.898528087627028
20
-23.91023450897281
30
0
10
-43.743002880107497
20
-23.91023450897281
30
0
10
-43.611010778438185
20
-23.828379152279542
30
0
0
SPLINE
5
189
100
AcDbEntity
8
0
100
AcDbSpline
70
0
71
2
72
6
73
3
74
0
42
0.000000001
43
0.0000000001
44
0.0000000001
40
0
40
0
40
0
40
1
40
1
40
1
10
-43.611010778438185
20
-23.828379152279542
30
0
10
-43.479019272815322
20
-23.746523646574662
30
0
10
-43.419673908244704
20
-23.58895206258838
30
0
0
SPLINE
5
190
100
AcDbEntity
8
0
100
AcDbSpline
70
0
71
2
72
6
73
3
74
0
42
0.000000001
43
0.0000000001
44
0.0000000001
40
0
40
0
40
0
40
1
40
1
40
1
10
-43.419673908244704
20
-23.58895206258838
30
0
10
-43.360329139720534
20
-23.431380478602097
30
0
10
-43.360329139720534
20
-23.134654698830293
30
0
0
LINE
5
191
100
AcDbEntity
8
0
100
AcDbLine
10
-43.360329139720534
20
-23.134654698830293
30
0
11
-43.360329139720534
21
-22.007096646290467
31
0
0
LINE
5
192
100
AcDbEntity
8
0
100
AcDbLine
10
-43.360329139720534
20
-22.007096646290467
30
0
11
-42.991979587565993
21
-22.007096646290467
31
0
0
ENDSEC
0
SECTION
2
OBJECTS
0
DICTIONARY
5
C
100
AcDbDictionary
3
ACAD_GROUP
350
D
3
ACAD_MLINESTYLE
350
17
0
DICTIONARY
5
D
100
AcDbDictionary
0
DICTIONARY
5
1A
330
C
100
AcDbDictionary
0
DICTIONARY
5
17
100
AcDbDictionary
0
ENDSEC
0
EOF
