0
SECTION
2
HEADER
9
$INSUNITS
70
4
9
$ACADVER
1
AC1014
9
$HANDSEED
5
FFFF
0
ENDSEC
0
SECTION
2
TABLES
0
TABLE
2
VPORT
5
8
100
AcDbSymbolTable
0
ENDTAB
0
TABLE
2
LTYPE
5
5
100
AcDbSymbolTable
0
LTYPE
5
14
100
AcDbSymbolTableRecord
100
AcDbLinetypeTableRecord
2
BYBLOCK
70
0
0
LTYPE
5
15
100
AcDbSymbolTableRecord
100
AcDbLinetypeTableRecord
2
BYLAYER
70
0
0
ENDTAB
0
TABLE
2
LAYER
5
2
100
AcDbSymbolTable
70
2
0
LAYER
5
50
100
AcDbSymbolTableRecord
100
AcDbLayerTableRecord
2
0
70
0
6
CONTINUOUS
0
ENDTAB
0
TABLE
2
STYLE
5
3
100
AcDbSymbolTable
70
1
0
STYLE
5
11
100
AcDbSymbolTableRecord
100
AcDbTextStyleTableRecord
2
STANDARD
70
0
0
ENDTAB
0
TABLE
2
VIEW
5
6
100
AcDbSymbolTable
70
0
0
ENDTAB
0
TABLE
2
UCS
5
7
100
AcDbSymbolTable
70
0
0
ENDTAB
0
TABLE
2
APPID
5
9
100
AcDbSymbolTable
70
2
0
APPID
5
12
100
AcDbSymbolTableRecord
100
AcDbRegAppTableRecord
2
ACAD
70
0
0
ENDTAB
0
TABLE
2
DIMSTYLE
5
A
100
AcDbSymbolTable
70
1
0
ENDTAB
0
TABLE
2
BLOCK_RECORD
5
1
100
AcDbSymbolTable
70
1
0
BLOCK_RECORD
5
1F
100
AcDbSymbolTableRecord
100
AcDbBlockTableRecord
2
*MODEL_SPACE
0
BLOCK_RECORD
5
1B
100
AcDbSymbolTableRecord
100
AcDbBlockTableRecord
2
*PAPER_SPACE
0
ENDTAB
0
ENDSEC
0
SECTION
2
BLOCKS
0
BLOCK
5
20
100
AcDbEntity
100
AcDbBlockBegin
2
*MODEL_SPACE
0
ENDBLK
5
21
100
AcDbEntity
100
AcDbBlockEnd
0
BLOCK
5
1C
100
AcDbEntity
100
AcDbBlockBegin
2
*PAPER_SPACE
0
ENDBLK
5
1D
100
AcDbEntity
100
AcDbBlockEnd
0
ENDSEC
0
SECTION
2
ENTITIES
0
LWPOLYLINE
5
100
100
AcDbEntity
8
0
100
AcDbPolyline
90
4
70
1
43
0.0
10
30.298734282707219
20
51.187727928161515
10
30.298734282707219
20
77.687727928161493
10
5.2377926272969022
20
77.687727928161493
10
5.2377926272969049
20
51.187727928161522
0
CIRCLE
5
101
100
AcDbEntity
8
0
100
AcDbCircle
10
16.105000202660449
20
65.100000706734136
30
0
40
5
210
0
220
0
230
1
0
LWPOLYLINE
5
102
100
AcDbEntity
8
0
100
AcDbPolyline
90
4
70
1
43
0.0
10
30.298734282707219
20
77.687727928161493
10
5.2377926272969022
20
77.687727928161493
10
5.2377926272969049
20
51.187727928161507
10
30.298734282707219
20
51.187727928161507
0
LINE
5
103
100
AcDbEntity
8
0
100
AcDbLine
10
16.105000202660449
20
65.100000706734136
30
0
11
9.0726688248077991
21
65.100000706734136
31
0
0
LINE
5
104
100
AcDbEntity
8
0
100
AcDbLine
10
16.105000202660449
20
65.100000706734136
30
0
11
16.105000202660442
21
58.50000087171793
31
0
0
LINE
5
105
100
AcDbEntity
8
0
100
AcDbLine
10
16.105000202660449
20
65.100000706734136
30
0
11
16.105000202660442
21
71.500001065433025
31
0
0
LINE
5
106
100
AcDbEntity
8
0
100
AcDbLine
10
16.105000202660449
20
65.100000706734136
30
0
11
22.500000335276127
21
65.100000706734136
31
0
0
LWPOLYLINE
5
107
100
AcDbEntity
8
0
100
AcDbPolyline
90
4
70
1
43
0.0
10
22.177844121295635
20
58.913242872753102
10
9.8590011098257406
20
58.917426907400028
10
9.8577067982790982
20
55.10665044485448
10
22.176549809748987
20
55.102466410207562
0
LINE
5
108
100
AcDbEntity
8
0
100
AcDbLine
10
21.07252097186467
20
58.102841680438324
30
0
11
21.440870279255627
21
58.102716572401569
31
0
0
LINE
5
109
100
AcDbEntity
8
0
100
AcDbLine
10
21.440870279255627
20
58.102716572401569
30
0
11
21.440073063190809
21
55.755513363680151
31
0
0
SPLINE
5
110
100
AcDbEntity
8
0
100
AcDbSpline
70
0
71
2
72
6
73
3
74
0
42
0.000000001
43
0.0000000001
44
0.0000000001
40
0
40
0
40
0
40
1
40
1
40
1
10
21.440073063190809
20
55.755513363680151
30
0
10
21.573131140185669
20
55.882344115459631
30
0
10
21.789067831781974
20
56.009146568912286
30
0
0
SPLINE
5
111
100
AcDbEntity
8
0
100
AcDbSpline
70
0
71
2
72
6
73
3
74
0
42
0.000000001
43
0.0000000001
44
0.0000000001
40
0
40
0
40
0
40
1
40
1
40
1
10
21.789067831781974
20
56.009146568912286
30
0
10
22.005004523428894
20
56.135949171376552
30
0
10
22.176922353616565
20
56.199328603468146
30
0
0
LINE
5
112
100
AcDbEntity
8
0
100
AcDbLine
10
22.176922353616565
20
56.199328603468146
30
0
11
22.176801415905899
21
55.843257777686901
31
0
0
SPLINE
5
113
100
AcDbEntity
8
0
100
AcDbSpline
70
0
71
2
72
6
73
3
74
0
42
0.000000001
43
0.0000000001
44
0.0000000001
40
0
40
0
40
0
40
1
40
1
40
1
10
22.176801415905899
20
55.843257777686901
30
0
10
21.867747972488068
20
55.6980694126079
30
0
10
21.636436351447777
20
55.491462898321579
30
0
0
SPLINE
5
114
100
AcDbEntity
8
0
100
AcDbSpline
70
0
71
2
72
6
73
3
74
0
42
0.000000001
43
0.0000000001
44
0.0000000001
40
0
40
0
40
0
40
1
40
1
40
1
10
21.636436351447777
20
55.491462898321579
30
0
10
21.405124656002911
20
55.284856682083763
30
0
10
21.308878565869978
20
55.090482850983861
30
0
0
LINE
5
115
100
AcDbEntity
8
0
100
AcDbLine
10
21.308878565869978
20
55.090482850983861
30
0
11
21.071497866337545
21
55.090563476174914
31
0
0
LINE
5
116
100
AcDbEntity
8
0
100
AcDbLine
10
21.071497866337545
20
55.090563476174907
30
0
11
21.072520971864673
21
58.102841680438317
31
0
0
SPLINE
5
117
100
AcDbEntity
8
0
100
AcDbSpline
70
0
71
2
72
6
73
3
74
0
42
0.000000001
43
0.0000000001
44
0.0000000001
40
0
40
0
40
0
40
1
40
1
40
1
10
20.128635232594373
20
56.623625886327233
30
0
10
20.12845452104477
20
56.091565949498275
30
0
10
20.018862849320321
20
55.767251216485228
30
0
0
SPLINE
5
118
100
AcDbEntity
8
0
100
AcDbSpline
70
0
71
2
72
6
73
3
74
0
42
0.000000001
43
0.0000000001
44
0.0000000001
40
0
40
0
40
0
40
1
40
1
40
1
10
20.018862849320321
20
55.767251216485228
30
0
10
19.909271177595866
20
55.442936483472181
30
0
10
19.693317730341214
20
55.267020550640808
30
0
0
SPLINE
5
119
100
AcDbEntity
8
0
100
AcDbSpline
70
0
71
2
72
6
73
3
74
0
42
0.000000001
43
0.0000000001
44
0.0000000001
40
0
40
0
40
0
40
1
40
1
40
1
10
19.693317730341214
20
55.267020550640808
30
0
10
19.477364283187782
20
55.091104915832638
30
0
10
19.14994287530018
20
55.091216122908939
30
0
0
SPLINE
5
120
100
AcDbEntity
8
0
100
AcDbSpline
70
0
71
2
72
6
73
3
74
0
42
0.000000001
43
0.0000000001
44
0.0000000001
40
0
40
0
40
0
40
1
40
1
40
1
10
19.14994287530018
20
55.091216122908939
30
0
10
18.908469572081913
20
55.091298138132778
30
0
10
18.726374048571948
20
55.18856324629111
30
0
0
SPLINE
5
121
100
AcDbEntity
8
0
100
AcDbSpline
70
0
71
2
72
6
73
3
74
0
42
0.000000001
43
0.0000000001
44
0.0000000001
40
0
40
0
40
0
40
1
40
1
40
1
10
18.726374048571948
20
55.18856324629111
30
0
10
18.544279121108399
20
55.285828354247002
30
0
10
18.425650903295953
20
55.469020020630246
30
0
0
SPLINE
5
122
100
AcDbEntity
8
0
100
AcDbSpline
70
0
71
2
72
6
73
3
74
0
42
0.000000001
43
0.0000000001
44
0.0000000001
40
0
40
0
40
0
40
1
40
1
40
1
10
18.425650903295953
20
55.469020020630246
30
0
10
18.307022685483506
20
55.652211687013498
30
0
10
18.239581430252404
20
55.915195250848903
30
0
0
SPLINE
5
123
100
AcDbEntity
8
0
100
AcDbSpline
70
0
71
2
72
6
73
3
74
0
42
0.000000001
43
0.0000000001
44
0.0000000001
40
0
40
0
40
0
40
1
40
1
40
1
10
18.239581430252404
20
55.915195250848903
30
0
10
18.172140174920081
20
56.178178516661092
30
0
10
18.172291694617215
20
56.624290348820708
30
0
0
SPLINE
5
124
100
AcDbEntity
8
0
100
AcDbSpline
70
0
71
2
72
6
73
3
74
0
42
0.000000001
43
0.0000000001
44
0.0000000001
40
0
40
0
40
0
40
1
40
1
40
1
10
18.172291694617215
20
56.624290348820708
30
0
10
18.172471016184648
20
57.152257830975444
30
0
10
18.281039574189933
20
57.476572762472429
30
0
0
SPLINE
5
125
100
AcDbEntity
8
0
100
AcDbSpline
70
0
71
2
72
6
73
3
74
0
42
0.000000001
43
0.0000000001
44
0.0000000001
40
0
40
0
40
0
40
1
40
1
40
1
10
18.281039574189933
20
57.476572762472429
30
0
10
18.389608132296438
20
57.800887991992617
30
0
10
18.605561629023427
20
57.977827038593773
30
0
0
SPLINE
5
126
100
AcDbEntity
8
0
100
AcDbSpline
70
0
71
2
72
6
73
3
74
0
42
0.000000001
43
0.0000000001
44
0.0000000001
40
0
40
0
40
0
40
1
40
1
40
1
10
18.605561629023427
20
57.977827038593773
30
0
10
18.821515125649199
20
58.154765787171726
30
0
10
19.150983356920324
20
58.15465388490189
30
0
0
SPLINE
5
127
100
AcDbEntity
8
0
100
AcDbSpline
70
0
71
2
72
6
73
3
74
0
42
0.000000001
43
0.0000000001
44
0.0000000001
40
0
40
0
40
0
40
1
40
1
40
1
10
19.150983356920324
20
58.15465388490189
30
0
10
19.584816930987646
20
58.154506535454935
30
0
10
19.832323567497728
20
57.84337203805876
30
0
0
SPLINE
5
128
100
AcDbEntity
8
0
100
AcDbSpline
70
0
71
2
72
6
73
3
74
0
42
0.000000001
43
0.0000000001
44
0.0000000001
40
0
40
0
40
0
40
1
40
1
40
1
10
19.832323567497728
20
57.84337203805876
30
0
10
20.128922286080243
20
57.468783043637579
30
0
10
20.128635232594373
20
56.623625886327233
30
0
0
SPLINE
5
129
100
AcDbEntity
8
0
100
AcDbSpline
70
0
71
2
72
6
73
3
74
0
42
0.000000001
43
0.0000000001
44
0.0000000001
40
0
40
0
40
0
40
1
40
1
40
1
10
19.750053968954028
20
56.623754469597777
30
0
10
19.750304880069244
20
57.362499460728415
30
0
10
19.577468614873698
20
57.607101134176034
30
0
0
SPLINE
5
130
100
AcDbEntity
8
0
100
AcDbSpline
70
0
71
2
72
6
73
3
74
0
42
0.000000001
43
0.0000000001
44
0.0000000001
40
0
40
0
40
0
40
1
40
1
40
1
10
19.577468614873698
20
57.607101134176034
30
0
10
19.40463205165495
20
57.851702807724877
30
0
10
19.150880490344377
20
57.851788993198895
30
0
0
SPLINE
5
131
100
AcDbEntity
8
0
100
AcDbSpline
70
0
71
2
72
6
73
3
74
0
42
0.000000001
43
0.0000000001
44
0.0000000001
40
0
40
0
40
0
40
1
40
1
40
1
10
19.150880490344377
20
57.851788993198895
30
0
10
18.897128631010599
20
57.851875178774122
30
0
10
18.724125604672938
20
57.606367854160126
30
0
0
SPLINE
5
132
100
AcDbEntity
8
0
100
AcDbSpline
70
0
71
2
72
6
73
3
74
0
42
0.000000001
43
0.0000000001
44
0.0000000001
40
0
40
0
40
0
40
1
40
1
40
1
10
18.724125604672938
20
57.606367854160126
30
0
10
18.55112287635848
20
57.360860529444906
30
0
10
18.550872660234354
20
56.624161765651387
30
0
0
SPLINE
5
133
100
AcDbEntity
8
0
100
AcDbSpline
70
0
71
2
72
6
73
3
74
0
42
0.000000001
43
0.0000000001
44
0.0000000001
40
0
40
0
40
0
40
1
40
1
40
1
10
18.550872660234354
20
56.624161765651387
30
0
10
18.550621054128058
20
55.883370547183645
30
0
10
18.72345766681914
20
55.639791987404578
30
0
0
SPLINE
5
134
100
AcDbEntity
8
0
100
AcDbSpline
70
0
71
2
72
6
73
3
74
0
42
0.000000001
43
0.0000000001
44
0.0000000001
40
0
40
0
40
0
40
1
40
1
40
1
10
18.72345766681914
20
55.639791987404578
30
0
10
18.896294577533435
20
55.396213427524287
30
0
10
19.154139189564646
20
55.396125851865662
30
0
0
SPLINE
5
135
100
AcDbEntity
8
0
100
AcDbSpline
70
0
71
2
72
6
73
3
74
0
42
0.000000001
43
0.0000000001
44
0.0000000001
40
0
40
0
40
0
40
1
40
1
40
1
10
19.154139189564646
20
55.396125851865662
30
0
10
19.407890750875218
20
55.396039666391637
30
0
10
19.55939617645911
20
55.610858792800215
30
0
0
SPLINE
5
136
100
AcDbEntity
8
0
100
AcDbSpline
70
0
71
2
72
6
73
3
74
0
42
0.000000001
43
0.0000000001
44
0.0000000001
40
0
40
0
40
0
40
1
40
1
40
1
10
19.55939617645911
20
55.610858792800215
30
0
10
19.749803057889427
20
55.885009627478752
30
0
10
19.750053968954028
20
56.623754469597777
30
0
0
LINE
5
137
100
AcDbEntity
8
0
100
AcDbLine
10
17.695986585436742
20
58.103988503792287
30
0
11
17.695248448169171
21
55.930728029769867
31
0
0
LINE
5
138
100
AcDbEntity
8
0
100
AcDbLine
10
17.695248448169171
20
55.930728029769867
30
0
11
17.365780514921244
21
55.930839931938472
31
0
0
LINE
5
139
100
AcDbEntity
8
0
100
AcDbLine
10
17.365780514921244
20
55.930839931938472
30
0
11
17.36588407653889
21
56.235751199990183
31
0
0
SPLINE
5
140
100
AcDbEntity
8
0
100
AcDbSpline
70
0
71
2
72
6
73
3
74
0
42
0.000000001
43
0.0000000001
44
0.0000000001
40
0
40
0
40
0
40
1
40
1
40
1
10
17.36588407653889
20
56.235751199990183
30
0
10
17.263510747625055
20
56.076168000929854
30
0
10
17.093627751016395
20
55.979022440550629
30
0
0
SPLINE
5
141
100
AcDbEntity
8
0
100
AcDbSpline
70
0
71
2
72
6
73
3
74
0
42
0.000000001
43
0.0000000001
44
0.0000000001
40
0
40
0
40
0
40
1
40
1
40
1
10
17.093627751016395
20
55.979022440550629
30
0
10
16.923744754407736
20
55.881876880171397
30
0
10
16.706827967374075
20
55.881950554894871
30
0
0
SPLINE
5
142
100
AcDbEntity
8
0
100
AcDbSpline
70
0
71
2
72
6
73
3
74
0
42
0.000000001
43
0.0000000001
44
0.0000000001
40
0
40
0
40
0
40
1
40
1
40
1
10
16.706827967374075
20
55.881950554894871
30
0
10
16.465354664155811
20
55.88203257011871
30
0
10
16.310886338396568
20
55.982357785206112
30
0
0
SPLINE
5
143
100
AcDbEntity
8
0
100
AcDbSpline
70
0
71
2
72
6
73
3
74
0
42
0.000000001
43
0.0000000001
44
0.0000000001
40
0
40
0
40
0
40
1
40
1
40
1
10
16.310886338396568
20
55.982357785206112
30
0
10
16.156418608734356
20
56.082683149102678
30
0
10
16.093041956834849
20
56.262786559191014
30
0
0
SPLINE
5
144
100
AcDbEntity
8
0
100
AcDbSpline
70
0
71
2
72
6
73
3
74
0
42
0.000000001
43
0.0000000001
44
0.0000000001
40
0
40
0
40
0
40
1
40
1
40
1
10
16.093041956834849
20
56.262786559191014
30
0
10
15.835068364565213
20
55.882246643770955
30
0
10
15.421698255961861
20
55.882387042902181
30
0
0
SPLINE
5
145
100
AcDbEntity
8
0
100
AcDbSpline
70
0
71
2
72
6
73
3
74
0
42
0.000000001
43
0.0000000001
44
0.0000000001
40
0
40
0
40
0
40
1
40
1
40
1
10
15.421698255961861
20
55.882387042902181
30
0
10
15.098369302748484
20
55.882496859996309
30
0
10
14.924487682448881
20
56.061614539757315
30
0
0
SPLINE
5
146
100
AcDbEntity
8
0
100
AcDbSpline
70
0
71
2
72
6
73
3
74
0
42
0.000000001
43
0.0000000001
44
0.0000000001
40
0
40
0
40
0
40
1
40
1
40
1
10
14.924487682448881
20
56.061614539757315
30
0
10
14.750606062149277
20
56.240732219518321
30
0
10
14.750732560244121
20
56.613174205100911
30
0
0
LINE
5
147
100
AcDbEntity
8
0
100
AcDbLine
10
14.750732560244121
20
56.613174205100911
30
0
11
14.751239247715809
21
58.104988672791592
31
0
0
LINE
5
148
100
AcDbEntity
8
0
100
AcDbLine
10
14.751239247715811
20
58.104988672791592
30
0
11
15.117541955240645
21
58.104864259872443
31
0
0
LINE
5
149
100
AcDbEntity
8
0
100
AcDbLine
10
15.117541955240647
20
58.104864259872457
30
0
11
15.117076970473182
21
56.735832969151225
31
0
0
SPLINE
5
150
100
AcDbEntity
8
0
100
AcDbSpline
70
0
71
2
72
6
73
3
74
0
42
0.000000001
43
0.0000000001
44
0.0000000001
40
0
40
0
40
0
40
1
40
1
40
1
10
15.117076970473182
20
56.735832969151225
30
0
10
15.11700190566631
20
56.514823429420133
30
0
10
15.152780551667561
20
56.417608017072055
30
0
0
SPLINE
5
151
100
AcDbEntity
8
0
100
AcDbSpline
70
0
71
2
72
6
73
3
74
0
42
0.000000001
43
0.0000000001
44
0.0000000001
40
0
40
0
40
0
40
1
40
1
40
1
10
15.152780551667561
20
56.417608017072055
30
0
10
15.188559197618201
20
56.32039245571238
30
0
10
15.282672651422601
20
56.261015420568718
30
0
0
SPLINE
5
152
100
AcDbEntity
8
0
100
AcDbSpline
70
0
71
2
72
6
73
3
74
0
42
0.000000001
43
0.0000000001
44
0.0000000001
40
0
40
0
40
0
40
1
40
1
40
1
10
15.282672651422601
20
56.261015420568718
30
0
10
15.376786105176389
20
56.201638236413451
30
0
10
15.503661736820074
20
56.201595143727054
30
0
0
SPLINE
5
153
100
AcDbEntity
8
0
100
AcDbSpline
70
0
71
2
72
6
73
3
74
0
42
0.000000001
43
0.0000000001
44
0.0000000001
40
0
40
0
40
0
40
1
40
1
40
1
10
15.503661736820074
20
56.201595143727054
30
0
10
15.732857079969243
20
56.201517298652178
30
0
10
15.884341604678074
20
56.353921573794636
30
0
0
SPLINE
5
154
100
AcDbEntity
8
0
100
AcDbSpline
70
0
71
2
72
6
73
3
74
0
42
0.000000001
43
0.0000000001
44
0.0000000001
40
0
40
0
40
0
40
1
40
1
40
1
10
15.884341604678074
20
56.353921573794636
30
0
10
16.035825533340493
20
56.506325849139543
30
0
10
16.035939520684803
20
56.841933060445228
30
0
0
LINE
5
155
100
AcDbEntity
8
0
100
AcDbLine
10
16.035939520684803
20
56.841933060445228
30
0
11
16.036368363081614
21
58.104552184986744
31
0
0
LINE
5
156
100
AcDbEntity
8
0
100
AcDbLine
10
16.036368363081614
20
58.104552184986737
30
0
11
16.404717893989975
21
58.10442707687406
31
0
0
LINE
5
157
100
AcDbEntity
8
0
100
AcDbLine
10
16.404717893989975
20
58.104427076874067
30
0
11
16.404238313296275
21
56.692421733818172
31
0
0
SPLINE
5
158
100
AcDbEntity
8
0
100
AcDbSpline
70
0
71
2
72
6
73
3
74
0
42
0.000000001
43
0.0000000001
44
0.0000000001
40
0
40
0
40
0
40
1
40
1
40
1
10
16.404238313296279
20
56.692421733818172
30
0
10
16.404154907938437
20
56.446855528890865
30
0
10
16.49415376462839
20
56.324041919098363
30
0
0
SPLINE
5
159
100
AcDbEntity
8
0
100
AcDbSpline
70
0
71
2
72
6
73
3
74
0
42
0.000000001
43
0.0000000001
44
0.0000000001
40
0
40
0
40
0
40
1
40
1
40
1
10
16.49415376462839
20
56.324041919098363
30
0
10
16.584153217314139
20
56.20122816009183
30
0
10
16.788791448232288
20
56.201158655719752
30
0
0
SPLINE
5
160
100
AcDbEntity
8
0
100
AcDbSpline
70
0
71
2
72
6
73
3
74
0
42
0.000000001
43
0.0000000001
44
0.0000000001
40
0
40
0
40
0
40
1
40
1
40
1
10
16.788791448232288
20
56.201158655719752
30
0
10
16.944316646781221
20
56.201105832348389
30
0
10
17.076336542606384
20
56.282916353852514
30
0
0
SPLINE
5
161
100
AcDbEntity
8
0
100
AcDbSpline
70
0
71
2
72
6
73
3
74
0
42
0.000000001
43
0.0000000001
44
0.0000000001
40
0
40
0
40
0
40
1
40
1
40
1
10
17.076336542606384
20
56.282916353852514
30
0
10
17.208356438482156
20
56.36472702436825
30
0
10
17.267754721996418
20
56.522278443107304
30
0
0
SPLINE
5
162
100
AcDbEntity
8
0
100
AcDbSpline
70
0
71
2
72
6
73
3
74
0
42
0.000000001
43
0.0000000001
44
0.0000000001
40
0
40
0
40
0
40
1
40
1
40
1
10
17.267754721996418
20
56.522278443107304
30
0
10
17.327153601557097
20
56.679829861643931
30
0
10
17.327254383007954
20
56.976555624300779
30
0
0
LINE
5
163
100
AcDbEntity
8
0
100
AcDbLine
10
17.327254383007954
20
56.976555624300779
30
0
11
17.327637352551584
21
58.10411361180374
31
0
0
LINE
5
164
100
AcDbEntity
8
0
100
AcDbLine
10
17.327637352551584
20
58.10411361180374
30
0
11
17.695986585436742
21
58.103988503792287
31
0
0
LINE
5
165
100
AcDbEntity
8
0
100
AcDbLine
10
14.204854229411021
20
58.105174249784909
30
0
11
14.204116092143451
21
55.931913775762482
31
0
0
LINE
5
166
100
AcDbEntity
8
0
100
AcDbLine
10
14.204116092143448
20
55.931913775762482
30
0
11
13.874647860872319
21
55.932025678032318
31
0
0
LINE
5
167
100
AcDbEntity
8
0
100
AcDbLine
10
13.87464786087232
20
55.932025678032318
30
0
11
13.874751422489965
21
56.236936946084029
31
0
0
SPLINE
5
168
100
AcDbEntity
8
0
100
AcDbSpline
70
0
71
2
72
6
73
3
74
0
42
0.000000001
43
0.0000000001
44
0.0000000001
40
0
40
0
40
0
40
1
40
1
40
1
10
13.874751422489965
20
56.236936946084029
30
0
10
13.77237809357613
20
56.077353747023707
30
0
10
13.60249509696747
20
55.980208186644475
30
0
0
SPLINE
5
169
100
AcDbEntity
8
0
100
AcDbSpline
70
0
71
2
72
6
73
3
74
0
42
0.000000001
43
0.0000000001
44
0.0000000001
40
0
40
0
40
0
40
1
40
1
40
1
10
13.60249509696747
20
55.980208186644475
30
0
10
13.432612100358806
20
55.883062626265243
30
0
10
13.215695313325151
20
55.883136300988724
30
0
0
SPLINE
5
170
100
AcDbEntity
8
0
100
AcDbSpline
70
0
71
2
72
6
73
3
74
0
42
0.000000001
43
0.0000000001
44
0.0000000001
40
0
40
0
40
0
40
1
40
1
40
1
10
13.215695313325151
20
55.883136300988724
30
0
10
12.974222010106882
20
55.883218316212563
30
0
10
12.819754280394058
20
55.983543531097517
30
0
0
SPLINE
5
171
100
AcDbEntity
8
0
100
AcDbSpline
70
0
71
2
72
6
73
3
74
0
42
0.000000001
43
0.0000000001
44
0.0000000001
40
0
40
0
40
0
40
1
40
1
40
1
10
12.819754280394058
20
55.983543531097517
30
0
10
12.66528595468543
20
56.083868895196517
30
0
10
12.601909302785923
20
56.263972305284859
30
0
0
SPLINE
5
172
100
AcDbEntity
8
0
100
AcDbSpline
70
0
71
2
72
6
73
3
74
0
42
0.000000001
43
0.0000000001
44
0.0000000001
40
0
40
0
40
0
40
1
40
1
40
1
10
12.601909302785923
20
56.263972305284859
30
0
10
12.34393511446987
20
55.883432390067256
30
0
10
11.930566197959347
20
55.883572788793579
30
0
0
SPLINE
5
173
100
AcDbEntity
8
0
100
AcDbSpline
70
0
71
2
72
6
73
3
74
0
42
0.000000001
43
0.0000000001
44
0.0000000001
40
0
40
0
40
0
40
1
40
1
40
1
10
11.930566197959347
20
55.883572788793579
30
0
10
11.607237244745971
20
55.883682605887714
30
0
10
11.433355028399955
20
56.062800285851168
30
0
0
SPLINE
5
174
100
AcDbEntity
8
0
100
AcDbSpline
70
0
71
2
72
6
73
3
74
0
42
0.000000001
43
0.0000000001
44
0.0000000001
40
0
40
0
40
0
40
1
40
1
40
1
10
11.433355028399955
20
56.062800285851168
30
0
10
11.259474004146764
20
56.241917965409726
30
0
10
11.259600502241607
20
56.614359950992316
30
0
0
LINE
5
175
100
AcDbEntity
8
0
100
AcDbLine
10
11.259600502241607
20
56.614359950992316
30
0
11
11.260107189713295
21
58.106174418682997
31
0
0
LINE
5
176
100
AcDbEntity
8
0
100
AcDbLine
10
11.260107189713297
20
58.106174418682997
30
0
11
11.626408705145305
21
58.106050006168743
31
0
0
LINE
5
177
100
AcDbEntity
8
0
100
AcDbLine
10
11.626408705145309
20
58.106050006168743
30
0
11
11.625943720377842
21
56.737018715447512
31
0
0
SPLINE
5
178
100
AcDbEntity
8
0
100
AcDbSpline
70
0
71
2
72
6
73
3
74
0
42
0.000000001
43
0.0000000001
44
0.0000000001
40
0
40
0
40
0
40
1
40
1
40
1
10
11.625943720377842
20
56.737018715447512
30
0
10
11.625868655570972
20
56.51600917571642
30
0
10
11.661648493665048
20
56.418793762963453
30
0
0
SPLINE
5
179
100
AcDbEntity
8
0
100
AcDbSpline
70
0
71
2
72
6
73
3
74
0
42
0.000000001
43
0.0000000001
44
0.0000000001
40
0
40
0
40
0
40
1
40
1
40
1
10
11.661648493665048
20
56.418793762963453
30
0
10
11.697427139615687
20
56.321578201603785
30
0
10
11.791540593420088
20
56.262201166460116
30
0
0
SPLINE
5
180
100
AcDbEntity
8
0
100
AcDbSpline
70
0
71
2
72
6
73
3
74
0
42
0.000000001
43
0.0000000001
44
0.0000000001
40
0
40
0
40
0
40
1
40
1
40
1
10
11.791540593420088
20
56.262201166460116
30
0
10
11.885654047173876
20
56.202823982304857
30
0
10
12.012529678817558
20
56.20278088961846
30
0
0
SPLINE
5
181
100
AcDbEntity
8
0
100
AcDbSpline
70
0
71
2
72
6
73
3
74
0
42
0.000000001
43
0.0000000001
44
0.0000000001
40
0
40
0
40
0
40
1
40
1
40
1
10
12.012529678817558
20
56.20278088961846
30
0
10
12.241725021966728
20
56.202703044543583
30
0
10
12.393209546675561
20
56.355107319686041
30
0
0
SPLINE
5
182
100
AcDbEntity
8
0
100
AcDbSpline
70
0
71
2
72
6
73
3
74
0
42
0.000000001
43
0.0000000001
44
0.0000000001
40
0
40
0
40
0
40
1
40
1
40
1
10
12.393209546675561
20
56.355107319686041
30
0
10
12.544692879291565
20
56.507511595233389
30
0
10
12.544806866635875
20
56.843118806539074
30
0
0
LINE
5
183
100
AcDbEntity
8
0
100
AcDbLine
10
12.544806866635875
20
56.843118806539074
30
0
11
12.545235709032685
21
58.10573793108059
31
0
0
LINE
5
184
100
AcDbEntity
8
0
100
AcDbLine
10
12.545235709032687
20
58.105737931080583
30
0
11
12.91358523994105
21
58.105612822967899
31
0
0
LINE
5
185
100
AcDbEntity
8
0
100
AcDbLine
10
12.91358523994105
20
58.105612822967913
30
0
11
12.91310565924735
21
56.693607479912018
31
0
0
SPLINE
5
186
100
AcDbEntity
8
0
100
AcDbSpline
70
0
71
2
72
6
73
3
74
0
42
0.000000001
43
0.0000000001
44
0.0000000001
40
0
40
0
40
0
40
1
40
1
40
1
10
12.913105659247353
20
56.693607479912018
30
0
10
12.913022253889512
20
56.44804127498471
30
0
10
13.003021706625875
20
56.325227664989768
30
0
0
SPLINE
5
187
100
AcDbEntity
8
0
100
AcDbSpline
70
0
71
2
72
6
73
3
74
0
42
0.000000001
43
0.0000000001
44
0.0000000001
40
0
40
0
40
0
40
1
40
1
40
1
10
13.003021706625875
20
56.325227664989768
30
0
10
13.093021159311625
20
56.202413905983235
30
0
10
13.297659390229777
20
56.202344401611157
30
0
0
SPLINE
5
188
100
AcDbEntity
8
0
100
AcDbSpline
70
0
71
2
72
6
73
3
74
0
42
0.000000001
43
0.0000000001
44
0.0000000001
40
0
40
0
40
0
40
1
40
1
40
1
10
13.297659390229777
20
56.202344401611157
30
0
10
13.453184588778706
20
56.202291578239787
30
0
10
13.585204484603871
20
56.284102099743912
30
0
0
SPLINE
5
189
100
AcDbEntity
8
0
100
AcDbSpline
70
0
71
2
72
6
73
3
74
0
42
0.000000001
43
0.0000000001
44
0.0000000001
40
0
40
0
40
0
40
1
40
1
40
1
10
13.585204484603871
20
56.284102099743912
30
0
10
13.717223784433232
20
56.365912770462089
30
0
10
13.776622663993908
20
56.523464188998709
30
0
0
SPLINE
5
190
100
AcDbEntity
8
0
100
AcDbSpline
70
0
71
2
72
6
73
3
74
0
42
0.000000001
43
0.0000000001
44
0.0000000001
40
0
40
0
40
0
40
1
40
1
40
1
10
13.776622663993908
20
56.523464188998709
30
0
10
13.836020947508171
20
56.681015607737777
30
0
10
13.836121728959029
20
56.977741370394625
30
0
0
LINE
5
191
100
AcDbEntity
8
0
100
AcDbLine
10
13.836121728959029
20
56.977741370394625
30
0
11
13.836504698502656
21
58.105299357897586
31
0
0
LINE
5
192
100
AcDbEntity
8
0
100
AcDbLine
10
13.836504698502658
20
58.105299357897586
30
0
11
14.204854229411021
21
58.105174249784909
31
0
0
ENDSEC
0
SECTION
2
OBJECTS
0
DICTIONARY
5
C
100
AcDbDictionary
3
ACAD_GROUP
350
D
3
ACAD_MLINESTYLE
350
17
0
DICTIONARY
5
D
100
AcDbDictionary
0
DICTIONARY
5
1A
330
C
100
AcDbDictionary
0
DICTIONARY
5
17
100
AcDbDictionary
0
ENDSEC
0
EOF
