0
SECTION
2
HEADER
9
$INSUNITS
70
4
9
$ACADVER
1
AC1014
9
$HANDSEED
5
FFFF
0
ENDSEC
0
SECTION
2
TABLES
0
TABLE
2
VPORT
5
8
100
AcDbSymbolTable
0
ENDTAB
0
TABLE
2
LTYPE
5
5
100
AcDbSymbolTable
0
LTYPE
5
14
100
AcDbSymbolTableRecord
100
AcDbLinetypeTableRecord
2
BYBLOCK
70
0
0
LTYPE
5
15
100
AcDbSymbolTableRecord
100
AcDbLinetypeTableRecord
2
BYLAYER
70
0
0
ENDTAB
0
TABLE
2
LAYER
5
2
100
AcDbSymbolTable
70
2
0
LAYER
5
50
100
AcDbSymbolTableRecord
100
AcDbLayerTableRecord
2
0
70
0
6
CONTINUOUS
0
ENDTAB
0
TABLE
2
STYLE
5
3
100
AcDbSymbolTable
70
1
0
STYLE
5
11
100
AcDbSymbolTableRecord
100
AcDbTextStyleTableRecord
2
STANDARD
70
0
0
ENDTAB
0
TABLE
2
VIEW
5
6
100
AcDbSymbolTable
70
0
0
ENDTAB
0
TABLE
2
UCS
5
7
100
AcDbSymbolTable
70
0
0
ENDTAB
0
TABLE
2
APPID
5
9
100
AcDbSymbolTable
70
2
0
APPID
5
12
100
AcDbSymbolTableRecord
100
AcDbRegAppTableRecord
2
ACAD
70
0
0
ENDTAB
0
TABLE
2
DIMSTYLE
5
A
100
AcDbSymbolTable
70
1
0
ENDTAB
0
TABLE
2
BLOCK_RECORD
5
1
100
AcDbSymbolTable
70
1
0
BLOCK_RECORD
5
1F
100
AcDbSymbolTableRecord
100
AcDbBlockTableRecord
2
*MODEL_SPACE
0
BLOCK_RECORD
5
1B
100
AcDbSymbolTableRecord
100
AcDbBlockTableRecord
2
*PAPER_SPACE
0
ENDTAB
0
ENDSEC
0
SECTION
2
BLOCKS
0
BLOCK
5
20
100
AcDbEntity
100
AcDbBlockBegin
2
*MODEL_SPACE
0
ENDBLK
5
21
100
AcDbEntity
100
AcDbBlockEnd
0
BLOCK
5
1C
100
AcDbEntity
100
AcDbBlockBegin
2
*PAPER_SPACE
0
ENDBLK
5
1D
100
AcDbEntity
100
AcDbBlockEnd
0
ENDSEC
0
SECTION
2
ENTITIES
0
LWPOLYLINE
5
100
100
AcDbEntity
8
0
100
AcDbPolyline
90
8
70
1
43
0.0
10
-12.861404714909694
20
51.187727928161522
10
-12.861404714909611
20
77.687727928161493
42
0.41421356237309481
10
-16.206071090698188
20
81.032394303950099
10
-96.806071090698126
20
81.032394303950241
42
0.41421356237309426
10
-100.1507374664867
20
77.687727928161664
10
-100.15073746648682
20
51.187727928161692
42
0.41421356237309043
10
-96.806071090698282
20
47.843061552373108
10
-16.206071090698302
20
47.84306155237293
42
0.41421356237309326
0
LWPOLYLINE
5
101
100
AcDbEntity
8
0
100
AcDbPolyline
90
8
70
1
43
0.0
10
-12.861404714909543
20
77.687727928161522
10
-12.861404714909613
20
51.187727928161515
42
-0.41421356237309503
10
-16.206071090698202
20
47.843061552372923
10
-96.806071090698183
20
47.843061552373094
42
-0.41421356237309659
10
-100.15073746648679
20
51.187727928161671
10
-100.15073746648675
20
77.687727928161678
42
-0.41421356237309814
10
-96.806071090698126
20
81.032394303950269
10
-16.206071090698142
20
81.032394303950127
42
-0.41421356237309442
0
CIRCLE
5
102
100
AcDbEntity
8
0
100
AcDbCircle
10
-76.178591251762285
20
74.597654009041776
30
-4.4408920985006262e-14
40
3.5000000000000044
210
0
220
0
230
1
0
LINE
5
103
100
AcDbEntity
8
0
100
AcDbLine
10
-76.178591251762285
20
74.597654009041776
30
-4.4408920985006262e-14
11
-72.16552354775645
21
74.597654009041776
31
-1.859920921466811e-17
0
LINE
5
104
100
AcDbEntity
8
0
100
AcDbLine
10
-80.990903031415812
20
74.597654009041776
30
-4.4408920985006262e-14
11
-76.178591251762285
21
74.597654009041776
31
-4.4408920985006262e-14
0
LINE
5
105
100
AcDbEntity
8
0
100
AcDbLine
10
-76.178591251762285
20
74.597654009041776
30
-4.4408920985006262e-14
11
-76.178591251762285
21
78.423788911678457
31
-4.4408920985006262e-14
0
LINE
5
106
100
AcDbEntity
8
0
100
AcDbLine
10
-76.178591251762285
20
74.597654009041776
30
-4.4408920985006262e-14
11
-76.178591251762285
21
69.000001028180122
31
-4.4408920985006262e-14
0
CIRCLE
5
107
100
AcDbEntity
8
0
100
AcDbCircle
10
-76.178591251762285
20
55.697654009041756
30
-4.8849813083506888e-14
40
3.499999999999996
210
0
220
0
230
1
0
LINE
5
108
100
AcDbEntity
8
0
100
AcDbLine
10
-76.178591251762285
20
55.697654009041756
30
-4.8849813083506888e-14
11
-76.178591251762285
21
60.500000901520252
31
-4.8849813083506888e-14
0
LINE
5
109
100
AcDbEntity
8
0
100
AcDbLine
10
-76.178591251762285
20
55.697654009041756
30
-4.8849813083506888e-14
11
-76.178591251762285
21
49.500000737607479
31
-4.8849813083506888e-14
0
LINE
5
110
100
AcDbEntity
8
0
100
AcDbLine
10
-76.178591251762285
20
55.697654009041756
30
-4.8849813083506888e-14
11
-69.000001028180122
21
55.697654009041756
31
-4.8849813083506888e-14
0
LINE
5
111
100
AcDbEntity
8
0
100
AcDbLine
10
-76.178591251762285
20
55.697654009041756
30
-4.8849813083506888e-14
11
-82.000001221895218
21
55.697654009041756
31
-1.859920921466811e-17
0
CIRCLE
5
112
100
AcDbEntity
8
0
100
AcDbCircle
10
-23.678591251762438
20
64.497654009041796
30
-4.4408920985006262e-15
40
7.9999999999999982
210
0
220
0
230
1
0
LINE
5
113
100
AcDbEntity
8
0
100
AcDbLine
10
-23.678591251762438
20
64.497654009041796
30
-4.4408920985006262e-15
11
-23.678591251762438
21
73.500001095235348
31
-4.4408920985006262e-15
0
LINE
5
114
100
AcDbEntity
8
0
100
AcDbLine
10
-23.678591251762438
20
64.497654009041796
30
-4.4408920985006262e-15
11
-14.255588835003071
21
64.497654009041796
31
-4.4408920985006262e-15
0
LINE
5
115
100
AcDbEntity
8
0
100
AcDbLine
10
-23.678591251762438
20
64.497654009041796
30
-4.4408920985006262e-15
11
-32.22904443016337
21
64.497654009041796
31
-4.4408920985006262e-15
0
LINE
5
116
100
AcDbEntity
8
0
100
AcDbLine
10
-23.678591251762438
20
64.497654009041796
30
-4.4408920985006262e-15
11
-23.678591251762438
21
55.000000819563866
31
-4.4408920985006262e-15
0
ENDSEC
0
SECTION
2
OBJECTS
0
DICTIONARY
5
C
100
AcDbDictionary
3
ACAD_GROUP
350
D
3
ACAD_MLINESTYLE
350
17
0
DICTIONARY
5
D
100
AcDbDictionary
0
DICTIONARY
5
1A
330
C
100
AcDbDictionary
0
DICTIONARY
5
17
100
AcDbDictionary
0
ENDSEC
0
EOF
