%TF.GenerationSoftware,KiCad,Pcbnew,(6.0.2)*%
%TF.CreationDate,2022-08-13T11:44:49+02:00*%
%TF.ProjectId,HM2,484d322e-6b69-4636-9164-5f7063625858,rev?*%
%TF.SameCoordinates,Original*%
%TF.FileFunction,Soldermask,Top*%
%TF.FilePolarity,Negative*%
%FSLAX46Y46*%
G04 Gerber Fmt 4.6, Leading zero omitted, Abs format (unit mm)*
G04 Created by KiCad (PCBNEW (6.0.2)) date 2022-08-13 11:44:49*
%MOMM*%
%LPD*%
G01*
G04 APERTURE LIST*
G04 Aperture macros list*
%AMRoundRect*
0 Rectangle with rounded corners*
0 $1 Rounding radius*
0 $2 $3 $4 $5 $6 $7 $8 $9 X,Y pos of 4 corners*
0 Add a 4 corners polygon primitive as box body*
4,1,4,$2,$3,$4,$5,$6,$7,$8,$9,$2,$3,0*
0 Add four circle primitives for the rounded corners*
1,1,$1+$1,$2,$3*
1,1,$1+$1,$4,$5*
1,1,$1+$1,$6,$7*
1,1,$1+$1,$8,$9*
0 Add four rect primitives between the rounded corners*
20,1,$1+$1,$2,$3,$4,$5,0*
20,1,$1+$1,$4,$5,$6,$7,0*
20,1,$1+$1,$6,$7,$8,$9,0*
20,1,$1+$1,$8,$9,$2,$3,0*%
G04 Aperture macros list end*
%ADD10RoundRect,0.250000X0.337500X0.475000X-0.337500X0.475000X-0.337500X-0.475000X0.337500X-0.475000X0*%
%ADD11R,1.200000X0.900000*%
%ADD12RoundRect,0.250000X-0.337500X-0.475000X0.337500X-0.475000X0.337500X0.475000X-0.337500X0.475000X0*%
%ADD13RoundRect,0.250000X0.350000X0.450000X-0.350000X0.450000X-0.350000X-0.450000X0.350000X-0.450000X0*%
%ADD14R,1.500000X0.450000*%
%ADD15RoundRect,0.150000X0.587500X0.150000X-0.587500X0.150000X-0.587500X-0.150000X0.587500X-0.150000X0*%
%ADD16RoundRect,0.150000X-0.825000X-0.150000X0.825000X-0.150000X0.825000X0.150000X-0.825000X0.150000X0*%
%ADD17RoundRect,0.250000X-0.350000X-0.450000X0.350000X-0.450000X0.350000X0.450000X-0.350000X0.450000X0*%
%ADD18R,1.700000X1.700000*%
%ADD19O,1.700000X1.700000*%
%ADD20R,0.900000X1.200000*%
%ADD21RoundRect,0.250000X1.250000X0.550000X-1.250000X0.550000X-1.250000X-0.550000X1.250000X-0.550000X0*%
%ADD22RoundRect,0.250000X1.500000X0.550000X-1.500000X0.550000X-1.500000X-0.550000X1.500000X-0.550000X0*%
%ADD23C,1.500000*%
%ADD24RoundRect,0.250000X-0.550000X1.250000X-0.550000X-1.250000X0.550000X-1.250000X0.550000X1.250000X0*%
%ADD25RoundRect,0.150000X0.825000X0.150000X-0.825000X0.150000X-0.825000X-0.150000X0.825000X-0.150000X0*%
%ADD26R,1.800000X1.800000*%
%ADD27C,1.800000*%
G04 APERTURE END LIST*
D10*
%TO.C,C10*%
X142037500Y-105600000D03*
X139962500Y-105600000D03*
%TD*%
D11*
%TO.C,D8*%
X144700000Y-128050000D03*
X144700000Y-131350000D03*
%TD*%
D12*
%TO.C,C22*%
X144162500Y-143000000D03*
X146237500Y-143000000D03*
%TD*%
D13*
%TO.C,R34*%
X150400000Y-140900000D03*
X148400000Y-140900000D03*
%TD*%
D10*
%TO.C,C3*%
X127637500Y-100600000D03*
X125562500Y-100600000D03*
%TD*%
D13*
%TO.C,R17*%
X142000000Y-112400000D03*
X140000000Y-112400000D03*
%TD*%
D12*
%TO.C,C19*%
X129762500Y-126100000D03*
X131837500Y-126100000D03*
%TD*%
D14*
%TO.C,Q1*%
X131570000Y-138250000D03*
X131570000Y-139550000D03*
X134230000Y-138900000D03*
%TD*%
D15*
%TO.C,Q4*%
X146137500Y-146850000D03*
X146137500Y-144950000D03*
X144262500Y-145900000D03*
%TD*%
D16*
%TO.C,U2*%
X131225000Y-98195000D03*
X131225000Y-99465000D03*
X131225000Y-100735000D03*
X131225000Y-102005000D03*
X136175000Y-102005000D03*
X136175000Y-100735000D03*
X136175000Y-99465000D03*
X136175000Y-98195000D03*
%TD*%
D15*
%TO.C,Q2*%
X134137500Y-134550000D03*
X134137500Y-132650000D03*
X132262500Y-133600000D03*
%TD*%
D17*
%TO.C,R16*%
X125600000Y-134600000D03*
X127600000Y-134600000D03*
%TD*%
D13*
%TO.C,R21*%
X142000000Y-107800000D03*
X140000000Y-107800000D03*
%TD*%
D18*
%TO.C,RV5*%
X150600000Y-131360000D03*
D19*
X150600000Y-133900000D03*
X150600000Y-136440000D03*
%TD*%
D13*
%TO.C,R8*%
X122400000Y-143100000D03*
X120400000Y-143100000D03*
%TD*%
D17*
%TO.C,R22*%
X140000000Y-121800000D03*
X142000000Y-121800000D03*
%TD*%
%TO.C,R26*%
X140000000Y-130100000D03*
X142000000Y-130100000D03*
%TD*%
D10*
%TO.C,C21*%
X142037500Y-117400000D03*
X139962500Y-117400000D03*
%TD*%
D12*
%TO.C,C5*%
X125562500Y-105590000D03*
X127637500Y-105590000D03*
%TD*%
D17*
%TO.C,R37*%
X144200000Y-140900000D03*
X146200000Y-140900000D03*
%TD*%
D10*
%TO.C,C6*%
X127637500Y-110090000D03*
X125562500Y-110090000D03*
%TD*%
D17*
%TO.C,R18*%
X125600000Y-132500000D03*
X127600000Y-132500000D03*
%TD*%
D13*
%TO.C,R38*%
X146400000Y-121800000D03*
X144400000Y-121800000D03*
%TD*%
%TO.C,R28*%
X127600000Y-122000000D03*
X125600000Y-122000000D03*
%TD*%
D20*
%TO.C,D4*%
X133850000Y-122600000D03*
X137150000Y-122600000D03*
%TD*%
D21*
%TO.C,C13*%
X121700000Y-114500000D03*
X117300000Y-114500000D03*
%TD*%
D13*
%TO.C,R29*%
X142000000Y-123900000D03*
X140000000Y-123900000D03*
%TD*%
D12*
%TO.C,C1*%
X139962500Y-143200000D03*
X142037500Y-143200000D03*
%TD*%
%TO.C,C20*%
X148362500Y-147400000D03*
X150437500Y-147400000D03*
%TD*%
D13*
%TO.C,R33*%
X150400000Y-145200000D03*
X148400000Y-145200000D03*
%TD*%
D18*
%TO.C,RV4*%
X146800000Y-105375000D03*
D19*
X146800000Y-107915000D03*
X146800000Y-110455000D03*
%TD*%
D17*
%TO.C,R24*%
X125600000Y-124000000D03*
X127600000Y-124000000D03*
%TD*%
D13*
%TO.C,R35*%
X142000000Y-115200000D03*
X140000000Y-115200000D03*
%TD*%
D12*
%TO.C,C17*%
X139962500Y-128000000D03*
X142037500Y-128000000D03*
%TD*%
D13*
%TO.C,R19*%
X142000000Y-132200000D03*
X140000000Y-132200000D03*
%TD*%
%TO.C,R32*%
X131800000Y-124000000D03*
X129800000Y-124000000D03*
%TD*%
D22*
%TO.C,C12*%
X122100000Y-121200000D03*
X116500000Y-121200000D03*
%TD*%
D16*
%TO.C,U3*%
X131425000Y-107795000D03*
X131425000Y-109065000D03*
X131425000Y-110335000D03*
X131425000Y-111605000D03*
X136375000Y-111605000D03*
X136375000Y-110335000D03*
X136375000Y-109065000D03*
X136375000Y-107795000D03*
%TD*%
D18*
%TO.C,RV2*%
X131375000Y-94300000D03*
D19*
X133915000Y-94300000D03*
X136455000Y-94300000D03*
%TD*%
D10*
%TO.C,C9*%
X127637500Y-136700000D03*
X125562500Y-136700000D03*
%TD*%
D18*
%TO.C,J1*%
X127460000Y-146500000D03*
D19*
X130000000Y-146500000D03*
X132540000Y-146500000D03*
X135080000Y-146500000D03*
X137620000Y-146500000D03*
%TD*%
D17*
%TO.C,R11*%
X125600000Y-112390000D03*
X127600000Y-112390000D03*
%TD*%
D13*
%TO.C,R3*%
X133400000Y-141300000D03*
X131400000Y-141300000D03*
%TD*%
D17*
%TO.C,R20*%
X125600000Y-130400000D03*
X127600000Y-130400000D03*
%TD*%
%TO.C,R23*%
X125600000Y-126100000D03*
X127600000Y-126100000D03*
%TD*%
D12*
%TO.C,C15*%
X139962500Y-119600000D03*
X142037500Y-119600000D03*
%TD*%
D18*
%TO.C,RV1*%
X116900000Y-95060000D03*
D19*
X116900000Y-97600000D03*
X116900000Y-100140000D03*
%TD*%
D13*
%TO.C,R12*%
X120400000Y-140700000D03*
X118400000Y-140700000D03*
%TD*%
D12*
%TO.C,C11*%
X139962500Y-110100000D03*
X142037500Y-110100000D03*
%TD*%
D13*
%TO.C,R36*%
X150400000Y-143000000D03*
X148400000Y-143000000D03*
%TD*%
D10*
%TO.C,C14*%
X127637500Y-128200000D03*
X125562500Y-128200000D03*
%TD*%
D12*
%TO.C,C16*%
X138862500Y-99200000D03*
X140937500Y-99200000D03*
%TD*%
D20*
%TO.C,D5*%
X137150000Y-127200000D03*
X133850000Y-127200000D03*
%TD*%
D17*
%TO.C,R30*%
X140000000Y-125900000D03*
X142000000Y-125900000D03*
%TD*%
D11*
%TO.C,D6*%
X147200000Y-114450000D03*
X147200000Y-117750000D03*
%TD*%
D17*
%TO.C,R1*%
X144400000Y-123900000D03*
X146400000Y-123900000D03*
%TD*%
D12*
%TO.C,C23*%
X144362500Y-119600000D03*
X146437500Y-119600000D03*
%TD*%
D15*
%TO.C,Q3*%
X134137500Y-131050000D03*
X134137500Y-129150000D03*
X132262500Y-130100000D03*
%TD*%
D11*
%TO.C,D9*%
X147200000Y-131350000D03*
X147200000Y-128050000D03*
%TD*%
D17*
%TO.C,R13*%
X125600000Y-107790000D03*
X127600000Y-107790000D03*
%TD*%
D18*
%TO.C,RV3*%
X116900000Y-103975000D03*
D19*
X116900000Y-106515000D03*
X116900000Y-109055000D03*
%TD*%
D13*
%TO.C,R14*%
X142000000Y-134300000D03*
X140000000Y-134300000D03*
%TD*%
D23*
%TO.C,TP1*%
X141100000Y-146400000D03*
%TD*%
D17*
%TO.C,R4*%
X125600000Y-102800000D03*
X127600000Y-102800000D03*
%TD*%
D24*
%TO.C,C18*%
X145000000Y-97100000D03*
X145000000Y-101500000D03*
%TD*%
D17*
%TO.C,R9*%
X122200000Y-140700000D03*
X124200000Y-140700000D03*
%TD*%
D22*
%TO.C,C4*%
X122000000Y-128500000D03*
X116600000Y-128500000D03*
%TD*%
D25*
%TO.C,U1*%
X136475000Y-120505000D03*
X136475000Y-119235000D03*
X136475000Y-117965000D03*
X136475000Y-116695000D03*
X131525000Y-116695000D03*
X131525000Y-117965000D03*
X131525000Y-119235000D03*
X131525000Y-120505000D03*
%TD*%
D17*
%TO.C,R31*%
X138900000Y-101600000D03*
X140900000Y-101600000D03*
%TD*%
D12*
%TO.C,C24*%
X144362500Y-126000000D03*
X146437500Y-126000000D03*
%TD*%
D17*
%TO.C,R7*%
X125600000Y-96000000D03*
X127600000Y-96000000D03*
%TD*%
D26*
%TO.C,D2*%
X120425000Y-146600000D03*
D27*
X122965000Y-146600000D03*
%TD*%
D20*
%TO.C,D1*%
X124150000Y-143000000D03*
X127450000Y-143000000D03*
%TD*%
D22*
%TO.C,C7*%
X122100000Y-135800000D03*
X116500000Y-135800000D03*
%TD*%
D17*
%TO.C,R10*%
X140000000Y-138500000D03*
X142000000Y-138500000D03*
%TD*%
D20*
%TO.C,D3*%
X133850000Y-124800000D03*
X137150000Y-124800000D03*
%TD*%
D13*
%TO.C,R2*%
X133400000Y-143300000D03*
X131400000Y-143300000D03*
%TD*%
D12*
%TO.C,C8*%
X139962500Y-136400000D03*
X142037500Y-136400000D03*
%TD*%
D17*
%TO.C,R15*%
X132300000Y-136500000D03*
X134300000Y-136500000D03*
%TD*%
D13*
%TO.C,R27*%
X127600000Y-119900000D03*
X125600000Y-119900000D03*
%TD*%
D17*
%TO.C,R5*%
X125600000Y-117800000D03*
X127600000Y-117800000D03*
%TD*%
%TO.C,R25*%
X138900000Y-97000000D03*
X140900000Y-97000000D03*
%TD*%
D12*
%TO.C,C2*%
X125562500Y-98300000D03*
X127637500Y-98300000D03*
%TD*%
D11*
%TO.C,D7*%
X144700000Y-117750000D03*
X144700000Y-114450000D03*
%TD*%
D13*
%TO.C,R6*%
X142000000Y-140800000D03*
X140000000Y-140800000D03*
%TD*%
M02*
