%TF.GenerationSoftware,KiCad,Pcbnew,(6.0.2)*%
%TF.CreationDate,2022-08-13T11:44:49+02:00*%
%TF.ProjectId,HM2,484d322e-6b69-4636-9164-5f7063625858,rev?*%
%TF.SameCoordinates,Original*%
%TF.FileFunction,Copper,L2,Bot*%
%TF.FilePolarity,Positive*%
%FSLAX46Y46*%
G04 Gerber Fmt 4.6, Leading zero omitted, Abs format (unit mm)*
G04 Created by KiCad (PCBNEW (6.0.2)) date 2022-08-13 11:44:49*
%MOMM*%
%LPD*%
G01*
G04 APERTURE LIST*
%TA.AperFunction,ComponentPad*%
%ADD10R,1.700000X1.700000*%
%TD*%
%TA.AperFunction,ComponentPad*%
%ADD11O,1.700000X1.700000*%
%TD*%
%TA.AperFunction,ComponentPad*%
%ADD12R,1.800000X1.800000*%
%TD*%
%TA.AperFunction,ComponentPad*%
%ADD13C,1.800000*%
%TD*%
%TA.AperFunction,ViaPad*%
%ADD14C,0.600000*%
%TD*%
%TA.AperFunction,ViaPad*%
%ADD15C,0.900000*%
%TD*%
%TA.AperFunction,Conductor*%
%ADD16C,0.600000*%
%TD*%
%TA.AperFunction,Conductor*%
%ADD17C,0.300000*%
%TD*%
G04 APERTURE END LIST*
D10*
%TO.P,RV5,1,1*%
%TO.N,Net-(R31-Pad1)*%
X150600000Y-131360000D03*
D11*
%TO.P,RV5,2,2*%
%TO.N,Net-(C20-Pad2)*%
X150600000Y-133900000D03*
%TO.P,RV5,3,3*%
%TO.N,GND*%
X150600000Y-136440000D03*
%TD*%
D10*
%TO.P,RV4,1,1*%
%TO.N,Net-(R5-Pad1)*%
X146800000Y-105375000D03*
D11*
%TO.P,RV4,2,2*%
%TO.N,Net-(C10-Pad2)*%
X146800000Y-107915000D03*
%TO.P,RV4,3,3*%
%TO.N,Net-(C16-Pad2)*%
X146800000Y-110455000D03*
%TD*%
D10*
%TO.P,RV2,1,1*%
%TO.N,Net-(R5-Pad1)*%
X131375000Y-94300000D03*
D11*
%TO.P,RV2,2,2*%
%TO.N,Net-(C5-Pad2)*%
X133915000Y-94300000D03*
%TO.P,RV2,3,3*%
%TO.N,Net-(C16-Pad2)*%
X136455000Y-94300000D03*
%TD*%
D10*
%TO.P,J1,1,Pin_1*%
%TO.N,+BATT*%
X127460000Y-146500000D03*
D11*
%TO.P,J1,2,Pin_2*%
%TO.N,/IN*%
X130000000Y-146500000D03*
%TO.P,J1,3,Pin_3*%
%TO.N,/LED*%
X132540000Y-146500000D03*
%TO.P,J1,4,Pin_4*%
%TO.N,/OUT*%
X135080000Y-146500000D03*
%TO.P,J1,5,Pin_5*%
%TO.N,GND*%
X137620000Y-146500000D03*
%TD*%
D10*
%TO.P,RV1,1,1*%
%TO.N,Net-(R5-Pad1)*%
X116900000Y-95060000D03*
D11*
%TO.P,RV1,2,2*%
%TO.N,Net-(C2-Pad2)*%
X116900000Y-97600000D03*
%TO.P,RV1,3,3*%
%TO.N,Net-(C16-Pad2)*%
X116900000Y-100140000D03*
%TD*%
D10*
%TO.P,RV3,1,1*%
%TO.N,Net-(C13-Pad2)*%
X116900000Y-103975000D03*
D11*
%TO.P,RV3,2,2*%
%TO.N,GND*%
X116900000Y-106515000D03*
%TO.P,RV3,3,3*%
%TO.N,Net-(R22-Pad2)*%
X116900000Y-109055000D03*
%TD*%
D12*
%TO.P,D2,1,K*%
%TO.N,Net-(D2-Pad1)*%
X120425000Y-146600000D03*
D13*
%TO.P,D2,2,A*%
%TO.N,+9V*%
X122965000Y-146600000D03*
%TD*%
D14*
%TO.N,GND*%
X122700000Y-99200000D03*
X122800000Y-102000000D03*
X122800000Y-104700000D03*
X122800000Y-107800000D03*
X122800000Y-110200000D03*
X120400000Y-110200000D03*
X120400000Y-107800000D03*
X120400000Y-104700000D03*
X120400000Y-99200000D03*
X120400000Y-102000000D03*
X116900000Y-102000000D03*
X116500000Y-122900000D03*
X116500000Y-119300000D03*
X119300000Y-128500000D03*
X119300000Y-135800000D03*
X144700000Y-137400000D03*
X147200000Y-135000000D03*
X144700000Y-135000000D03*
X151000000Y-109500000D03*
X151000000Y-106100000D03*
X151000000Y-100900000D03*
X151000000Y-96800000D03*
X151000000Y-93100000D03*
X140100000Y-93100000D03*
X137600000Y-137000000D03*
X137000000Y-143400000D03*
X116100000Y-145500000D03*
X116100000Y-140700000D03*
X116500000Y-132100000D03*
X151200000Y-138900000D03*
X147300000Y-139800000D03*
X144700000Y-132500000D03*
X147200000Y-132400000D03*
%TO.N,+9V*%
X142100000Y-124000000D03*
X136200000Y-98200000D03*
X136500000Y-107800000D03*
D15*
X133900000Y-120500000D03*
D14*
%TO.N,GND*%
X147700000Y-119500000D03*
X129800000Y-111600000D03*
X143400000Y-132500000D03*
X136500000Y-115800000D03*
X131000000Y-136600000D03*
X143900000Y-138700000D03*
X116500000Y-129900000D03*
X116500000Y-127200000D03*
X134900000Y-116700000D03*
X116400000Y-137300000D03*
X143200000Y-125900000D03*
X129700000Y-102000000D03*
X131400000Y-112500000D03*
X134900000Y-143400000D03*
X116400000Y-134400000D03*
X131200000Y-102800000D03*
D15*
%TO.N,/+4V5*%
X122100000Y-135800000D03*
X124200000Y-102800000D03*
X148000000Y-124000000D03*
X148000000Y-137700000D03*
X124200000Y-112500000D03*
X144000000Y-112400000D03*
X152100000Y-145500000D03*
D14*
%TO.N,Net-(C13-Pad1)*%
X124300000Y-115900000D03*
X124300000Y-123500000D03*
%TO.N,Net-(C17-Pad1)*%
X138800000Y-122500000D03*
X138300000Y-118000000D03*
%TO.N,Net-(C24-Pad1)*%
X132800000Y-116700000D03*
X143200000Y-126800000D03*
%TO.N,/LED*%
X122500000Y-144800000D03*
%TO.N,Net-(R22-Pad2)*%
X141000000Y-120700000D03*
X133200000Y-115000000D03*
%TO.N,Net-(R31-Pad1)*%
X146800000Y-103300000D03*
X149200000Y-103400000D03*
%TD*%
D16*
%TO.N,+9V*%
X136500000Y-107800000D02*
X136200000Y-107500000D01*
X142100000Y-124000000D02*
X142100000Y-113400000D01*
X137300000Y-124000000D02*
X142100000Y-124000000D01*
X142100000Y-113400000D02*
X136500000Y-107800000D01*
X133900000Y-120500000D02*
X133900000Y-120600000D01*
X133900000Y-120600000D02*
X137300000Y-124000000D01*
X136200000Y-107500000D02*
X136200000Y-98200000D01*
%TO.N,/+4V5*%
X124200000Y-112500000D02*
X124200000Y-102800000D01*
X130200000Y-96800000D02*
X138100000Y-96800000D01*
X124200000Y-102800000D02*
X130200000Y-96800000D01*
X148000000Y-124000000D02*
X148000000Y-137700000D01*
X144000000Y-116900000D02*
X148000000Y-120900000D01*
X148000000Y-120900000D02*
X148000000Y-124000000D01*
X138100000Y-96800000D02*
X144000000Y-102700000D01*
X122100000Y-114600000D02*
X124200000Y-112500000D01*
X144000000Y-112400000D02*
X144000000Y-116900000D01*
X148000000Y-137700000D02*
X149400000Y-139100000D01*
X144000000Y-102700000D02*
X144000000Y-112400000D01*
X152100000Y-141800000D02*
X152100000Y-145500000D01*
X122100000Y-135800000D02*
X122100000Y-114600000D01*
X149400000Y-139100000D02*
X152100000Y-141800000D01*
D17*
%TO.N,Net-(C13-Pad1)*%
X124300000Y-123500000D02*
X124300000Y-115900000D01*
%TO.N,Net-(C17-Pad1)*%
X138800000Y-118500000D02*
X138800000Y-122500000D01*
X138300000Y-118000000D02*
X138800000Y-118500000D01*
%TO.N,Net-(C24-Pad1)*%
X132800000Y-122000000D02*
X137600000Y-126800000D01*
X132800000Y-116700000D02*
X132800000Y-122000000D01*
X137600000Y-126800000D02*
X143200000Y-126800000D01*
%TO.N,/LED*%
X132540000Y-146500000D02*
X130840000Y-144800000D01*
X130840000Y-144800000D02*
X122500000Y-144800000D01*
%TO.N,Net-(R22-Pad2)*%
X133200000Y-115000000D02*
X137300000Y-115000000D01*
X141000000Y-118700000D02*
X141000000Y-120700000D01*
X137300000Y-115000000D02*
X141000000Y-118700000D01*
%TO.N,Net-(R31-Pad1)*%
X149100000Y-103300000D02*
X149200000Y-103400000D01*
X146800000Y-103300000D02*
X149100000Y-103300000D01*
%TD*%
%TA.AperFunction,Conductor*%
%TO.N,GND*%
G36*
X151889468Y-91900911D02*
G01*
X151905567Y-91902857D01*
X151905568Y-91902857D01*
X151916513Y-91904180D01*
X151927249Y-91901680D01*
X151938258Y-91901083D01*
X151938291Y-91901695D01*
X151950468Y-91900458D01*
X152086689Y-91904039D01*
X152106833Y-91906199D01*
X152264345Y-91936054D01*
X152283891Y-91941418D01*
X152434574Y-91996140D01*
X152453006Y-92004568D01*
X152592969Y-92082743D01*
X152609812Y-92094018D01*
X152735425Y-92193620D01*
X152750242Y-92207449D01*
X152858262Y-92325904D01*
X152870670Y-92341931D01*
X152958301Y-92476177D01*
X152967979Y-92493985D01*
X153032950Y-92640540D01*
X153039648Y-92659669D01*
X153057860Y-92729180D01*
X153080281Y-92814751D01*
X153083824Y-92834706D01*
X153096779Y-92970345D01*
X153096384Y-92982585D01*
X153096997Y-92982576D01*
X153097159Y-92993598D01*
X153095405Y-93004479D01*
X153097478Y-93015302D01*
X153097751Y-93016728D01*
X153100000Y-93040429D01*
X153100000Y-145428326D01*
X153079998Y-145496447D01*
X153072069Y-145503317D01*
X153098660Y-145561059D01*
X153100000Y-145579386D01*
X153100000Y-147391469D01*
X153099899Y-147396513D01*
X153098123Y-147440845D01*
X153101474Y-147451342D01*
X153102919Y-147462022D01*
X153103970Y-147474241D01*
X153107727Y-147575450D01*
X153106251Y-147599906D01*
X153086939Y-147721386D01*
X153080758Y-147745096D01*
X153038297Y-147860548D01*
X153027646Y-147882609D01*
X152963641Y-147987667D01*
X152948928Y-148007241D01*
X152896553Y-148064377D01*
X152865802Y-148097923D01*
X152847569Y-148114288D01*
X152772889Y-148169208D01*
X152748472Y-148187164D01*
X152727414Y-148199692D01*
X152616088Y-148252009D01*
X152593007Y-148260225D01*
X152473653Y-148290011D01*
X152449421Y-148293603D01*
X152406999Y-148295717D01*
X152348266Y-148298644D01*
X152336003Y-148298657D01*
X152325240Y-148298144D01*
X152314490Y-148295717D01*
X152303559Y-148297112D01*
X152303558Y-148297112D01*
X152288877Y-148298986D01*
X152272925Y-148300000D01*
X115797931Y-148300000D01*
X115776052Y-148298086D01*
X115771515Y-148297286D01*
X115760660Y-148295372D01*
X115749806Y-148297286D01*
X115738779Y-148297286D01*
X115738779Y-148296727D01*
X115726532Y-148297314D01*
X115582824Y-148286004D01*
X115563296Y-148282911D01*
X115399476Y-148243581D01*
X115380682Y-148237475D01*
X115225029Y-148173001D01*
X115207418Y-148164027D01*
X115063769Y-148075998D01*
X115047781Y-148064383D01*
X114919670Y-147954966D01*
X114905692Y-147940988D01*
X114796277Y-147812879D01*
X114784662Y-147796891D01*
X114696633Y-147653242D01*
X114687659Y-147635631D01*
X114649972Y-147544646D01*
X119224500Y-147544646D01*
X119227618Y-147570846D01*
X119231456Y-147579486D01*
X119231456Y-147579487D01*
X119267014Y-147659540D01*
X119273061Y-147673153D01*
X119281294Y-147681372D01*
X119281295Y-147681373D01*
X119312835Y-147712858D01*
X119352287Y-147752241D01*
X119362924Y-147756944D01*
X119362926Y-147756945D01*
X119397729Y-147772331D01*
X119454673Y-147797506D01*
X119480354Y-147800500D01*
X121369646Y-147800500D01*
X121373350Y-147800059D01*
X121373353Y-147800059D01*
X121380746Y-147799179D01*
X121395846Y-147797382D01*
X121456423Y-147770475D01*
X121487518Y-147756663D01*
X121498153Y-147751939D01*
X121577241Y-147672713D01*
X121585583Y-147653846D01*
X121610967Y-147596427D01*
X121622506Y-147570327D01*
X121625500Y-147544646D01*
X121625500Y-147136362D01*
X121645502Y-147068241D01*
X121699158Y-147021748D01*
X121769432Y-147011644D01*
X121834012Y-147041138D01*
X121865926Y-147083611D01*
X121876669Y-147106915D01*
X121920883Y-147202821D01*
X122048222Y-147383002D01*
X122206264Y-147536961D01*
X122211060Y-147540166D01*
X122211063Y-147540168D01*
X122310581Y-147606663D01*
X122389717Y-147659540D01*
X122395020Y-147661818D01*
X122395023Y-147661820D01*
X122585616Y-147743705D01*
X122592436Y-147746635D01*
X122638000Y-147756945D01*
X122801995Y-147794054D01*
X122802001Y-147794055D01*
X122807632Y-147795329D01*
X122813403Y-147795556D01*
X122813405Y-147795556D01*
X122881211Y-147798220D01*
X123028098Y-147803991D01*
X123137275Y-147788161D01*
X123240738Y-147773160D01*
X123240743Y-147773159D01*
X123246452Y-147772331D01*
X123251916Y-147770476D01*
X123251921Y-147770475D01*
X123449907Y-147703268D01*
X123449912Y-147703266D01*
X123455379Y-147701410D01*
X123505836Y-147673153D01*
X123549858Y-147648499D01*
X123647884Y-147593602D01*
X123654921Y-147587750D01*
X123813086Y-147456204D01*
X123817518Y-147452518D01*
X123866262Y-147393910D01*
X123954908Y-147287326D01*
X123954910Y-147287323D01*
X123958602Y-147282884D01*
X123976799Y-147250391D01*
X124063586Y-147095422D01*
X124063587Y-147095420D01*
X124066410Y-147090379D01*
X124068266Y-147084912D01*
X124068268Y-147084907D01*
X124135475Y-146886921D01*
X124135476Y-146886916D01*
X124137331Y-146881452D01*
X124138159Y-146875743D01*
X124138160Y-146875738D01*
X124162093Y-146710673D01*
X124168991Y-146663098D01*
X124170643Y-146600000D01*
X124150454Y-146380289D01*
X124141441Y-146348329D01*
X124109125Y-146233747D01*
X124090565Y-146167936D01*
X123992980Y-145970053D01*
X123986080Y-145960812D01*
X123864420Y-145797891D01*
X123864420Y-145797890D01*
X123860967Y-145793267D01*
X123754023Y-145694409D01*
X123703189Y-145647418D01*
X123703186Y-145647416D01*
X123698949Y-145643499D01*
X123512350Y-145525764D01*
X123431554Y-145493530D01*
X123375695Y-145449710D01*
X123352394Y-145382646D01*
X123369050Y-145313630D01*
X123420374Y-145264576D01*
X123478244Y-145250500D01*
X126280335Y-145250500D01*
X126348456Y-145270502D01*
X126394949Y-145324158D01*
X126405053Y-145394432D01*
X126375559Y-145459012D01*
X126369513Y-145465513D01*
X126357759Y-145477287D01*
X126353056Y-145487924D01*
X126353055Y-145487926D01*
X126337273Y-145523624D01*
X126312494Y-145579673D01*
X126309500Y-145605354D01*
X126309500Y-147394646D01*
X126312618Y-147420846D01*
X126316456Y-147429486D01*
X126316456Y-147429487D01*
X126353000Y-147511760D01*
X126358061Y-147523153D01*
X126366294Y-147531372D01*
X126366295Y-147531373D01*
X126391901Y-147556934D01*
X126437287Y-147602241D01*
X126447924Y-147606944D01*
X126447926Y-147606945D01*
X126487257Y-147624333D01*
X126539673Y-147647506D01*
X126565354Y-147650500D01*
X128354646Y-147650500D01*
X128358350Y-147650059D01*
X128358353Y-147650059D01*
X128365746Y-147649179D01*
X128380846Y-147647382D01*
X128391482Y-147642658D01*
X128472518Y-147606663D01*
X128483153Y-147601939D01*
X128491476Y-147593602D01*
X128536646Y-147548353D01*
X128562241Y-147522713D01*
X128567084Y-147511760D01*
X128593274Y-147452518D01*
X128607506Y-147420327D01*
X128610500Y-147394646D01*
X128610500Y-146710673D01*
X128630502Y-146642552D01*
X128684158Y-146596059D01*
X128754432Y-146585955D01*
X128819012Y-146615449D01*
X128857396Y-146675175D01*
X128858658Y-146680784D01*
X128858796Y-146680749D01*
X128910845Y-146885690D01*
X128999369Y-147077714D01*
X129121405Y-147250391D01*
X129125539Y-147254418D01*
X129265727Y-147390983D01*
X129272865Y-147397937D01*
X129277661Y-147401142D01*
X129277664Y-147401144D01*
X129361525Y-147457178D01*
X129448677Y-147515411D01*
X129453985Y-147517692D01*
X129453986Y-147517692D01*
X129637650Y-147596600D01*
X129637653Y-147596601D01*
X129642953Y-147598878D01*
X129648582Y-147600152D01*
X129648583Y-147600152D01*
X129843550Y-147644269D01*
X129843553Y-147644269D01*
X129849186Y-147645544D01*
X129854957Y-147645771D01*
X129854959Y-147645771D01*
X129916989Y-147648208D01*
X130060470Y-147653846D01*
X130066179Y-147653018D01*
X130066183Y-147653018D01*
X130264015Y-147624333D01*
X130264019Y-147624332D01*
X130269730Y-147623504D01*
X130356579Y-147594023D01*
X130464483Y-147557395D01*
X130464488Y-147557393D01*
X130469955Y-147555537D01*
X130482901Y-147548287D01*
X130649395Y-147455046D01*
X130649399Y-147455043D01*
X130654442Y-147452219D01*
X130817012Y-147317012D01*
X130952219Y-147154442D01*
X130955043Y-147149399D01*
X130955046Y-147149395D01*
X131052713Y-146974998D01*
X131052714Y-146974996D01*
X131055537Y-146969955D01*
X131057393Y-146964488D01*
X131057395Y-146964483D01*
X131121647Y-146775200D01*
X131123504Y-146769730D01*
X131136406Y-146680749D01*
X131145090Y-146620860D01*
X131174660Y-146556315D01*
X131234432Y-146518003D01*
X131305429Y-146518087D01*
X131365109Y-146556542D01*
X131394525Y-146621158D01*
X131395515Y-146630695D01*
X131398796Y-146680749D01*
X131400217Y-146686345D01*
X131400218Y-146686350D01*
X131422784Y-146775200D01*
X131450845Y-146885690D01*
X131539369Y-147077714D01*
X131661405Y-147250391D01*
X131665539Y-147254418D01*
X131805727Y-147390983D01*
X131812865Y-147397937D01*
X131817661Y-147401142D01*
X131817664Y-147401144D01*
X131901525Y-147457178D01*
X131988677Y-147515411D01*
X131993985Y-147517692D01*
X131993986Y-147517692D01*
X132177650Y-147596600D01*
X132177653Y-147596601D01*
X132182953Y-147598878D01*
X132188582Y-147600152D01*
X132188583Y-147600152D01*
X132383550Y-147644269D01*
X132383553Y-147644269D01*
X132389186Y-147645544D01*
X132394957Y-147645771D01*
X132394959Y-147645771D01*
X132456989Y-147648208D01*
X132600470Y-147653846D01*
X132606179Y-147653018D01*
X132606183Y-147653018D01*
X132804015Y-147624333D01*
X132804019Y-147624332D01*
X132809730Y-147623504D01*
X132896579Y-147594023D01*
X133004483Y-147557395D01*
X133004488Y-147557393D01*
X133009955Y-147555537D01*
X133022901Y-147548287D01*
X133189395Y-147455046D01*
X133189399Y-147455043D01*
X133194442Y-147452219D01*
X133357012Y-147317012D01*
X133492219Y-147154442D01*
X133495043Y-147149399D01*
X133495046Y-147149395D01*
X133592713Y-146974998D01*
X133592714Y-146974996D01*
X133595537Y-146969955D01*
X133597393Y-146964488D01*
X133597395Y-146964483D01*
X133661647Y-146775200D01*
X133663504Y-146769730D01*
X133676406Y-146680749D01*
X133685090Y-146620860D01*
X133714660Y-146556315D01*
X133774432Y-146518003D01*
X133845429Y-146518087D01*
X133905109Y-146556542D01*
X133934525Y-146621158D01*
X133935515Y-146630695D01*
X133938796Y-146680749D01*
X133940217Y-146686345D01*
X133940218Y-146686350D01*
X133962784Y-146775200D01*
X133990845Y-146885690D01*
X134079369Y-147077714D01*
X134201405Y-147250391D01*
X134205539Y-147254418D01*
X134345727Y-147390983D01*
X134352865Y-147397937D01*
X134357661Y-147401142D01*
X134357664Y-147401144D01*
X134441525Y-147457178D01*
X134528677Y-147515411D01*
X134533985Y-147517692D01*
X134533986Y-147517692D01*
X134717650Y-147596600D01*
X134717653Y-147596601D01*
X134722953Y-147598878D01*
X134728582Y-147600152D01*
X134728583Y-147600152D01*
X134923550Y-147644269D01*
X134923553Y-147644269D01*
X134929186Y-147645544D01*
X134934957Y-147645771D01*
X134934959Y-147645771D01*
X134996989Y-147648208D01*
X135140470Y-147653846D01*
X135146179Y-147653018D01*
X135146183Y-147653018D01*
X135344015Y-147624333D01*
X135344019Y-147624332D01*
X135349730Y-147623504D01*
X135436579Y-147594023D01*
X135544483Y-147557395D01*
X135544488Y-147557393D01*
X135549955Y-147555537D01*
X135562901Y-147548287D01*
X135729395Y-147455046D01*
X135729399Y-147455043D01*
X135734442Y-147452219D01*
X135897012Y-147317012D01*
X136032219Y-147154442D01*
X136035043Y-147149399D01*
X136035046Y-147149395D01*
X136132713Y-146974998D01*
X136132714Y-146974996D01*
X136135537Y-146969955D01*
X136137393Y-146964488D01*
X136137395Y-146964483D01*
X136201647Y-146775200D01*
X136203504Y-146769730D01*
X136220286Y-146653993D01*
X136225435Y-146618479D01*
X136255005Y-146553934D01*
X136314777Y-146515622D01*
X136385774Y-146515706D01*
X136445454Y-146554161D01*
X136474870Y-146618777D01*
X136475861Y-146628320D01*
X136478914Y-146674902D01*
X136480715Y-146686272D01*
X136529896Y-146879923D01*
X136533737Y-146890769D01*
X136617386Y-147072218D01*
X136623137Y-147082179D01*
X136738455Y-147245350D01*
X136745921Y-147254092D01*
X136889047Y-147393520D01*
X136897981Y-147400754D01*
X137064112Y-147511760D01*
X137074225Y-147517251D01*
X137257805Y-147596123D01*
X137268738Y-147599675D01*
X137458700Y-147642658D01*
X137467300Y-147640491D01*
X137467666Y-147640100D01*
X137470000Y-147630291D01*
X137470000Y-147622244D01*
X137770000Y-147622244D01*
X137773966Y-147635750D01*
X137787966Y-147637754D01*
X137883898Y-147623845D01*
X137895081Y-147621160D01*
X138084283Y-147556934D01*
X138094786Y-147552258D01*
X138269124Y-147454625D01*
X138278596Y-147448115D01*
X138432219Y-147320348D01*
X138440348Y-147312219D01*
X138568115Y-147158596D01*
X138574625Y-147149124D01*
X138672258Y-146974786D01*
X138676934Y-146964283D01*
X138741160Y-146775081D01*
X138743845Y-146763898D01*
X138757759Y-146667929D01*
X138755773Y-146653993D01*
X138742205Y-146650000D01*
X137788115Y-146650000D01*
X137772876Y-146654475D01*
X137771671Y-146655865D01*
X137770000Y-146663548D01*
X137770000Y-147622244D01*
X137470000Y-147622244D01*
X137470000Y-146331885D01*
X137770000Y-146331885D01*
X137774475Y-146347124D01*
X137775865Y-146348329D01*
X137783548Y-146350000D01*
X138743029Y-146350000D01*
X138757574Y-146345729D01*
X138759637Y-146333595D01*
X138756117Y-146295285D01*
X138754020Y-146283971D01*
X138699785Y-146091670D01*
X138695663Y-146080931D01*
X138607292Y-145901733D01*
X138601282Y-145891925D01*
X138481731Y-145731827D01*
X138474041Y-145723287D01*
X138327315Y-145587654D01*
X138318190Y-145580653D01*
X138149209Y-145474034D01*
X138138965Y-145468814D01*
X137953385Y-145394775D01*
X137942347Y-145391505D01*
X137787770Y-145360759D01*
X137774894Y-145361911D01*
X137770000Y-145377064D01*
X137770000Y-146331885D01*
X137470000Y-146331885D01*
X137470000Y-145376952D01*
X137466194Y-145363990D01*
X137451279Y-145362054D01*
X137326780Y-145383447D01*
X137315660Y-145386427D01*
X137128207Y-145455582D01*
X137117829Y-145460532D01*
X136946119Y-145562688D01*
X136936807Y-145569453D01*
X136786587Y-145701194D01*
X136778670Y-145709537D01*
X136654975Y-145866443D01*
X136648704Y-145876100D01*
X136555679Y-146052912D01*
X136551273Y-146063549D01*
X136492025Y-146254356D01*
X136489632Y-146265614D01*
X136475308Y-146386634D01*
X136447437Y-146451932D01*
X136388689Y-146491795D01*
X136317714Y-146493569D01*
X136257048Y-146456690D01*
X136225950Y-146392866D01*
X136224712Y-146383366D01*
X136216081Y-146289440D01*
X136209362Y-146265614D01*
X136182471Y-146170266D01*
X136158686Y-146085931D01*
X136154214Y-146076861D01*
X136067719Y-145901469D01*
X136065165Y-145896290D01*
X135938651Y-145726867D01*
X135811236Y-145609086D01*
X135787622Y-145587257D01*
X135787620Y-145587255D01*
X135783381Y-145583337D01*
X135754696Y-145565238D01*
X135609434Y-145473584D01*
X135609433Y-145473584D01*
X135604554Y-145470505D01*
X135408160Y-145392152D01*
X135402503Y-145391027D01*
X135402497Y-145391025D01*
X135206442Y-145352028D01*
X135206440Y-145352028D01*
X135200775Y-145350901D01*
X135195000Y-145350825D01*
X135194996Y-145350825D01*
X135088976Y-145349437D01*
X134989346Y-145348133D01*
X134983649Y-145349112D01*
X134983648Y-145349112D01*
X134786650Y-145382962D01*
X134786649Y-145382962D01*
X134780953Y-145383941D01*
X134582575Y-145457127D01*
X134577614Y-145460079D01*
X134577613Y-145460079D01*
X134406551Y-145561850D01*
X134400856Y-145565238D01*
X134241881Y-145704655D01*
X134110976Y-145870708D01*
X134108287Y-145875819D01*
X134108285Y-145875822D01*
X134094792Y-145901469D01*
X134012523Y-146057836D01*
X133949820Y-146259773D01*
X133949141Y-146265510D01*
X133935088Y-146384239D01*
X133907217Y-146449537D01*
X133848469Y-146489401D01*
X133777494Y-146491174D01*
X133716828Y-146454295D01*
X133685730Y-146390471D01*
X133684490Y-146380958D01*
X133683918Y-146374725D01*
X133676081Y-146289440D01*
X133669362Y-146265614D01*
X133642471Y-146170266D01*
X133618686Y-146085931D01*
X133614214Y-146076861D01*
X133527719Y-145901469D01*
X133525165Y-145896290D01*
X133398651Y-145726867D01*
X133271236Y-145609086D01*
X133247622Y-145587257D01*
X133247620Y-145587255D01*
X133243381Y-145583337D01*
X133214696Y-145565238D01*
X133069434Y-145473584D01*
X133069433Y-145473584D01*
X133064554Y-145470505D01*
X132868160Y-145392152D01*
X132862503Y-145391027D01*
X132862497Y-145391025D01*
X132666442Y-145352028D01*
X132666440Y-145352028D01*
X132660775Y-145350901D01*
X132655000Y-145350825D01*
X132654996Y-145350825D01*
X132548976Y-145349437D01*
X132449346Y-145348133D01*
X132443649Y-145349112D01*
X132443648Y-145349112D01*
X132246650Y-145382962D01*
X132246649Y-145382962D01*
X132240953Y-145383941D01*
X132212516Y-145394432D01*
X132185201Y-145404509D01*
X132114367Y-145409321D01*
X132052495Y-145375392D01*
X131182753Y-144505650D01*
X131172899Y-144494561D01*
X131157707Y-144475291D01*
X131157705Y-144475289D01*
X131151872Y-144467890D01*
X131144125Y-144462535D01*
X131144123Y-144462534D01*
X131103625Y-144434545D01*
X131100403Y-144432243D01*
X131060758Y-144402960D01*
X131060757Y-144402959D01*
X131053184Y-144397366D01*
X131046368Y-144394973D01*
X131040431Y-144390869D01*
X131031451Y-144388029D01*
X131031449Y-144388028D01*
X131000575Y-144378264D01*
X130984481Y-144373174D01*
X130980750Y-144371929D01*
X130934263Y-144355604D01*
X130934261Y-144355604D01*
X130925369Y-144352481D01*
X130918181Y-144352199D01*
X130918122Y-144352188D01*
X130911270Y-144350020D01*
X130904663Y-144349500D01*
X130851984Y-144349500D01*
X130847037Y-144349403D01*
X130790006Y-144347162D01*
X130782900Y-144349046D01*
X130774653Y-144349500D01*
X122942099Y-144349500D01*
X122873978Y-144329498D01*
X122865395Y-144323463D01*
X122809392Y-144280491D01*
X122802841Y-144275464D01*
X122656762Y-144214956D01*
X122500000Y-144194318D01*
X122343238Y-144214956D01*
X122197159Y-144275464D01*
X122071718Y-144371718D01*
X121975464Y-144497159D01*
X121914956Y-144643238D01*
X121894318Y-144800000D01*
X121914956Y-144956762D01*
X121975464Y-145102841D01*
X122071718Y-145228282D01*
X122197159Y-145324536D01*
X122254127Y-145348133D01*
X122297196Y-145365973D01*
X122352477Y-145410522D01*
X122374898Y-145477885D01*
X122357340Y-145546676D01*
X122313402Y-145590666D01*
X122256341Y-145624614D01*
X122090457Y-145770090D01*
X121953863Y-145943360D01*
X121875833Y-146091670D01*
X121863008Y-146116046D01*
X121813589Y-146167018D01*
X121744456Y-146183181D01*
X121677560Y-146159402D01*
X121634140Y-146103231D01*
X121625500Y-146057378D01*
X121625500Y-145655354D01*
X121622382Y-145629154D01*
X121613438Y-145609017D01*
X121581663Y-145537482D01*
X121576939Y-145526847D01*
X121497713Y-145447759D01*
X121487076Y-145443056D01*
X121487074Y-145443055D01*
X121427538Y-145416735D01*
X121395327Y-145402494D01*
X121369646Y-145399500D01*
X119480354Y-145399500D01*
X119476650Y-145399941D01*
X119476647Y-145399941D01*
X119469254Y-145400821D01*
X119454154Y-145402618D01*
X119445514Y-145406456D01*
X119445513Y-145406456D01*
X119396277Y-145428326D01*
X119351847Y-145448061D01*
X119343628Y-145456294D01*
X119343627Y-145456295D01*
X119329442Y-145470505D01*
X119272759Y-145527287D01*
X119268056Y-145537924D01*
X119268055Y-145537926D01*
X119245438Y-145589084D01*
X119227494Y-145629673D01*
X119224500Y-145655354D01*
X119224500Y-147544646D01*
X114649972Y-147544646D01*
X114623185Y-147479978D01*
X114617077Y-147461179D01*
X114616117Y-147457178D01*
X114577749Y-147297363D01*
X114574656Y-147277836D01*
X114563346Y-147134128D01*
X114563933Y-147121881D01*
X114563374Y-147121881D01*
X114563374Y-147110854D01*
X114565288Y-147100000D01*
X114562601Y-147084760D01*
X114560687Y-147062790D01*
X114560725Y-147011644D01*
X114568946Y-135789455D01*
X121344825Y-135789455D01*
X121345512Y-135796462D01*
X121345512Y-135796465D01*
X121348311Y-135825010D01*
X121361255Y-135957025D01*
X121414402Y-136116791D01*
X121501624Y-136260812D01*
X121506513Y-136265875D01*
X121506514Y-136265876D01*
X121577825Y-136339720D01*
X121618586Y-136381929D01*
X121624483Y-136385788D01*
X121753577Y-136470266D01*
X121753581Y-136470268D01*
X121759475Y-136474125D01*
X121917289Y-136532815D01*
X121924270Y-136533746D01*
X121924272Y-136533747D01*
X121969812Y-136539823D01*
X122084183Y-136555083D01*
X122091194Y-136554445D01*
X122091198Y-136554445D01*
X122244843Y-136540462D01*
X122251864Y-136539823D01*
X122258566Y-136537645D01*
X122258568Y-136537645D01*
X122405298Y-136489970D01*
X122405301Y-136489969D01*
X122411997Y-136487793D01*
X122556623Y-136401578D01*
X122561717Y-136396727D01*
X122561721Y-136396724D01*
X122673454Y-136290322D01*
X122673455Y-136290320D01*
X122678554Y-136285465D01*
X122686441Y-136273595D01*
X122767836Y-136151085D01*
X122771731Y-136145223D01*
X122831521Y-135987823D01*
X122845259Y-135890072D01*
X122854404Y-135825010D01*
X122854404Y-135825006D01*
X122854955Y-135821088D01*
X122855249Y-135800000D01*
X122853283Y-135782468D01*
X122837266Y-135639672D01*
X122837265Y-135639669D01*
X122836481Y-135632676D01*
X122781108Y-135473668D01*
X122719646Y-135375308D01*
X122700500Y-135308538D01*
X122700500Y-123500000D01*
X123694318Y-123500000D01*
X123714956Y-123656762D01*
X123775464Y-123802841D01*
X123871718Y-123928282D01*
X123878264Y-123933305D01*
X123907918Y-123956059D01*
X123997159Y-124024536D01*
X124143238Y-124085044D01*
X124300000Y-124105682D01*
X124308188Y-124104604D01*
X124448574Y-124086122D01*
X124456762Y-124085044D01*
X124602841Y-124024536D01*
X124692082Y-123956059D01*
X124721736Y-123933305D01*
X124728282Y-123928282D01*
X124824536Y-123802841D01*
X124885044Y-123656762D01*
X124905682Y-123500000D01*
X124885044Y-123343238D01*
X124824536Y-123197159D01*
X124776537Y-123134605D01*
X124750937Y-123068384D01*
X124750500Y-123057901D01*
X124750500Y-116342099D01*
X124770502Y-116273978D01*
X124776537Y-116265395D01*
X124819509Y-116209392D01*
X124824536Y-116202841D01*
X124885044Y-116056762D01*
X124905682Y-115900000D01*
X124885044Y-115743238D01*
X124824536Y-115597159D01*
X124728282Y-115471718D01*
X124602841Y-115375464D01*
X124456762Y-115314956D01*
X124300000Y-115294318D01*
X124143238Y-115314956D01*
X123997159Y-115375464D01*
X123871718Y-115471718D01*
X123775464Y-115597159D01*
X123714956Y-115743238D01*
X123694318Y-115900000D01*
X123714956Y-116056762D01*
X123775464Y-116202841D01*
X123780491Y-116209392D01*
X123823463Y-116265395D01*
X123849063Y-116331616D01*
X123849500Y-116342099D01*
X123849500Y-123057901D01*
X123829498Y-123126022D01*
X123823463Y-123134605D01*
X123775464Y-123197159D01*
X123714956Y-123343238D01*
X123694318Y-123500000D01*
X122700500Y-123500000D01*
X122700500Y-114900925D01*
X122720502Y-114832804D01*
X122737405Y-114811830D01*
X124272911Y-113276325D01*
X124335223Y-113242299D01*
X124337950Y-113241880D01*
X124337949Y-113241877D01*
X124344843Y-113240462D01*
X124351864Y-113239823D01*
X124383807Y-113229444D01*
X124505298Y-113189970D01*
X124505301Y-113189969D01*
X124511997Y-113187793D01*
X124656623Y-113101578D01*
X124661717Y-113096727D01*
X124661721Y-113096724D01*
X124773454Y-112990322D01*
X124773455Y-112990320D01*
X124778554Y-112985465D01*
X124783337Y-112978267D01*
X124840331Y-112892484D01*
X124871731Y-112845223D01*
X124881029Y-112820747D01*
X124929019Y-112694409D01*
X124931521Y-112687823D01*
X124954955Y-112521088D01*
X124955249Y-112500000D01*
X124944475Y-112403947D01*
X124937266Y-112339672D01*
X124937265Y-112339669D01*
X124936481Y-112332676D01*
X124881108Y-112173668D01*
X124819646Y-112075308D01*
X124800500Y-112008538D01*
X124800500Y-103290475D01*
X124821551Y-103220749D01*
X124871731Y-103145223D01*
X124931521Y-102987823D01*
X124932501Y-102980852D01*
X124932502Y-102980847D01*
X124937119Y-102947995D01*
X124966408Y-102883321D01*
X124972798Y-102876437D01*
X130411830Y-97437405D01*
X130474142Y-97403379D01*
X130500925Y-97400500D01*
X135927536Y-97400500D01*
X135995657Y-97420502D01*
X136042150Y-97474158D01*
X136052254Y-97544432D01*
X136022760Y-97609012D01*
X135975755Y-97642909D01*
X135897159Y-97675464D01*
X135771718Y-97771718D01*
X135766695Y-97778264D01*
X135743941Y-97807918D01*
X135675464Y-97897159D01*
X135614956Y-98043238D01*
X135594318Y-98200000D01*
X135595396Y-98208188D01*
X135598422Y-98231173D01*
X135599500Y-98247619D01*
X135599500Y-107452381D01*
X135598422Y-107468827D01*
X135594318Y-107500000D01*
X135599500Y-107539361D01*
X135614956Y-107656762D01*
X135675464Y-107802841D01*
X135729749Y-107873587D01*
X135764369Y-107918704D01*
X135771718Y-107928282D01*
X135778264Y-107933305D01*
X135796671Y-107947429D01*
X135809062Y-107958297D01*
X136041703Y-108190938D01*
X136052570Y-108203328D01*
X136071718Y-108228282D01*
X136078264Y-108233305D01*
X136096671Y-108247429D01*
X136109062Y-108258297D01*
X141462595Y-113611830D01*
X141496621Y-113674142D01*
X141499500Y-113700925D01*
X141499500Y-118255807D01*
X141479498Y-118323928D01*
X141425842Y-118370421D01*
X141355568Y-118380525D01*
X141294721Y-118354142D01*
X141291243Y-118351356D01*
X141284854Y-118344444D01*
X141278497Y-118340751D01*
X141272337Y-118335234D01*
X137642753Y-114705650D01*
X137632899Y-114694561D01*
X137617707Y-114675291D01*
X137617705Y-114675289D01*
X137611872Y-114667890D01*
X137604125Y-114662535D01*
X137604123Y-114662534D01*
X137578614Y-114644904D01*
X137563615Y-114634538D01*
X137560403Y-114632243D01*
X137558955Y-114631173D01*
X137513184Y-114597366D01*
X137506368Y-114594973D01*
X137500431Y-114590869D01*
X137491451Y-114588029D01*
X137491449Y-114588028D01*
X137460575Y-114578264D01*
X137444481Y-114573174D01*
X137440750Y-114571929D01*
X137394263Y-114555604D01*
X137394261Y-114555604D01*
X137385369Y-114552481D01*
X137378181Y-114552199D01*
X137378122Y-114552188D01*
X137371270Y-114550020D01*
X137364663Y-114549500D01*
X137311984Y-114549500D01*
X137307037Y-114549403D01*
X137250006Y-114547162D01*
X137242900Y-114549046D01*
X137234653Y-114549500D01*
X133642099Y-114549500D01*
X133573978Y-114529498D01*
X133565395Y-114523463D01*
X133509392Y-114480491D01*
X133502841Y-114475464D01*
X133356762Y-114414956D01*
X133200000Y-114394318D01*
X133043238Y-114414956D01*
X132897159Y-114475464D01*
X132771718Y-114571718D01*
X132766695Y-114578264D01*
X132749993Y-114600031D01*
X132675464Y-114697159D01*
X132614956Y-114843238D01*
X132594318Y-115000000D01*
X132614956Y-115156762D01*
X132675464Y-115302841D01*
X132771718Y-115428282D01*
X132897159Y-115524536D01*
X133043238Y-115585044D01*
X133200000Y-115605682D01*
X133208188Y-115604604D01*
X133348574Y-115586122D01*
X133356762Y-115585044D01*
X133502841Y-115524536D01*
X133565395Y-115476537D01*
X133631616Y-115450937D01*
X133642099Y-115450500D01*
X137061207Y-115450500D01*
X137129328Y-115470502D01*
X137150302Y-115487405D01*
X140512595Y-118849698D01*
X140546621Y-118912010D01*
X140549500Y-118938793D01*
X140549500Y-120257901D01*
X140529498Y-120326022D01*
X140523463Y-120334605D01*
X140475464Y-120397159D01*
X140414956Y-120543238D01*
X140394318Y-120700000D01*
X140414956Y-120856762D01*
X140475464Y-121002841D01*
X140571718Y-121128282D01*
X140697159Y-121224536D01*
X140843238Y-121285044D01*
X141000000Y-121305682D01*
X141008188Y-121304604D01*
X141148574Y-121286122D01*
X141156762Y-121285044D01*
X141302841Y-121224536D01*
X141309392Y-121219509D01*
X141310501Y-121218869D01*
X141379497Y-121202132D01*
X141446588Y-121225353D01*
X141490475Y-121281161D01*
X141499500Y-121327989D01*
X141499500Y-123273500D01*
X141479498Y-123341621D01*
X141425842Y-123388114D01*
X141373500Y-123399500D01*
X137600925Y-123399500D01*
X137532804Y-123379498D01*
X137511830Y-123362595D01*
X134687211Y-120537976D01*
X134653185Y-120475664D01*
X134651091Y-120462926D01*
X134637266Y-120339672D01*
X134637265Y-120339669D01*
X134636481Y-120332676D01*
X134581108Y-120173668D01*
X134491884Y-120030879D01*
X134483723Y-120022661D01*
X134378205Y-119916403D01*
X134378201Y-119916400D01*
X134373242Y-119911406D01*
X134355651Y-119900242D01*
X134317953Y-119876319D01*
X134231079Y-119821187D01*
X134072462Y-119764706D01*
X134065474Y-119763873D01*
X134065471Y-119763872D01*
X133972300Y-119752762D01*
X133905273Y-119744769D01*
X133898270Y-119745505D01*
X133898269Y-119745505D01*
X133852712Y-119750293D01*
X133737821Y-119762369D01*
X133731155Y-119764638D01*
X133731152Y-119764639D01*
X133585098Y-119814360D01*
X133585095Y-119814361D01*
X133578431Y-119816630D01*
X133572436Y-119820318D01*
X133572432Y-119820320D01*
X133442522Y-119900242D01*
X133374021Y-119918900D01*
X133306307Y-119897561D01*
X133260879Y-119843001D01*
X133250500Y-119792924D01*
X133250500Y-118000000D01*
X137694318Y-118000000D01*
X137714956Y-118156762D01*
X137775464Y-118302841D01*
X137871718Y-118428282D01*
X137997159Y-118524536D01*
X138143238Y-118585044D01*
X138221410Y-118595335D01*
X138286337Y-118624057D01*
X138294059Y-118631162D01*
X138312595Y-118649698D01*
X138346621Y-118712010D01*
X138349500Y-118738793D01*
X138349500Y-122057901D01*
X138329498Y-122126022D01*
X138323463Y-122134605D01*
X138311633Y-122150022D01*
X138275464Y-122197159D01*
X138214956Y-122343238D01*
X138194318Y-122500000D01*
X138214956Y-122656762D01*
X138275464Y-122802841D01*
X138371718Y-122928282D01*
X138497159Y-123024536D01*
X138643238Y-123085044D01*
X138800000Y-123105682D01*
X138808188Y-123104604D01*
X138948574Y-123086122D01*
X138956762Y-123085044D01*
X139102841Y-123024536D01*
X139228282Y-122928282D01*
X139324536Y-122802841D01*
X139385044Y-122656762D01*
X139405682Y-122500000D01*
X139385044Y-122343238D01*
X139324536Y-122197159D01*
X139288367Y-122150022D01*
X139276537Y-122134605D01*
X139250937Y-122068384D01*
X139250500Y-122057901D01*
X139250500Y-118534220D01*
X139251373Y-118519411D01*
X139254257Y-118495043D01*
X139255364Y-118485690D01*
X139253672Y-118476426D01*
X139253672Y-118476422D01*
X139244827Y-118427989D01*
X139244178Y-118424088D01*
X139236851Y-118375355D01*
X139236849Y-118375347D01*
X139235449Y-118366038D01*
X139232323Y-118359528D01*
X139231026Y-118352427D01*
X139203982Y-118300363D01*
X139202214Y-118296825D01*
X139180886Y-118252411D01*
X139176809Y-118243921D01*
X139171922Y-118238635D01*
X139171895Y-118238595D01*
X139168580Y-118232212D01*
X139164275Y-118227172D01*
X139127048Y-118189945D01*
X139123618Y-118186379D01*
X139103293Y-118164391D01*
X139084854Y-118144444D01*
X139078495Y-118140751D01*
X139072337Y-118135234D01*
X138931162Y-117994059D01*
X138897136Y-117931747D01*
X138895335Y-117921409D01*
X138886122Y-117851427D01*
X138886122Y-117851426D01*
X138885044Y-117843238D01*
X138824536Y-117697159D01*
X138728282Y-117571718D01*
X138602841Y-117475464D01*
X138456762Y-117414956D01*
X138300000Y-117394318D01*
X138143238Y-117414956D01*
X137997159Y-117475464D01*
X137871718Y-117571718D01*
X137775464Y-117697159D01*
X137714956Y-117843238D01*
X137694318Y-118000000D01*
X133250500Y-118000000D01*
X133250500Y-117142099D01*
X133270502Y-117073978D01*
X133276537Y-117065395D01*
X133319509Y-117009392D01*
X133324536Y-117002841D01*
X133385044Y-116856762D01*
X133405682Y-116700000D01*
X133385044Y-116543238D01*
X133324536Y-116397159D01*
X133228282Y-116271718D01*
X133102841Y-116175464D01*
X132956762Y-116114956D01*
X132800000Y-116094318D01*
X132643238Y-116114956D01*
X132497159Y-116175464D01*
X132371718Y-116271718D01*
X132275464Y-116397159D01*
X132214956Y-116543238D01*
X132194318Y-116700000D01*
X132214956Y-116856762D01*
X132275464Y-117002841D01*
X132280491Y-117009392D01*
X132323463Y-117065395D01*
X132349063Y-117131616D01*
X132349500Y-117142099D01*
X132349500Y-121965780D01*
X132348627Y-121980589D01*
X132344636Y-122014310D01*
X132346328Y-122023574D01*
X132346328Y-122023575D01*
X132355172Y-122072001D01*
X132355822Y-122075904D01*
X132364551Y-122133962D01*
X132367679Y-122140475D01*
X132368975Y-122147573D01*
X132396025Y-122199647D01*
X132397768Y-122203137D01*
X132423191Y-122256079D01*
X132428077Y-122261365D01*
X132428110Y-122261413D01*
X132431421Y-122267788D01*
X132435725Y-122272828D01*
X132472952Y-122310055D01*
X132476381Y-122313620D01*
X132515146Y-122355556D01*
X132521505Y-122359249D01*
X132527663Y-122364766D01*
X137257247Y-127094350D01*
X137267101Y-127105439D01*
X137282293Y-127124709D01*
X137288128Y-127132110D01*
X137295875Y-127137465D01*
X137295877Y-127137466D01*
X137336375Y-127165455D01*
X137339587Y-127167750D01*
X137386816Y-127202634D01*
X137393632Y-127205027D01*
X137399569Y-127209131D01*
X137408549Y-127211971D01*
X137408551Y-127211972D01*
X137428717Y-127218350D01*
X137455519Y-127226826D01*
X137459250Y-127228071D01*
X137505737Y-127244396D01*
X137505739Y-127244396D01*
X137514631Y-127247519D01*
X137521819Y-127247801D01*
X137521878Y-127247812D01*
X137528730Y-127249980D01*
X137535337Y-127250500D01*
X137588016Y-127250500D01*
X137592962Y-127250597D01*
X137649994Y-127252838D01*
X137657100Y-127250954D01*
X137665347Y-127250500D01*
X142757901Y-127250500D01*
X142826022Y-127270502D01*
X142834605Y-127276537D01*
X142897159Y-127324536D01*
X143043238Y-127385044D01*
X143200000Y-127405682D01*
X143208188Y-127404604D01*
X143348574Y-127386122D01*
X143356762Y-127385044D01*
X143502841Y-127324536D01*
X143628282Y-127228282D01*
X143724536Y-127102841D01*
X143785044Y-126956762D01*
X143805682Y-126800000D01*
X143785044Y-126643238D01*
X143724536Y-126497159D01*
X143628282Y-126371718D01*
X143502841Y-126275464D01*
X143356762Y-126214956D01*
X143200000Y-126194318D01*
X143043238Y-126214956D01*
X142897159Y-126275464D01*
X142890608Y-126280491D01*
X142834605Y-126323463D01*
X142768384Y-126349063D01*
X142757901Y-126349500D01*
X137838793Y-126349500D01*
X137770672Y-126329498D01*
X137749698Y-126312595D01*
X133287405Y-121850302D01*
X133253379Y-121787990D01*
X133250500Y-121761207D01*
X133250500Y-121204969D01*
X133270502Y-121136848D01*
X133324158Y-121090355D01*
X133394432Y-121080251D01*
X133445493Y-121099537D01*
X133464279Y-121111830D01*
X133559475Y-121174125D01*
X133566079Y-121176581D01*
X133637874Y-121203281D01*
X133683049Y-121232284D01*
X136841703Y-124390938D01*
X136852570Y-124403328D01*
X136871718Y-124428282D01*
X136946241Y-124485465D01*
X136997159Y-124524536D01*
X137143238Y-124585044D01*
X137300000Y-124605682D01*
X137308188Y-124604604D01*
X137331173Y-124601578D01*
X137347619Y-124600500D01*
X142052381Y-124600500D01*
X142068827Y-124601578D01*
X142100000Y-124605682D01*
X142108188Y-124604604D01*
X142139361Y-124600500D01*
X142248574Y-124586122D01*
X142256762Y-124585044D01*
X142402841Y-124524536D01*
X142528282Y-124428282D01*
X142624536Y-124302841D01*
X142685044Y-124156762D01*
X142705682Y-124000000D01*
X142701578Y-123968827D01*
X142700500Y-123952381D01*
X142700500Y-113447619D01*
X142701578Y-113431173D01*
X142704604Y-113408188D01*
X142705682Y-113400000D01*
X142685044Y-113243238D01*
X142660584Y-113184187D01*
X142627696Y-113104787D01*
X142627695Y-113104785D01*
X142624536Y-113097159D01*
X142606861Y-113074125D01*
X142606860Y-113074123D01*
X142533308Y-112978267D01*
X142533304Y-112978263D01*
X142528282Y-112971718D01*
X142503328Y-112952570D01*
X142490938Y-112941703D01*
X136958292Y-107409057D01*
X136947432Y-107396675D01*
X136928282Y-107371718D01*
X136903328Y-107352570D01*
X136890938Y-107341703D01*
X136837405Y-107288170D01*
X136803379Y-107225858D01*
X136800500Y-107199075D01*
X136800500Y-98247619D01*
X136801578Y-98231173D01*
X136804604Y-98208188D01*
X136805682Y-98200000D01*
X136785044Y-98043238D01*
X136724536Y-97897159D01*
X136656059Y-97807918D01*
X136633305Y-97778264D01*
X136628282Y-97771718D01*
X136502841Y-97675464D01*
X136424246Y-97642909D01*
X136368965Y-97598361D01*
X136346544Y-97530997D01*
X136364102Y-97462206D01*
X136416064Y-97413828D01*
X136472464Y-97400500D01*
X137799075Y-97400500D01*
X137867196Y-97420502D01*
X137888170Y-97437405D01*
X143362595Y-102911830D01*
X143396621Y-102974142D01*
X143399500Y-103000925D01*
X143399500Y-111909201D01*
X143379413Y-111977453D01*
X143323515Y-112064190D01*
X143265927Y-112222409D01*
X143244825Y-112389455D01*
X143245512Y-112396462D01*
X143245512Y-112396465D01*
X143248248Y-112424370D01*
X143261255Y-112557025D01*
X143314402Y-112716791D01*
X143318049Y-112722813D01*
X143318050Y-112722815D01*
X143381276Y-112827213D01*
X143399500Y-112892484D01*
X143399500Y-116852381D01*
X143398422Y-116868827D01*
X143394318Y-116900000D01*
X143407857Y-117002841D01*
X143414956Y-117056762D01*
X143475464Y-117202841D01*
X143571718Y-117328282D01*
X143578264Y-117333305D01*
X143596671Y-117347429D01*
X143609062Y-117358297D01*
X147362595Y-121111830D01*
X147396621Y-121174142D01*
X147399500Y-121200925D01*
X147399500Y-123509201D01*
X147379413Y-123577453D01*
X147323515Y-123664190D01*
X147265927Y-123822409D01*
X147244825Y-123989455D01*
X147245512Y-123996462D01*
X147245512Y-123996465D01*
X147248311Y-124025010D01*
X147261255Y-124157025D01*
X147314402Y-124316791D01*
X147318049Y-124322813D01*
X147318050Y-124322815D01*
X147381276Y-124427213D01*
X147399500Y-124492484D01*
X147399500Y-137209201D01*
X147379413Y-137277453D01*
X147323515Y-137364190D01*
X147265927Y-137522409D01*
X147244825Y-137689455D01*
X147261255Y-137857025D01*
X147314402Y-138016791D01*
X147401624Y-138160812D01*
X147518586Y-138281929D01*
X147524483Y-138285788D01*
X147653577Y-138370266D01*
X147653581Y-138370268D01*
X147659475Y-138374125D01*
X147817289Y-138432815D01*
X147844893Y-138436498D01*
X147851516Y-138437382D01*
X147916392Y-138466219D01*
X147923945Y-138473180D01*
X151462595Y-142011830D01*
X151496621Y-142074142D01*
X151499500Y-142100925D01*
X151499500Y-145009201D01*
X151479413Y-145077453D01*
X151423515Y-145164190D01*
X151421105Y-145170810D01*
X151421104Y-145170813D01*
X151400187Y-145228282D01*
X151365927Y-145322409D01*
X151344825Y-145489455D01*
X151345512Y-145496462D01*
X151345512Y-145496465D01*
X151350435Y-145546676D01*
X151361255Y-145657025D01*
X151414402Y-145816791D01*
X151418049Y-145822813D01*
X151418050Y-145822815D01*
X151491055Y-145943360D01*
X151501624Y-145960812D01*
X151506513Y-145965875D01*
X151506514Y-145965876D01*
X151552054Y-146013034D01*
X151618586Y-146081929D01*
X151624483Y-146085788D01*
X151753577Y-146170266D01*
X151753581Y-146170268D01*
X151759475Y-146174125D01*
X151917289Y-146232815D01*
X151924270Y-146233746D01*
X151924272Y-146233747D01*
X151969812Y-146239823D01*
X152084183Y-146255083D01*
X152091194Y-146254445D01*
X152091198Y-146254445D01*
X152244843Y-146240462D01*
X152251864Y-146239823D01*
X152258566Y-146237645D01*
X152258568Y-146237645D01*
X152405298Y-146189970D01*
X152405301Y-146189969D01*
X152411997Y-146187793D01*
X152556623Y-146101578D01*
X152561717Y-146096727D01*
X152561721Y-146096724D01*
X152673454Y-145990322D01*
X152673455Y-145990320D01*
X152678554Y-145985465D01*
X152685352Y-145975234D01*
X152767836Y-145851085D01*
X152771731Y-145845223D01*
X152831521Y-145687823D01*
X152849226Y-145561850D01*
X152876871Y-145500806D01*
X152853104Y-145463824D01*
X152848785Y-145442371D01*
X152837266Y-145339672D01*
X152837265Y-145339669D01*
X152836481Y-145332676D01*
X152781108Y-145173668D01*
X152719646Y-145075308D01*
X152700500Y-145008538D01*
X152700500Y-141847619D01*
X152701578Y-141831173D01*
X152704604Y-141808188D01*
X152705682Y-141800000D01*
X152685044Y-141643238D01*
X152624536Y-141497159D01*
X152552450Y-141403215D01*
X152528282Y-141371718D01*
X152503328Y-141352570D01*
X152490938Y-141341703D01*
X148774577Y-137625342D01*
X148740551Y-137563030D01*
X148738457Y-137550293D01*
X148737266Y-137539679D01*
X148736481Y-137532676D01*
X148681108Y-137373668D01*
X148619646Y-137275308D01*
X148600500Y-137208538D01*
X148600500Y-136605603D01*
X149458305Y-136605603D01*
X149458914Y-136614901D01*
X149460715Y-136626273D01*
X149509896Y-136819923D01*
X149513737Y-136830769D01*
X149597386Y-137012218D01*
X149603137Y-137022179D01*
X149718455Y-137185350D01*
X149725921Y-137194092D01*
X149869047Y-137333520D01*
X149877981Y-137340754D01*
X150044112Y-137451760D01*
X150054225Y-137457251D01*
X150237805Y-137536123D01*
X150248738Y-137539675D01*
X150438700Y-137582658D01*
X150447300Y-137580491D01*
X150447666Y-137580100D01*
X150450000Y-137570291D01*
X150450000Y-137562244D01*
X150750000Y-137562244D01*
X150753966Y-137575750D01*
X150767966Y-137577754D01*
X150863898Y-137563845D01*
X150875081Y-137561160D01*
X151064283Y-137496934D01*
X151074786Y-137492258D01*
X151249124Y-137394625D01*
X151258596Y-137388115D01*
X151412219Y-137260348D01*
X151420348Y-137252219D01*
X151548115Y-137098596D01*
X151554625Y-137089124D01*
X151652258Y-136914786D01*
X151656934Y-136904283D01*
X151721160Y-136715081D01*
X151723845Y-136703898D01*
X151737759Y-136607929D01*
X151735773Y-136593993D01*
X151722205Y-136590000D01*
X150768115Y-136590000D01*
X150752876Y-136594475D01*
X150751671Y-136595865D01*
X150750000Y-136603548D01*
X150750000Y-137562244D01*
X150450000Y-137562244D01*
X150450000Y-136608115D01*
X150445525Y-136592876D01*
X150444135Y-136591671D01*
X150436452Y-136590000D01*
X149475397Y-136590000D01*
X149460357Y-136594416D01*
X149458305Y-136605603D01*
X148600500Y-136605603D01*
X148600500Y-133869754D01*
X149444967Y-133869754D01*
X149458796Y-134080749D01*
X149460217Y-134086345D01*
X149460218Y-134086350D01*
X149482784Y-134175200D01*
X149510845Y-134285690D01*
X149599369Y-134477714D01*
X149721405Y-134650391D01*
X149872865Y-134797937D01*
X149877661Y-134801142D01*
X149877664Y-134801144D01*
X150020936Y-134896875D01*
X150048677Y-134915411D01*
X150053985Y-134917692D01*
X150053986Y-134917692D01*
X150237650Y-134996600D01*
X150237653Y-134996601D01*
X150242953Y-134998878D01*
X150248582Y-135000152D01*
X150248583Y-135000152D01*
X150443550Y-135044269D01*
X150443553Y-135044269D01*
X150449186Y-135045544D01*
X150454958Y-135045771D01*
X150460687Y-135046525D01*
X150460417Y-135048578D01*
X150518983Y-135068295D01*
X150563341Y-135123729D01*
X150570687Y-135194344D01*
X150538690Y-135257722D01*
X150477507Y-135293739D01*
X150468105Y-135295726D01*
X150306780Y-135323447D01*
X150295660Y-135326427D01*
X150108207Y-135395582D01*
X150097829Y-135400532D01*
X149926119Y-135502688D01*
X149916807Y-135509453D01*
X149766587Y-135641194D01*
X149758670Y-135649537D01*
X149634975Y-135806443D01*
X149628704Y-135816100D01*
X149535679Y-135992912D01*
X149531273Y-136003549D01*
X149472025Y-136194356D01*
X149469632Y-136205614D01*
X149461773Y-136272012D01*
X149464215Y-136286431D01*
X149476957Y-136290000D01*
X151723029Y-136290000D01*
X151737574Y-136285729D01*
X151739637Y-136273595D01*
X151736117Y-136235285D01*
X151734020Y-136223971D01*
X151679785Y-136031670D01*
X151675663Y-136020931D01*
X151587292Y-135841733D01*
X151581282Y-135831925D01*
X151461731Y-135671827D01*
X151454041Y-135663287D01*
X151307315Y-135527654D01*
X151298190Y-135520653D01*
X151129209Y-135414034D01*
X151118965Y-135408814D01*
X150933385Y-135334775D01*
X150922347Y-135331505D01*
X150723753Y-135292003D01*
X150660843Y-135259096D01*
X150625711Y-135197401D01*
X150629511Y-135126506D01*
X150671036Y-135068920D01*
X150730253Y-135043728D01*
X150864015Y-135024333D01*
X150864019Y-135024332D01*
X150869730Y-135023504D01*
X150948987Y-134996600D01*
X151064483Y-134957395D01*
X151064488Y-134957393D01*
X151069955Y-134955537D01*
X151074998Y-134952713D01*
X151249395Y-134855046D01*
X151249399Y-134855043D01*
X151254442Y-134852219D01*
X151417012Y-134717012D01*
X151552219Y-134554442D01*
X151555043Y-134549399D01*
X151555046Y-134549395D01*
X151652713Y-134374998D01*
X151652714Y-134374996D01*
X151655537Y-134369955D01*
X151657393Y-134364488D01*
X151657395Y-134364483D01*
X151721647Y-134175200D01*
X151723504Y-134169730D01*
X151753846Y-133960470D01*
X151755429Y-133900000D01*
X151736081Y-133689440D01*
X151678686Y-133485931D01*
X151667553Y-133463354D01*
X151587719Y-133301469D01*
X151585165Y-133296290D01*
X151458651Y-133126867D01*
X151303381Y-132983337D01*
X151124554Y-132870505D01*
X150928160Y-132792152D01*
X150922503Y-132791027D01*
X150922497Y-132791025D01*
X150766916Y-132760079D01*
X150704006Y-132727172D01*
X150668874Y-132665477D01*
X150672674Y-132594582D01*
X150714199Y-132536996D01*
X150780266Y-132511002D01*
X150791497Y-132510500D01*
X151494646Y-132510500D01*
X151498350Y-132510059D01*
X151498353Y-132510059D01*
X151505746Y-132509179D01*
X151520846Y-132507382D01*
X151623153Y-132461939D01*
X151702241Y-132382713D01*
X151747506Y-132280327D01*
X151750500Y-132254646D01*
X151750500Y-130465354D01*
X151747382Y-130439154D01*
X151701939Y-130336847D01*
X151622713Y-130257759D01*
X151612076Y-130253056D01*
X151612074Y-130253055D01*
X151552538Y-130226735D01*
X151520327Y-130212494D01*
X151494646Y-130209500D01*
X149705354Y-130209500D01*
X149701650Y-130209941D01*
X149701647Y-130209941D01*
X149694254Y-130210821D01*
X149679154Y-130212618D01*
X149576847Y-130258061D01*
X149497759Y-130337287D01*
X149452494Y-130439673D01*
X149449500Y-130465354D01*
X149449500Y-132254646D01*
X149452618Y-132280846D01*
X149498061Y-132383153D01*
X149577287Y-132462241D01*
X149587924Y-132466944D01*
X149587926Y-132466945D01*
X149647462Y-132493265D01*
X149679673Y-132507506D01*
X149705354Y-132510500D01*
X150414988Y-132510500D01*
X150483109Y-132530502D01*
X150529602Y-132584158D01*
X150539706Y-132654432D01*
X150510212Y-132719012D01*
X150450486Y-132757396D01*
X150436326Y-132760680D01*
X150306650Y-132782962D01*
X150306649Y-132782962D01*
X150300953Y-132783941D01*
X150102575Y-132857127D01*
X150097614Y-132860079D01*
X150097613Y-132860079D01*
X150080089Y-132870505D01*
X149920856Y-132965238D01*
X149761881Y-133104655D01*
X149630976Y-133270708D01*
X149628287Y-133275819D01*
X149628285Y-133275822D01*
X149614792Y-133301469D01*
X149532523Y-133457836D01*
X149469820Y-133659773D01*
X149444967Y-133869754D01*
X148600500Y-133869754D01*
X148600500Y-124490475D01*
X148621551Y-124420749D01*
X148671731Y-124345223D01*
X148731521Y-124187823D01*
X148754955Y-124021088D01*
X148755249Y-124000000D01*
X148753283Y-123982468D01*
X148737266Y-123839672D01*
X148737265Y-123839669D01*
X148736481Y-123832676D01*
X148681108Y-123673668D01*
X148619646Y-123575308D01*
X148600500Y-123508538D01*
X148600500Y-120947619D01*
X148601578Y-120931173D01*
X148604604Y-120908188D01*
X148605682Y-120900000D01*
X148585044Y-120743238D01*
X148524536Y-120597159D01*
X148483161Y-120543238D01*
X148477307Y-120535609D01*
X148433305Y-120478264D01*
X148428282Y-120471718D01*
X148403328Y-120452570D01*
X148390938Y-120441703D01*
X144637405Y-116688170D01*
X144603379Y-116625858D01*
X144600500Y-116599075D01*
X144600500Y-112890475D01*
X144621551Y-112820749D01*
X144671731Y-112745223D01*
X144731521Y-112587823D01*
X144754955Y-112421088D01*
X144755249Y-112400000D01*
X144753283Y-112382468D01*
X144737266Y-112239672D01*
X144737265Y-112239669D01*
X144736481Y-112232676D01*
X144681108Y-112073668D01*
X144619646Y-111975308D01*
X144600500Y-111908538D01*
X144600500Y-110424754D01*
X145644967Y-110424754D01*
X145658796Y-110635749D01*
X145660217Y-110641345D01*
X145660218Y-110641350D01*
X145682784Y-110730200D01*
X145710845Y-110840690D01*
X145799369Y-111032714D01*
X145921405Y-111205391D01*
X146072865Y-111352937D01*
X146077661Y-111356142D01*
X146077664Y-111356144D01*
X146220936Y-111451875D01*
X146248677Y-111470411D01*
X146253985Y-111472692D01*
X146253986Y-111472692D01*
X146437650Y-111551600D01*
X146437653Y-111551601D01*
X146442953Y-111553878D01*
X146448582Y-111555152D01*
X146448583Y-111555152D01*
X146643550Y-111599269D01*
X146643553Y-111599269D01*
X146649186Y-111600544D01*
X146654957Y-111600771D01*
X146654959Y-111600771D01*
X146716989Y-111603208D01*
X146860470Y-111608846D01*
X146866179Y-111608018D01*
X146866183Y-111608018D01*
X147064015Y-111579333D01*
X147064019Y-111579332D01*
X147069730Y-111578504D01*
X147148987Y-111551600D01*
X147264483Y-111512395D01*
X147264488Y-111512393D01*
X147269955Y-111510537D01*
X147274998Y-111507713D01*
X147449395Y-111410046D01*
X147449399Y-111410043D01*
X147454442Y-111407219D01*
X147617012Y-111272012D01*
X147752219Y-111109442D01*
X147755043Y-111104399D01*
X147755046Y-111104395D01*
X147852713Y-110929998D01*
X147852714Y-110929996D01*
X147855537Y-110924955D01*
X147857393Y-110919488D01*
X147857395Y-110919483D01*
X147921647Y-110730200D01*
X147923504Y-110724730D01*
X147953846Y-110515470D01*
X147955429Y-110455000D01*
X147936081Y-110244440D01*
X147878686Y-110040931D01*
X147867553Y-110018354D01*
X147787719Y-109856469D01*
X147785165Y-109851290D01*
X147679242Y-109709442D01*
X147662104Y-109686491D01*
X147662103Y-109686490D01*
X147658651Y-109681867D01*
X147503381Y-109538337D01*
X147324554Y-109425505D01*
X147128160Y-109347152D01*
X147122503Y-109346027D01*
X147122497Y-109346025D01*
X146925234Y-109306788D01*
X146862324Y-109273881D01*
X146827192Y-109212186D01*
X146830992Y-109141291D01*
X146872517Y-109083705D01*
X146931734Y-109058513D01*
X147064015Y-109039333D01*
X147064019Y-109039332D01*
X147069730Y-109038504D01*
X147148987Y-109011600D01*
X147264483Y-108972395D01*
X147264488Y-108972393D01*
X147269955Y-108970537D01*
X147274998Y-108967713D01*
X147449395Y-108870046D01*
X147449399Y-108870043D01*
X147454442Y-108867219D01*
X147617012Y-108732012D01*
X147752219Y-108569442D01*
X147755043Y-108564399D01*
X147755046Y-108564395D01*
X147852713Y-108389998D01*
X147852714Y-108389996D01*
X147855537Y-108384955D01*
X147857393Y-108379488D01*
X147857395Y-108379483D01*
X147910942Y-108221736D01*
X147923504Y-108184730D01*
X147929663Y-108142257D01*
X147953314Y-107979140D01*
X147953314Y-107979138D01*
X147953846Y-107975470D01*
X147955429Y-107915000D01*
X147936081Y-107704440D01*
X147929983Y-107682816D01*
X147885970Y-107526760D01*
X147878686Y-107500931D01*
X147867553Y-107478354D01*
X147787719Y-107316469D01*
X147785165Y-107311290D01*
X147658651Y-107141867D01*
X147503381Y-106998337D01*
X147324554Y-106885505D01*
X147128160Y-106807152D01*
X147122503Y-106806027D01*
X147122497Y-106806025D01*
X146966916Y-106775079D01*
X146904006Y-106742172D01*
X146868874Y-106680477D01*
X146872674Y-106609582D01*
X146914199Y-106551996D01*
X146980266Y-106526002D01*
X146991497Y-106525500D01*
X147694646Y-106525500D01*
X147698350Y-106525059D01*
X147698353Y-106525059D01*
X147705746Y-106524179D01*
X147720846Y-106522382D01*
X147823153Y-106476939D01*
X147902241Y-106397713D01*
X147916704Y-106365000D01*
X147943675Y-106303992D01*
X147947506Y-106295327D01*
X147950500Y-106269646D01*
X147950500Y-104480354D01*
X147947382Y-104454154D01*
X147901939Y-104351847D01*
X147822713Y-104272759D01*
X147812076Y-104268056D01*
X147812074Y-104268055D01*
X147752538Y-104241735D01*
X147720327Y-104227494D01*
X147694646Y-104224500D01*
X145905354Y-104224500D01*
X145901650Y-104224941D01*
X145901647Y-104224941D01*
X145894254Y-104225821D01*
X145879154Y-104227618D01*
X145776847Y-104273061D01*
X145697759Y-104352287D01*
X145652494Y-104454673D01*
X145649500Y-104480354D01*
X145649500Y-106269646D01*
X145652618Y-106295846D01*
X145656456Y-106304486D01*
X145656456Y-106304487D01*
X145675345Y-106347012D01*
X145698061Y-106398153D01*
X145777287Y-106477241D01*
X145787924Y-106481944D01*
X145787926Y-106481945D01*
X145847462Y-106508265D01*
X145879673Y-106522506D01*
X145905354Y-106525500D01*
X146614988Y-106525500D01*
X146683109Y-106545502D01*
X146729602Y-106599158D01*
X146739706Y-106669432D01*
X146710212Y-106734012D01*
X146650486Y-106772396D01*
X146636326Y-106775680D01*
X146506650Y-106797962D01*
X146506649Y-106797962D01*
X146500953Y-106798941D01*
X146302575Y-106872127D01*
X146297614Y-106875079D01*
X146297613Y-106875079D01*
X146246028Y-106905769D01*
X146120856Y-106980238D01*
X145961881Y-107119655D01*
X145830976Y-107285708D01*
X145828287Y-107290819D01*
X145828285Y-107290822D01*
X145788369Y-107366691D01*
X145732523Y-107472836D01*
X145669820Y-107674773D01*
X145644967Y-107884754D01*
X145658796Y-108095749D01*
X145660217Y-108101345D01*
X145660218Y-108101350D01*
X145707239Y-108286491D01*
X145710845Y-108300690D01*
X145799369Y-108492714D01*
X145921405Y-108665391D01*
X146072865Y-108812937D01*
X146077661Y-108816142D01*
X146077664Y-108816144D01*
X146220936Y-108911875D01*
X146248677Y-108930411D01*
X146253985Y-108932692D01*
X146253986Y-108932692D01*
X146437650Y-109011600D01*
X146437653Y-109011601D01*
X146442953Y-109013878D01*
X146448582Y-109015152D01*
X146448583Y-109015152D01*
X146643550Y-109059269D01*
X146643553Y-109059269D01*
X146649186Y-109060544D01*
X146654958Y-109060771D01*
X146660687Y-109061525D01*
X146660327Y-109064257D01*
X146716604Y-109083216D01*
X146760950Y-109138659D01*
X146768282Y-109209276D01*
X146736271Y-109272647D01*
X146675081Y-109308651D01*
X146665704Y-109310632D01*
X146506650Y-109337962D01*
X146506649Y-109337962D01*
X146500953Y-109338941D01*
X146302575Y-109412127D01*
X146297614Y-109415079D01*
X146297613Y-109415079D01*
X146280089Y-109425505D01*
X146120856Y-109520238D01*
X145961881Y-109659655D01*
X145830976Y-109825708D01*
X145828287Y-109830819D01*
X145828285Y-109830822D01*
X145814792Y-109856469D01*
X145732523Y-110012836D01*
X145669820Y-110214773D01*
X145644967Y-110424754D01*
X144600500Y-110424754D01*
X144600500Y-103300000D01*
X146194318Y-103300000D01*
X146214956Y-103456762D01*
X146275464Y-103602841D01*
X146371718Y-103728282D01*
X146497159Y-103824536D01*
X146643238Y-103885044D01*
X146800000Y-103905682D01*
X146808188Y-103904604D01*
X146948574Y-103886122D01*
X146956762Y-103885044D01*
X147102841Y-103824536D01*
X147165395Y-103776537D01*
X147231616Y-103750937D01*
X147242099Y-103750500D01*
X148649897Y-103750500D01*
X148718018Y-103770502D01*
X148749860Y-103799796D01*
X148771718Y-103828282D01*
X148897159Y-103924536D01*
X149043238Y-103985044D01*
X149200000Y-104005682D01*
X149208188Y-104004604D01*
X149348574Y-103986122D01*
X149356762Y-103985044D01*
X149502841Y-103924536D01*
X149628282Y-103828282D01*
X149724536Y-103702841D01*
X149785044Y-103556762D01*
X149805682Y-103400000D01*
X149785044Y-103243238D01*
X149724536Y-103097159D01*
X149628282Y-102971718D01*
X149597366Y-102947995D01*
X149510440Y-102881295D01*
X149502841Y-102875464D01*
X149356762Y-102814956D01*
X149200000Y-102794318D01*
X149043238Y-102814956D01*
X148982995Y-102839910D01*
X148934779Y-102849500D01*
X147242099Y-102849500D01*
X147173978Y-102829498D01*
X147165395Y-102823463D01*
X147127412Y-102794318D01*
X147102841Y-102775464D01*
X146956762Y-102714956D01*
X146800000Y-102694318D01*
X146643238Y-102714956D01*
X146497159Y-102775464D01*
X146371718Y-102871718D01*
X146366695Y-102878264D01*
X146343941Y-102907918D01*
X146275464Y-102997159D01*
X146214956Y-103143238D01*
X146194318Y-103300000D01*
X144600500Y-103300000D01*
X144600500Y-102747619D01*
X144601578Y-102731173D01*
X144604604Y-102708188D01*
X144605682Y-102700000D01*
X144585044Y-102543238D01*
X144524536Y-102397159D01*
X144484777Y-102345344D01*
X144428282Y-102271718D01*
X144403328Y-102252570D01*
X144390938Y-102241703D01*
X138558297Y-96409062D01*
X138547429Y-96396671D01*
X138533305Y-96378264D01*
X138528282Y-96371718D01*
X138402841Y-96275464D01*
X138256762Y-96214956D01*
X138170079Y-96203544D01*
X138139361Y-96199500D01*
X138108188Y-96195396D01*
X138100000Y-96194318D01*
X138091812Y-96195396D01*
X138068827Y-96198422D01*
X138052381Y-96199500D01*
X130247619Y-96199500D01*
X130231173Y-96198422D01*
X130208188Y-96195396D01*
X130200000Y-96194318D01*
X130191812Y-96195396D01*
X130160639Y-96199500D01*
X130129922Y-96203544D01*
X130043238Y-96214956D01*
X129897159Y-96275464D01*
X129771718Y-96371718D01*
X129766695Y-96378264D01*
X129752571Y-96396671D01*
X129741703Y-96409062D01*
X124125887Y-102024878D01*
X124063575Y-102058904D01*
X124049961Y-102061093D01*
X124044828Y-102061632D01*
X124044823Y-102061633D01*
X124037821Y-102062369D01*
X124031155Y-102064638D01*
X124031152Y-102064639D01*
X123885098Y-102114360D01*
X123885095Y-102114361D01*
X123878431Y-102116630D01*
X123872436Y-102120318D01*
X123872432Y-102120320D01*
X123741021Y-102201165D01*
X123741019Y-102201167D01*
X123735022Y-102204856D01*
X123729989Y-102209785D01*
X123660061Y-102278264D01*
X123614724Y-102322661D01*
X123523515Y-102464190D01*
X123465927Y-102622409D01*
X123444825Y-102789455D01*
X123445512Y-102796462D01*
X123445512Y-102796465D01*
X123448567Y-102827618D01*
X123461255Y-102957025D01*
X123514402Y-103116791D01*
X123518049Y-103122813D01*
X123518050Y-103122815D01*
X123581276Y-103227213D01*
X123599500Y-103292484D01*
X123599500Y-112009201D01*
X123579413Y-112077453D01*
X123523515Y-112164190D01*
X123521105Y-112170810D01*
X123521104Y-112170813D01*
X123496041Y-112239672D01*
X123465927Y-112322409D01*
X123465045Y-112329394D01*
X123465044Y-112329397D01*
X123462307Y-112351067D01*
X123433925Y-112416143D01*
X123426395Y-112424370D01*
X121709062Y-114141703D01*
X121696672Y-114152570D01*
X121671718Y-114171718D01*
X121647550Y-114203215D01*
X121575464Y-114297159D01*
X121514956Y-114443238D01*
X121494318Y-114600000D01*
X121495396Y-114608188D01*
X121498422Y-114631173D01*
X121499500Y-114647619D01*
X121499500Y-135309201D01*
X121479413Y-135377453D01*
X121423515Y-135464190D01*
X121421105Y-135470810D01*
X121421104Y-135470813D01*
X121407040Y-135509453D01*
X121365927Y-135622409D01*
X121344825Y-135789455D01*
X114568946Y-135789455D01*
X114575237Y-127201798D01*
X114588554Y-109024754D01*
X115744967Y-109024754D01*
X115758796Y-109235749D01*
X115760217Y-109241345D01*
X115760218Y-109241350D01*
X115806445Y-109423366D01*
X115810845Y-109440690D01*
X115899369Y-109632714D01*
X116021405Y-109805391D01*
X116172865Y-109952937D01*
X116177661Y-109956142D01*
X116177664Y-109956144D01*
X116262510Y-110012836D01*
X116348677Y-110070411D01*
X116353985Y-110072692D01*
X116353986Y-110072692D01*
X116537650Y-110151600D01*
X116537653Y-110151601D01*
X116542953Y-110153878D01*
X116548582Y-110155152D01*
X116548583Y-110155152D01*
X116743550Y-110199269D01*
X116743553Y-110199269D01*
X116749186Y-110200544D01*
X116754957Y-110200771D01*
X116754959Y-110200771D01*
X116816989Y-110203208D01*
X116960470Y-110208846D01*
X116966179Y-110208018D01*
X116966183Y-110208018D01*
X117164015Y-110179333D01*
X117164019Y-110179332D01*
X117169730Y-110178504D01*
X117248987Y-110151600D01*
X117364483Y-110112395D01*
X117364488Y-110112393D01*
X117369955Y-110110537D01*
X117374998Y-110107713D01*
X117549395Y-110010046D01*
X117549399Y-110010043D01*
X117554442Y-110007219D01*
X117717012Y-109872012D01*
X117852219Y-109709442D01*
X117855043Y-109704399D01*
X117855046Y-109704395D01*
X117952713Y-109529998D01*
X117952714Y-109529996D01*
X117955537Y-109524955D01*
X117957393Y-109519488D01*
X117957395Y-109519483D01*
X118021647Y-109330200D01*
X118023504Y-109324730D01*
X118025836Y-109308651D01*
X118053314Y-109119140D01*
X118053314Y-109119138D01*
X118053846Y-109115470D01*
X118055429Y-109055000D01*
X118036081Y-108844440D01*
X117978686Y-108640931D01*
X117967553Y-108618354D01*
X117887719Y-108456469D01*
X117885165Y-108451290D01*
X117758651Y-108281867D01*
X117603381Y-108138337D01*
X117570014Y-108117284D01*
X117429434Y-108028584D01*
X117429433Y-108028584D01*
X117424554Y-108025505D01*
X117228160Y-107947152D01*
X117222500Y-107946026D01*
X117222496Y-107946025D01*
X117023764Y-107906495D01*
X116960854Y-107873587D01*
X116925722Y-107811892D01*
X116929522Y-107740998D01*
X116971048Y-107683412D01*
X117030265Y-107658220D01*
X117163898Y-107638844D01*
X117175081Y-107636160D01*
X117364283Y-107571934D01*
X117374786Y-107567258D01*
X117549124Y-107469625D01*
X117558596Y-107463115D01*
X117712219Y-107335348D01*
X117720348Y-107327219D01*
X117848115Y-107173596D01*
X117854625Y-107164124D01*
X117952258Y-106989786D01*
X117956934Y-106979283D01*
X118021160Y-106790081D01*
X118023845Y-106778898D01*
X118037759Y-106682929D01*
X118035773Y-106668993D01*
X118022205Y-106665000D01*
X115775397Y-106665000D01*
X115760357Y-106669416D01*
X115758305Y-106680603D01*
X115758914Y-106689901D01*
X115760715Y-106701273D01*
X115809896Y-106894923D01*
X115813737Y-106905769D01*
X115897386Y-107087218D01*
X115903137Y-107097179D01*
X116018455Y-107260350D01*
X116025921Y-107269092D01*
X116169047Y-107408520D01*
X116177981Y-107415754D01*
X116344112Y-107526760D01*
X116354225Y-107532251D01*
X116537805Y-107611123D01*
X116548738Y-107614675D01*
X116743615Y-107658771D01*
X116760753Y-107661027D01*
X116760480Y-107663100D01*
X116818986Y-107682816D01*
X116863326Y-107738264D01*
X116870650Y-107808882D01*
X116838633Y-107872249D01*
X116777439Y-107908247D01*
X116768081Y-107910224D01*
X116600953Y-107938941D01*
X116402575Y-108012127D01*
X116397614Y-108015079D01*
X116397613Y-108015079D01*
X116380089Y-108025505D01*
X116220856Y-108120238D01*
X116061881Y-108259655D01*
X115930976Y-108425708D01*
X115928287Y-108430819D01*
X115928285Y-108430822D01*
X115914792Y-108456469D01*
X115832523Y-108612836D01*
X115814954Y-108669418D01*
X115771641Y-108808910D01*
X115769820Y-108814773D01*
X115744967Y-109024754D01*
X114588554Y-109024754D01*
X114591598Y-104869646D01*
X115749500Y-104869646D01*
X115752618Y-104895846D01*
X115798061Y-104998153D01*
X115877287Y-105077241D01*
X115887924Y-105081944D01*
X115887926Y-105081945D01*
X115947462Y-105108265D01*
X115979673Y-105122506D01*
X116005354Y-105125500D01*
X116717938Y-105125500D01*
X116786059Y-105145502D01*
X116832552Y-105199158D01*
X116842656Y-105269432D01*
X116813162Y-105334012D01*
X116753436Y-105372396D01*
X116739276Y-105375680D01*
X116606780Y-105398447D01*
X116595660Y-105401427D01*
X116408207Y-105470582D01*
X116397829Y-105475532D01*
X116226119Y-105577688D01*
X116216807Y-105584453D01*
X116066587Y-105716194D01*
X116058670Y-105724537D01*
X115934975Y-105881443D01*
X115928704Y-105891100D01*
X115835679Y-106067912D01*
X115831273Y-106078549D01*
X115772025Y-106269356D01*
X115769632Y-106280614D01*
X115761773Y-106347012D01*
X115764215Y-106361431D01*
X115776957Y-106365000D01*
X118023029Y-106365000D01*
X118037574Y-106360729D01*
X118039637Y-106348595D01*
X118036117Y-106310285D01*
X118034020Y-106298971D01*
X117979785Y-106106670D01*
X117975663Y-106095931D01*
X117887292Y-105916733D01*
X117881282Y-105906925D01*
X117761731Y-105746827D01*
X117754041Y-105738287D01*
X117607315Y-105602654D01*
X117598190Y-105595653D01*
X117429209Y-105489034D01*
X117418965Y-105483814D01*
X117233385Y-105409775D01*
X117222347Y-105406505D01*
X117064356Y-105375079D01*
X117001446Y-105342172D01*
X116966314Y-105280477D01*
X116970114Y-105209582D01*
X117011640Y-105151996D01*
X117077706Y-105126002D01*
X117088937Y-105125500D01*
X117794646Y-105125500D01*
X117798350Y-105125059D01*
X117798353Y-105125059D01*
X117805746Y-105124179D01*
X117820846Y-105122382D01*
X117923153Y-105076939D01*
X118002241Y-104997713D01*
X118047506Y-104895327D01*
X118050500Y-104869646D01*
X118050500Y-103080354D01*
X118047382Y-103054154D01*
X118001939Y-102951847D01*
X117922713Y-102872759D01*
X117912076Y-102868056D01*
X117912074Y-102868055D01*
X117848409Y-102839909D01*
X117820327Y-102827494D01*
X117794646Y-102824500D01*
X116005354Y-102824500D01*
X116001650Y-102824941D01*
X116001647Y-102824941D01*
X115994254Y-102825821D01*
X115979154Y-102827618D01*
X115876847Y-102873061D01*
X115797759Y-102952287D01*
X115793056Y-102962924D01*
X115793055Y-102962926D01*
X115782048Y-102987823D01*
X115752494Y-103054673D01*
X115749500Y-103080354D01*
X115749500Y-104869646D01*
X114591598Y-104869646D01*
X114595085Y-100109754D01*
X115744967Y-100109754D01*
X115758796Y-100320749D01*
X115760217Y-100326345D01*
X115760218Y-100326350D01*
X115782784Y-100415200D01*
X115810845Y-100525690D01*
X115899369Y-100717714D01*
X116021405Y-100890391D01*
X116172865Y-101037937D01*
X116177661Y-101041142D01*
X116177664Y-101041144D01*
X116320936Y-101136875D01*
X116348677Y-101155411D01*
X116353985Y-101157692D01*
X116353986Y-101157692D01*
X116537650Y-101236600D01*
X116537653Y-101236601D01*
X116542953Y-101238878D01*
X116548582Y-101240152D01*
X116548583Y-101240152D01*
X116743550Y-101284269D01*
X116743553Y-101284269D01*
X116749186Y-101285544D01*
X116754957Y-101285771D01*
X116754959Y-101285771D01*
X116816989Y-101288208D01*
X116960470Y-101293846D01*
X116966179Y-101293018D01*
X116966183Y-101293018D01*
X117164015Y-101264333D01*
X117164019Y-101264332D01*
X117169730Y-101263504D01*
X117248987Y-101236600D01*
X117364483Y-101197395D01*
X117364488Y-101197393D01*
X117369955Y-101195537D01*
X117374998Y-101192713D01*
X117549395Y-101095046D01*
X117549399Y-101095043D01*
X117554442Y-101092219D01*
X117717012Y-100957012D01*
X117852219Y-100794442D01*
X117855043Y-100789399D01*
X117855046Y-100789395D01*
X117952713Y-100614998D01*
X117952714Y-100614996D01*
X117955537Y-100609955D01*
X117957393Y-100604488D01*
X117957395Y-100604483D01*
X118021647Y-100415200D01*
X118023504Y-100409730D01*
X118053846Y-100200470D01*
X118055429Y-100140000D01*
X118036081Y-99929440D01*
X117978686Y-99725931D01*
X117967553Y-99703354D01*
X117887719Y-99541469D01*
X117885165Y-99536290D01*
X117758651Y-99366867D01*
X117603381Y-99223337D01*
X117424554Y-99110505D01*
X117228160Y-99032152D01*
X117222503Y-99031027D01*
X117222497Y-99031025D01*
X117025234Y-98991788D01*
X116962324Y-98958881D01*
X116927192Y-98897186D01*
X116930992Y-98826291D01*
X116972517Y-98768705D01*
X117031734Y-98743513D01*
X117164015Y-98724333D01*
X117164019Y-98724332D01*
X117169730Y-98723504D01*
X117248987Y-98696600D01*
X117364483Y-98657395D01*
X117364488Y-98657393D01*
X117369955Y-98655537D01*
X117374998Y-98652713D01*
X117549395Y-98555046D01*
X117549399Y-98555043D01*
X117554442Y-98552219D01*
X117717012Y-98417012D01*
X117852219Y-98254442D01*
X117855043Y-98249399D01*
X117855046Y-98249395D01*
X117952713Y-98074998D01*
X117952714Y-98074996D01*
X117955537Y-98069955D01*
X117957393Y-98064488D01*
X117957395Y-98064483D01*
X118021647Y-97875200D01*
X118023504Y-97869730D01*
X118036767Y-97778264D01*
X118053314Y-97664140D01*
X118053314Y-97664138D01*
X118053846Y-97660470D01*
X118055429Y-97600000D01*
X118036081Y-97389440D01*
X117978686Y-97185931D01*
X117967553Y-97163354D01*
X117887719Y-97001469D01*
X117885165Y-96996290D01*
X117758651Y-96826867D01*
X117603381Y-96683337D01*
X117424554Y-96570505D01*
X117228160Y-96492152D01*
X117222503Y-96491027D01*
X117222497Y-96491025D01*
X117066916Y-96460079D01*
X117004006Y-96427172D01*
X116968874Y-96365477D01*
X116972674Y-96294582D01*
X117014199Y-96236996D01*
X117080266Y-96211002D01*
X117091497Y-96210500D01*
X117794646Y-96210500D01*
X117798350Y-96210059D01*
X117798353Y-96210059D01*
X117805746Y-96209179D01*
X117820846Y-96207382D01*
X117847831Y-96195396D01*
X117912518Y-96166663D01*
X117923153Y-96161939D01*
X118002241Y-96082713D01*
X118047506Y-95980327D01*
X118050500Y-95954646D01*
X118050500Y-95194646D01*
X130224500Y-95194646D01*
X130227618Y-95220846D01*
X130273061Y-95323153D01*
X130281294Y-95331372D01*
X130281295Y-95331373D01*
X130307363Y-95357395D01*
X130352287Y-95402241D01*
X130362924Y-95406944D01*
X130362926Y-95406945D01*
X130400382Y-95423504D01*
X130454673Y-95447506D01*
X130480354Y-95450500D01*
X132269646Y-95450500D01*
X132273350Y-95450059D01*
X132273353Y-95450059D01*
X132280746Y-95449179D01*
X132295846Y-95447382D01*
X132398153Y-95401939D01*
X132477241Y-95322713D01*
X132522506Y-95220327D01*
X132525500Y-95194646D01*
X132525500Y-94510673D01*
X132545502Y-94442552D01*
X132599158Y-94396059D01*
X132669432Y-94385955D01*
X132734012Y-94415449D01*
X132772396Y-94475175D01*
X132773658Y-94480784D01*
X132773796Y-94480749D01*
X132825845Y-94685690D01*
X132914369Y-94877714D01*
X133036405Y-95050391D01*
X133040539Y-95054418D01*
X133180727Y-95190983D01*
X133187865Y-95197937D01*
X133192661Y-95201142D01*
X133192664Y-95201144D01*
X133335936Y-95296875D01*
X133363677Y-95315411D01*
X133368985Y-95317692D01*
X133368986Y-95317692D01*
X133552650Y-95396600D01*
X133552653Y-95396601D01*
X133557953Y-95398878D01*
X133563582Y-95400152D01*
X133563583Y-95400152D01*
X133758550Y-95444269D01*
X133758553Y-95444269D01*
X133764186Y-95445544D01*
X133769957Y-95445771D01*
X133769959Y-95445771D01*
X133831989Y-95448208D01*
X133975470Y-95453846D01*
X133981179Y-95453018D01*
X133981183Y-95453018D01*
X134179015Y-95424333D01*
X134179019Y-95424332D01*
X134184730Y-95423504D01*
X134271579Y-95394023D01*
X134379483Y-95357395D01*
X134379488Y-95357393D01*
X134384955Y-95355537D01*
X134428103Y-95331373D01*
X134564395Y-95255046D01*
X134564399Y-95255043D01*
X134569442Y-95252219D01*
X134732012Y-95117012D01*
X134867219Y-94954442D01*
X134870043Y-94949399D01*
X134870046Y-94949395D01*
X134967713Y-94774998D01*
X134967714Y-94774996D01*
X134970537Y-94769955D01*
X134972393Y-94764488D01*
X134972395Y-94764483D01*
X135036647Y-94575200D01*
X135038504Y-94569730D01*
X135051406Y-94480749D01*
X135060090Y-94420860D01*
X135089660Y-94356315D01*
X135149432Y-94318003D01*
X135220429Y-94318087D01*
X135280109Y-94356542D01*
X135309525Y-94421158D01*
X135310515Y-94430695D01*
X135313796Y-94480749D01*
X135315217Y-94486345D01*
X135315218Y-94486350D01*
X135337784Y-94575200D01*
X135365845Y-94685690D01*
X135454369Y-94877714D01*
X135576405Y-95050391D01*
X135580539Y-95054418D01*
X135720727Y-95190983D01*
X135727865Y-95197937D01*
X135732661Y-95201142D01*
X135732664Y-95201144D01*
X135875936Y-95296875D01*
X135903677Y-95315411D01*
X135908985Y-95317692D01*
X135908986Y-95317692D01*
X136092650Y-95396600D01*
X136092653Y-95396601D01*
X136097953Y-95398878D01*
X136103582Y-95400152D01*
X136103583Y-95400152D01*
X136298550Y-95444269D01*
X136298553Y-95444269D01*
X136304186Y-95445544D01*
X136309957Y-95445771D01*
X136309959Y-95445771D01*
X136371989Y-95448208D01*
X136515470Y-95453846D01*
X136521179Y-95453018D01*
X136521183Y-95453018D01*
X136719015Y-95424333D01*
X136719019Y-95424332D01*
X136724730Y-95423504D01*
X136811579Y-95394023D01*
X136919483Y-95357395D01*
X136919488Y-95357393D01*
X136924955Y-95355537D01*
X136968103Y-95331373D01*
X137104395Y-95255046D01*
X137104399Y-95255043D01*
X137109442Y-95252219D01*
X137272012Y-95117012D01*
X137407219Y-94954442D01*
X137410043Y-94949399D01*
X137410046Y-94949395D01*
X137507713Y-94774998D01*
X137507714Y-94774996D01*
X137510537Y-94769955D01*
X137512393Y-94764488D01*
X137512395Y-94764483D01*
X137576647Y-94575200D01*
X137578504Y-94569730D01*
X137592243Y-94474981D01*
X137608314Y-94364140D01*
X137608314Y-94364138D01*
X137608846Y-94360470D01*
X137610429Y-94300000D01*
X137591081Y-94089440D01*
X137533686Y-93885931D01*
X137522553Y-93863354D01*
X137442719Y-93701469D01*
X137440165Y-93696290D01*
X137313651Y-93526867D01*
X137186236Y-93409086D01*
X137162622Y-93387257D01*
X137162620Y-93387255D01*
X137158381Y-93383337D01*
X137125014Y-93362284D01*
X136984434Y-93273584D01*
X136984433Y-93273584D01*
X136979554Y-93270505D01*
X136783160Y-93192152D01*
X136777503Y-93191027D01*
X136777497Y-93191025D01*
X136581442Y-93152028D01*
X136581440Y-93152028D01*
X136575775Y-93150901D01*
X136570000Y-93150825D01*
X136569996Y-93150825D01*
X136463976Y-93149437D01*
X136364346Y-93148133D01*
X136358649Y-93149112D01*
X136358648Y-93149112D01*
X136161650Y-93182962D01*
X136161649Y-93182962D01*
X136155953Y-93183941D01*
X135957575Y-93257127D01*
X135952614Y-93260079D01*
X135952613Y-93260079D01*
X135906553Y-93287482D01*
X135775856Y-93365238D01*
X135616881Y-93504655D01*
X135485976Y-93670708D01*
X135483287Y-93675819D01*
X135483285Y-93675822D01*
X135469792Y-93701469D01*
X135387523Y-93857836D01*
X135324820Y-94059773D01*
X135324141Y-94065510D01*
X135310088Y-94184239D01*
X135282217Y-94249537D01*
X135223469Y-94289401D01*
X135152494Y-94291174D01*
X135091828Y-94254295D01*
X135060730Y-94190471D01*
X135059490Y-94180958D01*
X135058400Y-94169086D01*
X135051081Y-94089440D01*
X134993686Y-93885931D01*
X134982553Y-93863354D01*
X134902719Y-93701469D01*
X134900165Y-93696290D01*
X134773651Y-93526867D01*
X134646236Y-93409086D01*
X134622622Y-93387257D01*
X134622620Y-93387255D01*
X134618381Y-93383337D01*
X134585014Y-93362284D01*
X134444434Y-93273584D01*
X134444433Y-93273584D01*
X134439554Y-93270505D01*
X134243160Y-93192152D01*
X134237503Y-93191027D01*
X134237497Y-93191025D01*
X134041442Y-93152028D01*
X134041440Y-93152028D01*
X134035775Y-93150901D01*
X134030000Y-93150825D01*
X134029996Y-93150825D01*
X133923976Y-93149437D01*
X133824346Y-93148133D01*
X133818649Y-93149112D01*
X133818648Y-93149112D01*
X133621650Y-93182962D01*
X133621649Y-93182962D01*
X133615953Y-93183941D01*
X133417575Y-93257127D01*
X133412614Y-93260079D01*
X133412613Y-93260079D01*
X133366553Y-93287482D01*
X133235856Y-93365238D01*
X133076881Y-93504655D01*
X132945976Y-93670708D01*
X132943287Y-93675819D01*
X132943285Y-93675822D01*
X132929792Y-93701469D01*
X132847523Y-93857836D01*
X132784820Y-94059773D01*
X132784141Y-94065510D01*
X132776627Y-94128995D01*
X132748756Y-94194292D01*
X132690008Y-94234156D01*
X132619034Y-94235930D01*
X132558367Y-94199051D01*
X132527269Y-94135227D01*
X132525500Y-94114185D01*
X132525500Y-93405354D01*
X132522382Y-93379154D01*
X132476939Y-93276847D01*
X132468444Y-93268366D01*
X132405945Y-93205977D01*
X132397713Y-93197759D01*
X132387076Y-93193056D01*
X132387074Y-93193055D01*
X132327538Y-93166735D01*
X132295327Y-93152494D01*
X132269646Y-93149500D01*
X130480354Y-93149500D01*
X130476650Y-93149941D01*
X130476647Y-93149941D01*
X130469254Y-93150821D01*
X130454154Y-93152618D01*
X130445514Y-93156456D01*
X130445513Y-93156456D01*
X130379131Y-93185942D01*
X130351847Y-93198061D01*
X130272759Y-93277287D01*
X130227494Y-93379673D01*
X130224500Y-93405354D01*
X130224500Y-95194646D01*
X118050500Y-95194646D01*
X118050500Y-94165354D01*
X118047382Y-94139154D01*
X118022829Y-94083876D01*
X118006663Y-94047482D01*
X118001939Y-94036847D01*
X117922713Y-93957759D01*
X117912076Y-93953056D01*
X117912074Y-93953055D01*
X117852538Y-93926735D01*
X117820327Y-93912494D01*
X117794646Y-93909500D01*
X116005354Y-93909500D01*
X116001650Y-93909941D01*
X116001647Y-93909941D01*
X115994254Y-93910821D01*
X115979154Y-93912618D01*
X115876847Y-93958061D01*
X115797759Y-94037287D01*
X115793056Y-94047924D01*
X115793055Y-94047926D01*
X115777162Y-94083876D01*
X115752494Y-94139673D01*
X115749500Y-94165354D01*
X115749500Y-95954646D01*
X115752618Y-95980846D01*
X115798061Y-96083153D01*
X115877287Y-96162241D01*
X115887924Y-96166944D01*
X115887926Y-96166945D01*
X115947462Y-96193265D01*
X115979673Y-96207506D01*
X116005354Y-96210500D01*
X116714988Y-96210500D01*
X116783109Y-96230502D01*
X116829602Y-96284158D01*
X116839706Y-96354432D01*
X116810212Y-96419012D01*
X116750486Y-96457396D01*
X116736326Y-96460680D01*
X116606650Y-96482962D01*
X116606649Y-96482962D01*
X116600953Y-96483941D01*
X116402575Y-96557127D01*
X116397614Y-96560079D01*
X116397613Y-96560079D01*
X116380089Y-96570505D01*
X116220856Y-96665238D01*
X116061881Y-96804655D01*
X115930976Y-96970708D01*
X115928287Y-96975819D01*
X115928285Y-96975822D01*
X115914792Y-97001469D01*
X115832523Y-97157836D01*
X115769820Y-97359773D01*
X115744967Y-97569754D01*
X115758796Y-97780749D01*
X115760217Y-97786345D01*
X115760218Y-97786350D01*
X115809424Y-97980095D01*
X115810845Y-97985690D01*
X115899369Y-98177714D01*
X116021405Y-98350391D01*
X116172865Y-98497937D01*
X116177661Y-98501142D01*
X116177664Y-98501144D01*
X116320936Y-98596875D01*
X116348677Y-98615411D01*
X116353985Y-98617692D01*
X116353986Y-98617692D01*
X116537650Y-98696600D01*
X116537653Y-98696601D01*
X116542953Y-98698878D01*
X116548582Y-98700152D01*
X116548583Y-98700152D01*
X116743550Y-98744269D01*
X116743553Y-98744269D01*
X116749186Y-98745544D01*
X116754958Y-98745771D01*
X116760687Y-98746525D01*
X116760327Y-98749257D01*
X116816604Y-98768216D01*
X116860950Y-98823659D01*
X116868282Y-98894276D01*
X116836271Y-98957647D01*
X116775081Y-98993651D01*
X116765704Y-98995632D01*
X116606650Y-99022962D01*
X116606649Y-99022962D01*
X116600953Y-99023941D01*
X116402575Y-99097127D01*
X116397614Y-99100079D01*
X116397613Y-99100079D01*
X116380089Y-99110505D01*
X116220856Y-99205238D01*
X116061881Y-99344655D01*
X115930976Y-99510708D01*
X115928287Y-99515819D01*
X115928285Y-99515822D01*
X115914792Y-99541469D01*
X115832523Y-99697836D01*
X115769820Y-99899773D01*
X115744967Y-100109754D01*
X114595085Y-100109754D01*
X114599961Y-93453725D01*
X114599971Y-93453302D01*
X114600000Y-93453007D01*
X114600000Y-93399616D01*
X114600020Y-93372315D01*
X114600001Y-93372213D01*
X114600000Y-93372188D01*
X114600000Y-93137271D01*
X114601914Y-93115392D01*
X114602714Y-93110855D01*
X114604628Y-93100000D01*
X114602714Y-93089146D01*
X114602714Y-93078119D01*
X114603273Y-93078119D01*
X114602686Y-93065872D01*
X114613996Y-92922164D01*
X114617089Y-92902636D01*
X114626233Y-92864549D01*
X114656419Y-92738816D01*
X114662527Y-92720017D01*
X114687524Y-92659670D01*
X114726999Y-92564369D01*
X114735973Y-92546758D01*
X114824002Y-92403109D01*
X114835617Y-92387121D01*
X114945034Y-92259010D01*
X114959012Y-92245032D01*
X115003016Y-92207449D01*
X115087121Y-92135617D01*
X115103109Y-92124002D01*
X115246758Y-92035973D01*
X115264369Y-92026999D01*
X115420022Y-91962525D01*
X115438816Y-91956419D01*
X115602637Y-91917089D01*
X115622164Y-91913996D01*
X115765872Y-91902686D01*
X115778119Y-91903273D01*
X115778119Y-91902714D01*
X115789146Y-91902714D01*
X115800000Y-91904628D01*
X115815392Y-91901914D01*
X115837271Y-91900000D01*
X151874348Y-91900000D01*
X151889468Y-91900911D01*
G37*
%TD.AperFunction*%
%TD*%
M02*
