%TF.GenerationSoftware,KiCad,Pcbnew,(6.0.2)*%
%TF.CreationDate,2022-08-13T11:44:49+02:00*%
%TF.ProjectId,HM2,484d322e-6b69-4636-9164-5f7063625858,rev?*%
%TF.SameCoordinates,Original*%
%TF.FileFunction,Legend,Top*%
%TF.FilePolarity,Positive*%
%FSLAX46Y46*%
G04 Gerber Fmt 4.6, Leading zero omitted, Abs format (unit mm)*
G04 Created by KiCad (PCBNEW (6.0.2)) date 2022-08-13 11:44:49*
%MOMM*%
%LPD*%
G01*
G04 APERTURE LIST*
G04 Aperture macros list*
%AMRoundRect*
0 Rectangle with rounded corners*
0 $1 Rounding radius*
0 $2 $3 $4 $5 $6 $7 $8 $9 X,Y pos of 4 corners*
0 Add a 4 corners polygon primitive as box body*
4,1,4,$2,$3,$4,$5,$6,$7,$8,$9,$2,$3,0*
0 Add four circle primitives for the rounded corners*
1,1,$1+$1,$2,$3*
1,1,$1+$1,$4,$5*
1,1,$1+$1,$6,$7*
1,1,$1+$1,$8,$9*
0 Add four rect primitives between the rounded corners*
20,1,$1+$1,$2,$3,$4,$5,0*
20,1,$1+$1,$4,$5,$6,$7,0*
20,1,$1+$1,$6,$7,$8,$9,0*
20,1,$1+$1,$8,$9,$2,$3,0*%
G04 Aperture macros list end*
%ADD10C,0.152400*%
%ADD11C,0.120000*%
%ADD12RoundRect,0.250000X0.337500X0.475000X-0.337500X0.475000X-0.337500X-0.475000X0.337500X-0.475000X0*%
%ADD13R,1.200000X0.900000*%
%ADD14RoundRect,0.250000X-0.337500X-0.475000X0.337500X-0.475000X0.337500X0.475000X-0.337500X0.475000X0*%
%ADD15RoundRect,0.250000X0.350000X0.450000X-0.350000X0.450000X-0.350000X-0.450000X0.350000X-0.450000X0*%
%ADD16R,1.500000X0.450000*%
%ADD17RoundRect,0.150000X0.587500X0.150000X-0.587500X0.150000X-0.587500X-0.150000X0.587500X-0.150000X0*%
%ADD18RoundRect,0.150000X-0.825000X-0.150000X0.825000X-0.150000X0.825000X0.150000X-0.825000X0.150000X0*%
%ADD19RoundRect,0.250000X-0.350000X-0.450000X0.350000X-0.450000X0.350000X0.450000X-0.350000X0.450000X0*%
%ADD20R,1.700000X1.700000*%
%ADD21O,1.700000X1.700000*%
%ADD22R,0.900000X1.200000*%
%ADD23RoundRect,0.250000X1.250000X0.550000X-1.250000X0.550000X-1.250000X-0.550000X1.250000X-0.550000X0*%
%ADD24RoundRect,0.250000X1.500000X0.550000X-1.500000X0.550000X-1.500000X-0.550000X1.500000X-0.550000X0*%
%ADD25C,1.500000*%
%ADD26RoundRect,0.250000X-0.550000X1.250000X-0.550000X-1.250000X0.550000X-1.250000X0.550000X1.250000X0*%
%ADD27RoundRect,0.150000X0.825000X0.150000X-0.825000X0.150000X-0.825000X-0.150000X0.825000X-0.150000X0*%
%ADD28R,1.800000X1.800000*%
%ADD29C,1.800000*%
G04 APERTURE END LIST*
D10*
X130903619Y-104013391D02*
X130903619Y-103200591D01*
X130903619Y-103587638D02*
X131368076Y-103587638D01*
X131368076Y-104013391D02*
X131368076Y-103200591D01*
X131755123Y-104013391D02*
X131755123Y-103200591D01*
X132026057Y-103781162D01*
X132296990Y-103200591D01*
X132296990Y-104013391D01*
X132645333Y-103278000D02*
X132684038Y-103239296D01*
X132761447Y-103200591D01*
X132954971Y-103200591D01*
X133032380Y-103239296D01*
X133071085Y-103278000D01*
X133109790Y-103355410D01*
X133109790Y-103432819D01*
X133071085Y-103548934D01*
X132606628Y-104013391D01*
X133109790Y-104013391D01*
X134541866Y-103935981D02*
X134503161Y-103974686D01*
X134387047Y-104013391D01*
X134309638Y-104013391D01*
X134193523Y-103974686D01*
X134116114Y-103897276D01*
X134077409Y-103819867D01*
X134038704Y-103665048D01*
X134038704Y-103548934D01*
X134077409Y-103394115D01*
X134116114Y-103316705D01*
X134193523Y-103239296D01*
X134309638Y-103200591D01*
X134387047Y-103200591D01*
X134503161Y-103239296D01*
X134541866Y-103278000D01*
X135006323Y-104013391D02*
X134928914Y-103974686D01*
X134890209Y-103897276D01*
X134890209Y-103200591D01*
X135432076Y-104013391D02*
X135354666Y-103974686D01*
X135315961Y-103935981D01*
X135277257Y-103858572D01*
X135277257Y-103626343D01*
X135315961Y-103548934D01*
X135354666Y-103510229D01*
X135432076Y-103471524D01*
X135548190Y-103471524D01*
X135625600Y-103510229D01*
X135664304Y-103548934D01*
X135703009Y-103626343D01*
X135703009Y-103858572D01*
X135664304Y-103935981D01*
X135625600Y-103974686D01*
X135548190Y-104013391D01*
X135432076Y-104013391D01*
X136051352Y-103471524D02*
X136051352Y-104013391D01*
X136051352Y-103548934D02*
X136090057Y-103510229D01*
X136167466Y-103471524D01*
X136283580Y-103471524D01*
X136360990Y-103510229D01*
X136399695Y-103587638D01*
X136399695Y-104013391D01*
X137096380Y-103974686D02*
X137018971Y-104013391D01*
X136864152Y-104013391D01*
X136786742Y-103974686D01*
X136748038Y-103897276D01*
X136748038Y-103587638D01*
X136786742Y-103510229D01*
X136864152Y-103471524D01*
X137018971Y-103471524D01*
X137096380Y-103510229D01*
X137135085Y-103587638D01*
X137135085Y-103665048D01*
X136748038Y-103742457D01*
X133342019Y-104509199D02*
X133612952Y-105321999D01*
X133883885Y-104509199D01*
X134116114Y-104586608D02*
X134154819Y-104547904D01*
X134232228Y-104509199D01*
X134425752Y-104509199D01*
X134503161Y-104547904D01*
X134541866Y-104586608D01*
X134580571Y-104664018D01*
X134580571Y-104741427D01*
X134541866Y-104857542D01*
X134077409Y-105321999D01*
X134580571Y-105321999D01*
X136980723Y-148293600D02*
X136903314Y-148254895D01*
X136787200Y-148254895D01*
X136671085Y-148293600D01*
X136593676Y-148371009D01*
X136554971Y-148448419D01*
X136516266Y-148603238D01*
X136516266Y-148719352D01*
X136554971Y-148874171D01*
X136593676Y-148951580D01*
X136671085Y-149028990D01*
X136787200Y-149067695D01*
X136864609Y-149067695D01*
X136980723Y-149028990D01*
X137019428Y-148990285D01*
X137019428Y-148719352D01*
X136864609Y-148719352D01*
X137367771Y-149067695D02*
X137367771Y-148254895D01*
X137832228Y-149067695D01*
X137832228Y-148254895D01*
X138219276Y-149067695D02*
X138219276Y-148254895D01*
X138412800Y-148254895D01*
X138528914Y-148293600D01*
X138606323Y-148371009D01*
X138645028Y-148448419D01*
X138683733Y-148603238D01*
X138683733Y-148719352D01*
X138645028Y-148874171D01*
X138606323Y-148951580D01*
X138528914Y-149028990D01*
X138412800Y-149067695D01*
X138219276Y-149067695D01*
X134287200Y-148254895D02*
X134442019Y-148254895D01*
X134519428Y-148293600D01*
X134596838Y-148371009D01*
X134635542Y-148525828D01*
X134635542Y-148796761D01*
X134596838Y-148951580D01*
X134519428Y-149028990D01*
X134442019Y-149067695D01*
X134287200Y-149067695D01*
X134209790Y-149028990D01*
X134132380Y-148951580D01*
X134093676Y-148796761D01*
X134093676Y-148525828D01*
X134132380Y-148371009D01*
X134209790Y-148293600D01*
X134287200Y-148254895D01*
X134983885Y-148254895D02*
X134983885Y-148912876D01*
X135022590Y-148990285D01*
X135061295Y-149028990D01*
X135138704Y-149067695D01*
X135293523Y-149067695D01*
X135370933Y-149028990D01*
X135409638Y-148990285D01*
X135448342Y-148912876D01*
X135448342Y-148254895D01*
X135719276Y-148254895D02*
X136183733Y-148254895D01*
X135951504Y-149067695D02*
X135951504Y-148254895D01*
X131977485Y-149067695D02*
X131590438Y-149067695D01*
X131590438Y-148254895D01*
X132248419Y-148641942D02*
X132519352Y-148641942D01*
X132635466Y-149067695D02*
X132248419Y-149067695D01*
X132248419Y-148254895D01*
X132635466Y-148254895D01*
X132983809Y-149067695D02*
X132983809Y-148254895D01*
X133177333Y-148254895D01*
X133293447Y-148293600D01*
X133370857Y-148371009D01*
X133409561Y-148448419D01*
X133448266Y-148603238D01*
X133448266Y-148719352D01*
X133409561Y-148874171D01*
X133370857Y-148951580D01*
X133293447Y-149028990D01*
X133177333Y-149067695D01*
X132983809Y-149067695D01*
X129574247Y-148967695D02*
X129574247Y-148154895D01*
X129961295Y-148967695D02*
X129961295Y-148154895D01*
X130425752Y-148967695D01*
X130425752Y-148154895D01*
X126996838Y-148867695D02*
X127151657Y-148867695D01*
X127229066Y-148828990D01*
X127267771Y-148790285D01*
X127345180Y-148674171D01*
X127383885Y-148519352D01*
X127383885Y-148209714D01*
X127345180Y-148132304D01*
X127306476Y-148093600D01*
X127229066Y-148054895D01*
X127074247Y-148054895D01*
X126996838Y-148093600D01*
X126958133Y-148132304D01*
X126919428Y-148209714D01*
X126919428Y-148403238D01*
X126958133Y-148480647D01*
X126996838Y-148519352D01*
X127074247Y-148558057D01*
X127229066Y-148558057D01*
X127306476Y-148519352D01*
X127345180Y-148480647D01*
X127383885Y-148403238D01*
X127616114Y-148054895D02*
X127887047Y-148867695D01*
X128157980Y-148054895D01*
X147854895Y-134925676D02*
X148667695Y-134654742D01*
X147854895Y-134383809D01*
X147854895Y-133958057D02*
X147854895Y-133803238D01*
X147893600Y-133725828D01*
X147971009Y-133648419D01*
X148125828Y-133609714D01*
X148396761Y-133609714D01*
X148551580Y-133648419D01*
X148628990Y-133725828D01*
X148667695Y-133803238D01*
X148667695Y-133958057D01*
X148628990Y-134035466D01*
X148551580Y-134112876D01*
X148396761Y-134151580D01*
X148125828Y-134151580D01*
X147971009Y-134112876D01*
X147893600Y-134035466D01*
X147854895Y-133958057D01*
X148667695Y-132874323D02*
X148667695Y-133261371D01*
X147854895Y-133261371D01*
X119567695Y-98238628D02*
X119567695Y-98625676D01*
X118754895Y-98625676D01*
X118754895Y-97812876D02*
X118754895Y-97658057D01*
X118793600Y-97580647D01*
X118871009Y-97503238D01*
X119025828Y-97464533D01*
X119296761Y-97464533D01*
X119451580Y-97503238D01*
X119528990Y-97580647D01*
X119567695Y-97658057D01*
X119567695Y-97812876D01*
X119528990Y-97890285D01*
X119451580Y-97967695D01*
X119296761Y-98006400D01*
X119025828Y-98006400D01*
X118871009Y-97967695D01*
X118793600Y-97890285D01*
X118754895Y-97812876D01*
X118754895Y-97193600D02*
X119567695Y-97000076D01*
X118987123Y-96845257D01*
X119567695Y-96690438D01*
X118754895Y-96496914D01*
X119667695Y-107603085D02*
X118854895Y-107603085D01*
X118854895Y-107409561D01*
X118893600Y-107293447D01*
X118971009Y-107216038D01*
X119048419Y-107177333D01*
X119203238Y-107138628D01*
X119319352Y-107138628D01*
X119474171Y-107177333D01*
X119551580Y-107216038D01*
X119628990Y-107293447D01*
X119667695Y-107409561D01*
X119667695Y-107603085D01*
X119667695Y-106790285D02*
X118854895Y-106790285D01*
X119628990Y-106441942D02*
X119667695Y-106325828D01*
X119667695Y-106132304D01*
X119628990Y-106054895D01*
X119590285Y-106016190D01*
X119512876Y-105977485D01*
X119435466Y-105977485D01*
X119358057Y-106016190D01*
X119319352Y-106054895D01*
X119280647Y-106132304D01*
X119241942Y-106287123D01*
X119203238Y-106364533D01*
X119164533Y-106403238D01*
X119087123Y-106441942D01*
X119009714Y-106441942D01*
X118932304Y-106403238D01*
X118893600Y-106364533D01*
X118854895Y-106287123D01*
X118854895Y-106093600D01*
X118893600Y-105977485D01*
X118854895Y-105745257D02*
X118854895Y-105280800D01*
X119667695Y-105513028D02*
X118854895Y-105513028D01*
X149267695Y-109157904D02*
X148454895Y-109157904D01*
X148841942Y-109157904D02*
X148841942Y-108693447D01*
X149267695Y-108693447D02*
X148454895Y-108693447D01*
X149267695Y-108306400D02*
X148454895Y-108306400D01*
X148493600Y-107493600D02*
X148454895Y-107571009D01*
X148454895Y-107687123D01*
X148493600Y-107803238D01*
X148571009Y-107880647D01*
X148648419Y-107919352D01*
X148803238Y-107958057D01*
X148919352Y-107958057D01*
X149074171Y-107919352D01*
X149151580Y-107880647D01*
X149228990Y-107803238D01*
X149267695Y-107687123D01*
X149267695Y-107609714D01*
X149228990Y-107493600D01*
X149190285Y-107454895D01*
X148919352Y-107454895D01*
X148919352Y-107609714D01*
X149267695Y-107106552D02*
X148454895Y-107106552D01*
X148841942Y-107106552D02*
X148841942Y-106642095D01*
X149267695Y-106642095D02*
X148454895Y-106642095D01*
X133029142Y-92767695D02*
X133029142Y-91954895D01*
X133300076Y-92535466D01*
X133571009Y-91954895D01*
X133571009Y-92767695D01*
X133958057Y-92767695D02*
X133958057Y-91954895D01*
X134345104Y-92767695D02*
X134345104Y-91954895D01*
X134538628Y-91954895D01*
X134654742Y-91993600D01*
X134732152Y-92071009D01*
X134770857Y-92148419D01*
X134809561Y-92303238D01*
X134809561Y-92419352D01*
X134770857Y-92574171D01*
X134732152Y-92651580D01*
X134654742Y-92728990D01*
X134538628Y-92767695D01*
X134345104Y-92767695D01*
%TO.C,C10*%
X143690285Y-106122514D02*
X143728990Y-106161219D01*
X143767695Y-106277333D01*
X143767695Y-106354742D01*
X143728990Y-106470857D01*
X143651580Y-106548266D01*
X143574171Y-106586971D01*
X143419352Y-106625676D01*
X143303238Y-106625676D01*
X143148419Y-106586971D01*
X143071009Y-106548266D01*
X142993600Y-106470857D01*
X142954895Y-106354742D01*
X142954895Y-106277333D01*
X142993600Y-106161219D01*
X143032304Y-106122514D01*
X143767695Y-105348419D02*
X143767695Y-105812876D01*
X143767695Y-105580647D02*
X142954895Y-105580647D01*
X143071009Y-105658057D01*
X143148419Y-105735466D01*
X143187123Y-105812876D01*
X142954895Y-104845257D02*
X142954895Y-104767847D01*
X142993600Y-104690438D01*
X143032304Y-104651733D01*
X143109714Y-104613028D01*
X143264533Y-104574323D01*
X143458057Y-104574323D01*
X143612876Y-104613028D01*
X143690285Y-104651733D01*
X143728990Y-104690438D01*
X143767695Y-104767847D01*
X143767695Y-104845257D01*
X143728990Y-104922666D01*
X143690285Y-104961371D01*
X143612876Y-105000076D01*
X143458057Y-105038780D01*
X143264533Y-105038780D01*
X143109714Y-105000076D01*
X143032304Y-104961371D01*
X142993600Y-104922666D01*
X142954895Y-104845257D01*
%TO.C,D8*%
X145067695Y-130299923D02*
X144254895Y-130299923D01*
X144254895Y-130106400D01*
X144293600Y-129990285D01*
X144371009Y-129912876D01*
X144448419Y-129874171D01*
X144603238Y-129835466D01*
X144719352Y-129835466D01*
X144874171Y-129874171D01*
X144951580Y-129912876D01*
X145028990Y-129990285D01*
X145067695Y-130106400D01*
X145067695Y-130299923D01*
X144603238Y-129371009D02*
X144564533Y-129448419D01*
X144525828Y-129487123D01*
X144448419Y-129525828D01*
X144409714Y-129525828D01*
X144332304Y-129487123D01*
X144293600Y-129448419D01*
X144254895Y-129371009D01*
X144254895Y-129216190D01*
X144293600Y-129138780D01*
X144332304Y-129100076D01*
X144409714Y-129061371D01*
X144448419Y-129061371D01*
X144525828Y-129100076D01*
X144564533Y-129138780D01*
X144603238Y-129216190D01*
X144603238Y-129371009D01*
X144641942Y-129448419D01*
X144680647Y-129487123D01*
X144758057Y-129525828D01*
X144912876Y-129525828D01*
X144990285Y-129487123D01*
X145028990Y-129448419D01*
X145067695Y-129371009D01*
X145067695Y-129216190D01*
X145028990Y-129138780D01*
X144990285Y-129100076D01*
X144912876Y-129061371D01*
X144758057Y-129061371D01*
X144680647Y-129100076D01*
X144641942Y-129138780D01*
X144603238Y-129216190D01*
%TO.C,C22*%
X144677485Y-139490285D02*
X144638780Y-139528990D01*
X144522666Y-139567695D01*
X144445257Y-139567695D01*
X144329142Y-139528990D01*
X144251733Y-139451580D01*
X144213028Y-139374171D01*
X144174323Y-139219352D01*
X144174323Y-139103238D01*
X144213028Y-138948419D01*
X144251733Y-138871009D01*
X144329142Y-138793600D01*
X144445257Y-138754895D01*
X144522666Y-138754895D01*
X144638780Y-138793600D01*
X144677485Y-138832304D01*
X144987123Y-138832304D02*
X145025828Y-138793600D01*
X145103238Y-138754895D01*
X145296761Y-138754895D01*
X145374171Y-138793600D01*
X145412876Y-138832304D01*
X145451580Y-138909714D01*
X145451580Y-138987123D01*
X145412876Y-139103238D01*
X144948419Y-139567695D01*
X145451580Y-139567695D01*
X145761219Y-138832304D02*
X145799923Y-138793600D01*
X145877333Y-138754895D01*
X146070857Y-138754895D01*
X146148266Y-138793600D01*
X146186971Y-138832304D01*
X146225676Y-138909714D01*
X146225676Y-138987123D01*
X146186971Y-139103238D01*
X145722514Y-139567695D01*
X146225676Y-139567695D01*
%TO.C,R34*%
X148877485Y-139867695D02*
X148606552Y-139480647D01*
X148413028Y-139867695D02*
X148413028Y-139054895D01*
X148722666Y-139054895D01*
X148800076Y-139093600D01*
X148838780Y-139132304D01*
X148877485Y-139209714D01*
X148877485Y-139325828D01*
X148838780Y-139403238D01*
X148800076Y-139441942D01*
X148722666Y-139480647D01*
X148413028Y-139480647D01*
X149148419Y-139054895D02*
X149651580Y-139054895D01*
X149380647Y-139364533D01*
X149496761Y-139364533D01*
X149574171Y-139403238D01*
X149612876Y-139441942D01*
X149651580Y-139519352D01*
X149651580Y-139712876D01*
X149612876Y-139790285D01*
X149574171Y-139828990D01*
X149496761Y-139867695D01*
X149264533Y-139867695D01*
X149187123Y-139828990D01*
X149148419Y-139790285D01*
X150348266Y-139325828D02*
X150348266Y-139867695D01*
X150154742Y-139016190D02*
X149961219Y-139596761D01*
X150464380Y-139596761D01*
%TO.C,C3*%
X123764533Y-100890285D02*
X123725828Y-100928990D01*
X123609714Y-100967695D01*
X123532304Y-100967695D01*
X123416190Y-100928990D01*
X123338780Y-100851580D01*
X123300076Y-100774171D01*
X123261371Y-100619352D01*
X123261371Y-100503238D01*
X123300076Y-100348419D01*
X123338780Y-100271009D01*
X123416190Y-100193600D01*
X123532304Y-100154895D01*
X123609714Y-100154895D01*
X123725828Y-100193600D01*
X123764533Y-100232304D01*
X124035466Y-100154895D02*
X124538628Y-100154895D01*
X124267695Y-100464533D01*
X124383809Y-100464533D01*
X124461219Y-100503238D01*
X124499923Y-100541942D01*
X124538628Y-100619352D01*
X124538628Y-100812876D01*
X124499923Y-100890285D01*
X124461219Y-100928990D01*
X124383809Y-100967695D01*
X124151580Y-100967695D01*
X124074171Y-100928990D01*
X124035466Y-100890285D01*
%TO.C,R17*%
X138967695Y-112622514D02*
X138580647Y-112893447D01*
X138967695Y-113086971D02*
X138154895Y-113086971D01*
X138154895Y-112777333D01*
X138193600Y-112699923D01*
X138232304Y-112661219D01*
X138309714Y-112622514D01*
X138425828Y-112622514D01*
X138503238Y-112661219D01*
X138541942Y-112699923D01*
X138580647Y-112777333D01*
X138580647Y-113086971D01*
X138967695Y-111848419D02*
X138967695Y-112312876D01*
X138967695Y-112080647D02*
X138154895Y-112080647D01*
X138271009Y-112158057D01*
X138348419Y-112235466D01*
X138387123Y-112312876D01*
X138154895Y-111577485D02*
X138154895Y-111035619D01*
X138967695Y-111383961D01*
%TO.C,C19*%
X131077485Y-127890285D02*
X131038780Y-127928990D01*
X130922666Y-127967695D01*
X130845257Y-127967695D01*
X130729142Y-127928990D01*
X130651733Y-127851580D01*
X130613028Y-127774171D01*
X130574323Y-127619352D01*
X130574323Y-127503238D01*
X130613028Y-127348419D01*
X130651733Y-127271009D01*
X130729142Y-127193600D01*
X130845257Y-127154895D01*
X130922666Y-127154895D01*
X131038780Y-127193600D01*
X131077485Y-127232304D01*
X131851580Y-127967695D02*
X131387123Y-127967695D01*
X131619352Y-127967695D02*
X131619352Y-127154895D01*
X131541942Y-127271009D01*
X131464533Y-127348419D01*
X131387123Y-127387123D01*
X132238628Y-127967695D02*
X132393447Y-127967695D01*
X132470857Y-127928990D01*
X132509561Y-127890285D01*
X132586971Y-127774171D01*
X132625676Y-127619352D01*
X132625676Y-127309714D01*
X132586971Y-127232304D01*
X132548266Y-127193600D01*
X132470857Y-127154895D01*
X132316038Y-127154895D01*
X132238628Y-127193600D01*
X132199923Y-127232304D01*
X132161219Y-127309714D01*
X132161219Y-127503238D01*
X132199923Y-127580647D01*
X132238628Y-127619352D01*
X132316038Y-127658057D01*
X132470857Y-127658057D01*
X132548266Y-127619352D01*
X132586971Y-127580647D01*
X132625676Y-127503238D01*
%TO.C,Q1*%
X129822590Y-138945104D02*
X129745180Y-138906400D01*
X129667771Y-138828990D01*
X129551657Y-138712876D01*
X129474247Y-138674171D01*
X129396838Y-138674171D01*
X129435542Y-138867695D02*
X129358133Y-138828990D01*
X129280723Y-138751580D01*
X129242019Y-138596761D01*
X129242019Y-138325828D01*
X129280723Y-138171009D01*
X129358133Y-138093600D01*
X129435542Y-138054895D01*
X129590361Y-138054895D01*
X129667771Y-138093600D01*
X129745180Y-138171009D01*
X129783885Y-138325828D01*
X129783885Y-138596761D01*
X129745180Y-138751580D01*
X129667771Y-138828990D01*
X129590361Y-138867695D01*
X129435542Y-138867695D01*
X130557980Y-138867695D02*
X130093523Y-138867695D01*
X130325752Y-138867695D02*
X130325752Y-138054895D01*
X130248342Y-138171009D01*
X130170933Y-138248419D01*
X130093523Y-138287123D01*
%TO.C,Q4*%
X142922590Y-145245104D02*
X142845180Y-145206400D01*
X142767771Y-145128990D01*
X142651657Y-145012876D01*
X142574247Y-144974171D01*
X142496838Y-144974171D01*
X142535542Y-145167695D02*
X142458133Y-145128990D01*
X142380723Y-145051580D01*
X142342019Y-144896761D01*
X142342019Y-144625828D01*
X142380723Y-144471009D01*
X142458133Y-144393600D01*
X142535542Y-144354895D01*
X142690361Y-144354895D01*
X142767771Y-144393600D01*
X142845180Y-144471009D01*
X142883885Y-144625828D01*
X142883885Y-144896761D01*
X142845180Y-145051580D01*
X142767771Y-145128990D01*
X142690361Y-145167695D01*
X142535542Y-145167695D01*
X143580571Y-144625828D02*
X143580571Y-145167695D01*
X143387047Y-144316190D02*
X143193523Y-144896761D01*
X143696685Y-144896761D01*
%TO.C,U2*%
X133080723Y-96254895D02*
X133080723Y-96912876D01*
X133119428Y-96990285D01*
X133158133Y-97028990D01*
X133235542Y-97067695D01*
X133390361Y-97067695D01*
X133467771Y-97028990D01*
X133506476Y-96990285D01*
X133545180Y-96912876D01*
X133545180Y-96254895D01*
X133893523Y-96332304D02*
X133932228Y-96293600D01*
X134009638Y-96254895D01*
X134203161Y-96254895D01*
X134280571Y-96293600D01*
X134319276Y-96332304D01*
X134357980Y-96409714D01*
X134357980Y-96487123D01*
X134319276Y-96603238D01*
X133854819Y-97067695D01*
X134357980Y-97067695D01*
%TO.C,Q2*%
X135822590Y-134045104D02*
X135745180Y-134006400D01*
X135667771Y-133928990D01*
X135551657Y-133812876D01*
X135474247Y-133774171D01*
X135396838Y-133774171D01*
X135435542Y-133967695D02*
X135358133Y-133928990D01*
X135280723Y-133851580D01*
X135242019Y-133696761D01*
X135242019Y-133425828D01*
X135280723Y-133271009D01*
X135358133Y-133193600D01*
X135435542Y-133154895D01*
X135590361Y-133154895D01*
X135667771Y-133193600D01*
X135745180Y-133271009D01*
X135783885Y-133425828D01*
X135783885Y-133696761D01*
X135745180Y-133851580D01*
X135667771Y-133928990D01*
X135590361Y-133967695D01*
X135435542Y-133967695D01*
X136093523Y-133232304D02*
X136132228Y-133193600D01*
X136209638Y-133154895D01*
X136403161Y-133154895D01*
X136480571Y-133193600D01*
X136519276Y-133232304D01*
X136557980Y-133309714D01*
X136557980Y-133387123D01*
X136519276Y-133503238D01*
X136054819Y-133967695D01*
X136557980Y-133967695D01*
%TO.C,R16*%
X129077485Y-135067695D02*
X128806552Y-134680647D01*
X128613028Y-135067695D02*
X128613028Y-134254895D01*
X128922666Y-134254895D01*
X129000076Y-134293600D01*
X129038780Y-134332304D01*
X129077485Y-134409714D01*
X129077485Y-134525828D01*
X129038780Y-134603238D01*
X129000076Y-134641942D01*
X128922666Y-134680647D01*
X128613028Y-134680647D01*
X129851580Y-135067695D02*
X129387123Y-135067695D01*
X129619352Y-135067695D02*
X129619352Y-134254895D01*
X129541942Y-134371009D01*
X129464533Y-134448419D01*
X129387123Y-134487123D01*
X130548266Y-134254895D02*
X130393447Y-134254895D01*
X130316038Y-134293600D01*
X130277333Y-134332304D01*
X130199923Y-134448419D01*
X130161219Y-134603238D01*
X130161219Y-134912876D01*
X130199923Y-134990285D01*
X130238628Y-135028990D01*
X130316038Y-135067695D01*
X130470857Y-135067695D01*
X130548266Y-135028990D01*
X130586971Y-134990285D01*
X130625676Y-134912876D01*
X130625676Y-134719352D01*
X130586971Y-134641942D01*
X130548266Y-134603238D01*
X130470857Y-134564533D01*
X130316038Y-134564533D01*
X130238628Y-134603238D01*
X130199923Y-134641942D01*
X130161219Y-134719352D01*
%TO.C,R21*%
X143767695Y-108322514D02*
X143380647Y-108593447D01*
X143767695Y-108786971D02*
X142954895Y-108786971D01*
X142954895Y-108477333D01*
X142993600Y-108399923D01*
X143032304Y-108361219D01*
X143109714Y-108322514D01*
X143225828Y-108322514D01*
X143303238Y-108361219D01*
X143341942Y-108399923D01*
X143380647Y-108477333D01*
X143380647Y-108786971D01*
X143032304Y-108012876D02*
X142993600Y-107974171D01*
X142954895Y-107896761D01*
X142954895Y-107703238D01*
X142993600Y-107625828D01*
X143032304Y-107587123D01*
X143109714Y-107548419D01*
X143187123Y-107548419D01*
X143303238Y-107587123D01*
X143767695Y-108051580D01*
X143767695Y-107548419D01*
X143767695Y-106774323D02*
X143767695Y-107238780D01*
X143767695Y-107006552D02*
X142954895Y-107006552D01*
X143071009Y-107083961D01*
X143148419Y-107161371D01*
X143187123Y-107238780D01*
%TO.C,RV5*%
X150116190Y-129397695D02*
X149845257Y-129010647D01*
X149651733Y-129397695D02*
X149651733Y-128584895D01*
X149961371Y-128584895D01*
X150038780Y-128623600D01*
X150077485Y-128662304D01*
X150116190Y-128739714D01*
X150116190Y-128855828D01*
X150077485Y-128933238D01*
X150038780Y-128971942D01*
X149961371Y-129010647D01*
X149651733Y-129010647D01*
X150348419Y-128584895D02*
X150619352Y-129397695D01*
X150890285Y-128584895D01*
X151548266Y-128584895D02*
X151161219Y-128584895D01*
X151122514Y-128971942D01*
X151161219Y-128933238D01*
X151238628Y-128894533D01*
X151432152Y-128894533D01*
X151509561Y-128933238D01*
X151548266Y-128971942D01*
X151586971Y-129049352D01*
X151586971Y-129242876D01*
X151548266Y-129320285D01*
X151509561Y-129358990D01*
X151432152Y-129397695D01*
X151238628Y-129397695D01*
X151161219Y-129358990D01*
X151122514Y-129320285D01*
%TO.C,R8*%
X118564533Y-143467695D02*
X118293600Y-143080647D01*
X118100076Y-143467695D02*
X118100076Y-142654895D01*
X118409714Y-142654895D01*
X118487123Y-142693600D01*
X118525828Y-142732304D01*
X118564533Y-142809714D01*
X118564533Y-142925828D01*
X118525828Y-143003238D01*
X118487123Y-143041942D01*
X118409714Y-143080647D01*
X118100076Y-143080647D01*
X119028990Y-143003238D02*
X118951580Y-142964533D01*
X118912876Y-142925828D01*
X118874171Y-142848419D01*
X118874171Y-142809714D01*
X118912876Y-142732304D01*
X118951580Y-142693600D01*
X119028990Y-142654895D01*
X119183809Y-142654895D01*
X119261219Y-142693600D01*
X119299923Y-142732304D01*
X119338628Y-142809714D01*
X119338628Y-142848419D01*
X119299923Y-142925828D01*
X119261219Y-142964533D01*
X119183809Y-143003238D01*
X119028990Y-143003238D01*
X118951580Y-143041942D01*
X118912876Y-143080647D01*
X118874171Y-143158057D01*
X118874171Y-143312876D01*
X118912876Y-143390285D01*
X118951580Y-143428990D01*
X119028990Y-143467695D01*
X119183809Y-143467695D01*
X119261219Y-143428990D01*
X119299923Y-143390285D01*
X119338628Y-143312876D01*
X119338628Y-143158057D01*
X119299923Y-143080647D01*
X119261219Y-143041942D01*
X119183809Y-143003238D01*
%TO.C,R22*%
X138967695Y-121922514D02*
X138580647Y-122193447D01*
X138967695Y-122386971D02*
X138154895Y-122386971D01*
X138154895Y-122077333D01*
X138193600Y-121999923D01*
X138232304Y-121961219D01*
X138309714Y-121922514D01*
X138425828Y-121922514D01*
X138503238Y-121961219D01*
X138541942Y-121999923D01*
X138580647Y-122077333D01*
X138580647Y-122386971D01*
X138232304Y-121612876D02*
X138193600Y-121574171D01*
X138154895Y-121496761D01*
X138154895Y-121303238D01*
X138193600Y-121225828D01*
X138232304Y-121187123D01*
X138309714Y-121148419D01*
X138387123Y-121148419D01*
X138503238Y-121187123D01*
X138967695Y-121651580D01*
X138967695Y-121148419D01*
X138232304Y-120838780D02*
X138193600Y-120800076D01*
X138154895Y-120722666D01*
X138154895Y-120529142D01*
X138193600Y-120451733D01*
X138232304Y-120413028D01*
X138309714Y-120374323D01*
X138387123Y-120374323D01*
X138503238Y-120413028D01*
X138967695Y-120877485D01*
X138967695Y-120374323D01*
%TO.C,R26*%
X137577485Y-130467695D02*
X137306552Y-130080647D01*
X137113028Y-130467695D02*
X137113028Y-129654895D01*
X137422666Y-129654895D01*
X137500076Y-129693600D01*
X137538780Y-129732304D01*
X137577485Y-129809714D01*
X137577485Y-129925828D01*
X137538780Y-130003238D01*
X137500076Y-130041942D01*
X137422666Y-130080647D01*
X137113028Y-130080647D01*
X137887123Y-129732304D02*
X137925828Y-129693600D01*
X138003238Y-129654895D01*
X138196761Y-129654895D01*
X138274171Y-129693600D01*
X138312876Y-129732304D01*
X138351580Y-129809714D01*
X138351580Y-129887123D01*
X138312876Y-130003238D01*
X137848419Y-130467695D01*
X138351580Y-130467695D01*
X139048266Y-129654895D02*
X138893447Y-129654895D01*
X138816038Y-129693600D01*
X138777333Y-129732304D01*
X138699923Y-129848419D01*
X138661219Y-130003238D01*
X138661219Y-130312876D01*
X138699923Y-130390285D01*
X138738628Y-130428990D01*
X138816038Y-130467695D01*
X138970857Y-130467695D01*
X139048266Y-130428990D01*
X139086971Y-130390285D01*
X139125676Y-130312876D01*
X139125676Y-130119352D01*
X139086971Y-130041942D01*
X139048266Y-130003238D01*
X138970857Y-129964533D01*
X138816038Y-129964533D01*
X138738628Y-130003238D01*
X138699923Y-130041942D01*
X138661219Y-130119352D01*
%TO.C,C21*%
X138890285Y-117322514D02*
X138928990Y-117361219D01*
X138967695Y-117477333D01*
X138967695Y-117554742D01*
X138928990Y-117670857D01*
X138851580Y-117748266D01*
X138774171Y-117786971D01*
X138619352Y-117825676D01*
X138503238Y-117825676D01*
X138348419Y-117786971D01*
X138271009Y-117748266D01*
X138193600Y-117670857D01*
X138154895Y-117554742D01*
X138154895Y-117477333D01*
X138193600Y-117361219D01*
X138232304Y-117322514D01*
X138232304Y-117012876D02*
X138193600Y-116974171D01*
X138154895Y-116896761D01*
X138154895Y-116703238D01*
X138193600Y-116625828D01*
X138232304Y-116587123D01*
X138309714Y-116548419D01*
X138387123Y-116548419D01*
X138503238Y-116587123D01*
X138967695Y-117051580D01*
X138967695Y-116548419D01*
X138967695Y-115774323D02*
X138967695Y-116238780D01*
X138967695Y-116006552D02*
X138154895Y-116006552D01*
X138271009Y-116083961D01*
X138348419Y-116161371D01*
X138387123Y-116238780D01*
%TO.C,C5*%
X123764533Y-105890285D02*
X123725828Y-105928990D01*
X123609714Y-105967695D01*
X123532304Y-105967695D01*
X123416190Y-105928990D01*
X123338780Y-105851580D01*
X123300076Y-105774171D01*
X123261371Y-105619352D01*
X123261371Y-105503238D01*
X123300076Y-105348419D01*
X123338780Y-105271009D01*
X123416190Y-105193600D01*
X123532304Y-105154895D01*
X123609714Y-105154895D01*
X123725828Y-105193600D01*
X123764533Y-105232304D01*
X124499923Y-105154895D02*
X124112876Y-105154895D01*
X124074171Y-105541942D01*
X124112876Y-105503238D01*
X124190285Y-105464533D01*
X124383809Y-105464533D01*
X124461219Y-105503238D01*
X124499923Y-105541942D01*
X124538628Y-105619352D01*
X124538628Y-105812876D01*
X124499923Y-105890285D01*
X124461219Y-105928990D01*
X124383809Y-105967695D01*
X124190285Y-105967695D01*
X124112876Y-105928990D01*
X124074171Y-105890285D01*
%TO.C,R37*%
X144677485Y-138267695D02*
X144406552Y-137880647D01*
X144213028Y-138267695D02*
X144213028Y-137454895D01*
X144522666Y-137454895D01*
X144600076Y-137493600D01*
X144638780Y-137532304D01*
X144677485Y-137609714D01*
X144677485Y-137725828D01*
X144638780Y-137803238D01*
X144600076Y-137841942D01*
X144522666Y-137880647D01*
X144213028Y-137880647D01*
X144948419Y-137454895D02*
X145451580Y-137454895D01*
X145180647Y-137764533D01*
X145296761Y-137764533D01*
X145374171Y-137803238D01*
X145412876Y-137841942D01*
X145451580Y-137919352D01*
X145451580Y-138112876D01*
X145412876Y-138190285D01*
X145374171Y-138228990D01*
X145296761Y-138267695D01*
X145064533Y-138267695D01*
X144987123Y-138228990D01*
X144948419Y-138190285D01*
X145722514Y-137454895D02*
X146264380Y-137454895D01*
X145916038Y-138267695D01*
%TO.C,C6*%
X123664533Y-110390285D02*
X123625828Y-110428990D01*
X123509714Y-110467695D01*
X123432304Y-110467695D01*
X123316190Y-110428990D01*
X123238780Y-110351580D01*
X123200076Y-110274171D01*
X123161371Y-110119352D01*
X123161371Y-110003238D01*
X123200076Y-109848419D01*
X123238780Y-109771009D01*
X123316190Y-109693600D01*
X123432304Y-109654895D01*
X123509714Y-109654895D01*
X123625828Y-109693600D01*
X123664533Y-109732304D01*
X124361219Y-109654895D02*
X124206400Y-109654895D01*
X124128990Y-109693600D01*
X124090285Y-109732304D01*
X124012876Y-109848419D01*
X123974171Y-110003238D01*
X123974171Y-110312876D01*
X124012876Y-110390285D01*
X124051580Y-110428990D01*
X124128990Y-110467695D01*
X124283809Y-110467695D01*
X124361219Y-110428990D01*
X124399923Y-110390285D01*
X124438628Y-110312876D01*
X124438628Y-110119352D01*
X124399923Y-110041942D01*
X124361219Y-110003238D01*
X124283809Y-109964533D01*
X124128990Y-109964533D01*
X124051580Y-110003238D01*
X124012876Y-110041942D01*
X123974171Y-110119352D01*
%TO.C,R18*%
X129077485Y-132867695D02*
X128806552Y-132480647D01*
X128613028Y-132867695D02*
X128613028Y-132054895D01*
X128922666Y-132054895D01*
X129000076Y-132093600D01*
X129038780Y-132132304D01*
X129077485Y-132209714D01*
X129077485Y-132325828D01*
X129038780Y-132403238D01*
X129000076Y-132441942D01*
X128922666Y-132480647D01*
X128613028Y-132480647D01*
X129851580Y-132867695D02*
X129387123Y-132867695D01*
X129619352Y-132867695D02*
X129619352Y-132054895D01*
X129541942Y-132171009D01*
X129464533Y-132248419D01*
X129387123Y-132287123D01*
X130316038Y-132403238D02*
X130238628Y-132364533D01*
X130199923Y-132325828D01*
X130161219Y-132248419D01*
X130161219Y-132209714D01*
X130199923Y-132132304D01*
X130238628Y-132093600D01*
X130316038Y-132054895D01*
X130470857Y-132054895D01*
X130548266Y-132093600D01*
X130586971Y-132132304D01*
X130625676Y-132209714D01*
X130625676Y-132248419D01*
X130586971Y-132325828D01*
X130548266Y-132364533D01*
X130470857Y-132403238D01*
X130316038Y-132403238D01*
X130238628Y-132441942D01*
X130199923Y-132480647D01*
X130161219Y-132558057D01*
X130161219Y-132712876D01*
X130199923Y-132790285D01*
X130238628Y-132828990D01*
X130316038Y-132867695D01*
X130470857Y-132867695D01*
X130548266Y-132828990D01*
X130586971Y-132790285D01*
X130625676Y-132712876D01*
X130625676Y-132558057D01*
X130586971Y-132480647D01*
X130548266Y-132441942D01*
X130470857Y-132403238D01*
%TO.C,R38*%
X147877485Y-122167695D02*
X147606552Y-121780647D01*
X147413028Y-122167695D02*
X147413028Y-121354895D01*
X147722666Y-121354895D01*
X147800076Y-121393600D01*
X147838780Y-121432304D01*
X147877485Y-121509714D01*
X147877485Y-121625828D01*
X147838780Y-121703238D01*
X147800076Y-121741942D01*
X147722666Y-121780647D01*
X147413028Y-121780647D01*
X148148419Y-121354895D02*
X148651580Y-121354895D01*
X148380647Y-121664533D01*
X148496761Y-121664533D01*
X148574171Y-121703238D01*
X148612876Y-121741942D01*
X148651580Y-121819352D01*
X148651580Y-122012876D01*
X148612876Y-122090285D01*
X148574171Y-122128990D01*
X148496761Y-122167695D01*
X148264533Y-122167695D01*
X148187123Y-122128990D01*
X148148419Y-122090285D01*
X149116038Y-121703238D02*
X149038628Y-121664533D01*
X148999923Y-121625828D01*
X148961219Y-121548419D01*
X148961219Y-121509714D01*
X148999923Y-121432304D01*
X149038628Y-121393600D01*
X149116038Y-121354895D01*
X149270857Y-121354895D01*
X149348266Y-121393600D01*
X149386971Y-121432304D01*
X149425676Y-121509714D01*
X149425676Y-121548419D01*
X149386971Y-121625828D01*
X149348266Y-121664533D01*
X149270857Y-121703238D01*
X149116038Y-121703238D01*
X149038628Y-121741942D01*
X148999923Y-121780647D01*
X148961219Y-121858057D01*
X148961219Y-122012876D01*
X148999923Y-122090285D01*
X149038628Y-122128990D01*
X149116038Y-122167695D01*
X149270857Y-122167695D01*
X149348266Y-122128990D01*
X149386971Y-122090285D01*
X149425676Y-122012876D01*
X149425676Y-121858057D01*
X149386971Y-121780647D01*
X149348266Y-121741942D01*
X149270857Y-121703238D01*
%TO.C,R28*%
X129467695Y-122622514D02*
X129080647Y-122893447D01*
X129467695Y-123086971D02*
X128654895Y-123086971D01*
X128654895Y-122777333D01*
X128693600Y-122699923D01*
X128732304Y-122661219D01*
X128809714Y-122622514D01*
X128925828Y-122622514D01*
X129003238Y-122661219D01*
X129041942Y-122699923D01*
X129080647Y-122777333D01*
X129080647Y-123086971D01*
X128732304Y-122312876D02*
X128693600Y-122274171D01*
X128654895Y-122196761D01*
X128654895Y-122003238D01*
X128693600Y-121925828D01*
X128732304Y-121887123D01*
X128809714Y-121848419D01*
X128887123Y-121848419D01*
X129003238Y-121887123D01*
X129467695Y-122351580D01*
X129467695Y-121848419D01*
X129003238Y-121383961D02*
X128964533Y-121461371D01*
X128925828Y-121500076D01*
X128848419Y-121538780D01*
X128809714Y-121538780D01*
X128732304Y-121500076D01*
X128693600Y-121461371D01*
X128654895Y-121383961D01*
X128654895Y-121229142D01*
X128693600Y-121151733D01*
X128732304Y-121113028D01*
X128809714Y-121074323D01*
X128848419Y-121074323D01*
X128925828Y-121113028D01*
X128964533Y-121151733D01*
X129003238Y-121229142D01*
X129003238Y-121383961D01*
X129041942Y-121461371D01*
X129080647Y-121500076D01*
X129158057Y-121538780D01*
X129312876Y-121538780D01*
X129390285Y-121500076D01*
X129428990Y-121461371D01*
X129467695Y-121383961D01*
X129467695Y-121229142D01*
X129428990Y-121151733D01*
X129390285Y-121113028D01*
X129312876Y-121074323D01*
X129158057Y-121074323D01*
X129080647Y-121113028D01*
X129041942Y-121151733D01*
X129003238Y-121229142D01*
%TO.C,D4*%
X134700076Y-122967695D02*
X134700076Y-122154895D01*
X134893600Y-122154895D01*
X135009714Y-122193600D01*
X135087123Y-122271009D01*
X135125828Y-122348419D01*
X135164533Y-122503238D01*
X135164533Y-122619352D01*
X135125828Y-122774171D01*
X135087123Y-122851580D01*
X135009714Y-122928990D01*
X134893600Y-122967695D01*
X134700076Y-122967695D01*
X135861219Y-122425828D02*
X135861219Y-122967695D01*
X135667695Y-122116190D02*
X135474171Y-122696761D01*
X135977333Y-122696761D01*
%TO.C,C13*%
X116390285Y-112722514D02*
X116428990Y-112761219D01*
X116467695Y-112877333D01*
X116467695Y-112954742D01*
X116428990Y-113070857D01*
X116351580Y-113148266D01*
X116274171Y-113186971D01*
X116119352Y-113225676D01*
X116003238Y-113225676D01*
X115848419Y-113186971D01*
X115771009Y-113148266D01*
X115693600Y-113070857D01*
X115654895Y-112954742D01*
X115654895Y-112877333D01*
X115693600Y-112761219D01*
X115732304Y-112722514D01*
X116467695Y-111948419D02*
X116467695Y-112412876D01*
X116467695Y-112180647D02*
X115654895Y-112180647D01*
X115771009Y-112258057D01*
X115848419Y-112335466D01*
X115887123Y-112412876D01*
X115654895Y-111677485D02*
X115654895Y-111174323D01*
X115964533Y-111445257D01*
X115964533Y-111329142D01*
X116003238Y-111251733D01*
X116041942Y-111213028D01*
X116119352Y-111174323D01*
X116312876Y-111174323D01*
X116390285Y-111213028D01*
X116428990Y-111251733D01*
X116467695Y-111329142D01*
X116467695Y-111561371D01*
X116428990Y-111638780D01*
X116390285Y-111677485D01*
%TO.C,R29*%
X138967695Y-124122514D02*
X138580647Y-124393447D01*
X138967695Y-124586971D02*
X138154895Y-124586971D01*
X138154895Y-124277333D01*
X138193600Y-124199923D01*
X138232304Y-124161219D01*
X138309714Y-124122514D01*
X138425828Y-124122514D01*
X138503238Y-124161219D01*
X138541942Y-124199923D01*
X138580647Y-124277333D01*
X138580647Y-124586971D01*
X138232304Y-123812876D02*
X138193600Y-123774171D01*
X138154895Y-123696761D01*
X138154895Y-123503238D01*
X138193600Y-123425828D01*
X138232304Y-123387123D01*
X138309714Y-123348419D01*
X138387123Y-123348419D01*
X138503238Y-123387123D01*
X138967695Y-123851580D01*
X138967695Y-123348419D01*
X138967695Y-122961371D02*
X138967695Y-122806552D01*
X138928990Y-122729142D01*
X138890285Y-122690438D01*
X138774171Y-122613028D01*
X138619352Y-122574323D01*
X138309714Y-122574323D01*
X138232304Y-122613028D01*
X138193600Y-122651733D01*
X138154895Y-122729142D01*
X138154895Y-122883961D01*
X138193600Y-122961371D01*
X138232304Y-123000076D01*
X138309714Y-123038780D01*
X138503238Y-123038780D01*
X138580647Y-123000076D01*
X138619352Y-122961371D01*
X138658057Y-122883961D01*
X138658057Y-122729142D01*
X138619352Y-122651733D01*
X138580647Y-122613028D01*
X138503238Y-122574323D01*
%TO.C,C1*%
X138264533Y-143490285D02*
X138225828Y-143528990D01*
X138109714Y-143567695D01*
X138032304Y-143567695D01*
X137916190Y-143528990D01*
X137838780Y-143451580D01*
X137800076Y-143374171D01*
X137761371Y-143219352D01*
X137761371Y-143103238D01*
X137800076Y-142948419D01*
X137838780Y-142871009D01*
X137916190Y-142793600D01*
X138032304Y-142754895D01*
X138109714Y-142754895D01*
X138225828Y-142793600D01*
X138264533Y-142832304D01*
X139038628Y-143567695D02*
X138574171Y-143567695D01*
X138806400Y-143567695D02*
X138806400Y-142754895D01*
X138728990Y-142871009D01*
X138651580Y-142948419D01*
X138574171Y-142987123D01*
%TO.C,C20*%
X152190285Y-148022514D02*
X152228990Y-148061219D01*
X152267695Y-148177333D01*
X152267695Y-148254742D01*
X152228990Y-148370857D01*
X152151580Y-148448266D01*
X152074171Y-148486971D01*
X151919352Y-148525676D01*
X151803238Y-148525676D01*
X151648419Y-148486971D01*
X151571009Y-148448266D01*
X151493600Y-148370857D01*
X151454895Y-148254742D01*
X151454895Y-148177333D01*
X151493600Y-148061219D01*
X151532304Y-148022514D01*
X151532304Y-147712876D02*
X151493600Y-147674171D01*
X151454895Y-147596761D01*
X151454895Y-147403238D01*
X151493600Y-147325828D01*
X151532304Y-147287123D01*
X151609714Y-147248419D01*
X151687123Y-147248419D01*
X151803238Y-147287123D01*
X152267695Y-147751580D01*
X152267695Y-147248419D01*
X151454895Y-146745257D02*
X151454895Y-146667847D01*
X151493600Y-146590438D01*
X151532304Y-146551733D01*
X151609714Y-146513028D01*
X151764533Y-146474323D01*
X151958057Y-146474323D01*
X152112876Y-146513028D01*
X152190285Y-146551733D01*
X152228990Y-146590438D01*
X152267695Y-146667847D01*
X152267695Y-146745257D01*
X152228990Y-146822666D01*
X152190285Y-146861371D01*
X152112876Y-146900076D01*
X151958057Y-146938780D01*
X151764533Y-146938780D01*
X151609714Y-146900076D01*
X151532304Y-146861371D01*
X151493600Y-146822666D01*
X151454895Y-146745257D01*
%TO.C,R33*%
X152267695Y-145822514D02*
X151880647Y-146093447D01*
X152267695Y-146286971D02*
X151454895Y-146286971D01*
X151454895Y-145977333D01*
X151493600Y-145899923D01*
X151532304Y-145861219D01*
X151609714Y-145822514D01*
X151725828Y-145822514D01*
X151803238Y-145861219D01*
X151841942Y-145899923D01*
X151880647Y-145977333D01*
X151880647Y-146286971D01*
X151454895Y-145551580D02*
X151454895Y-145048419D01*
X151764533Y-145319352D01*
X151764533Y-145203238D01*
X151803238Y-145125828D01*
X151841942Y-145087123D01*
X151919352Y-145048419D01*
X152112876Y-145048419D01*
X152190285Y-145087123D01*
X152228990Y-145125828D01*
X152267695Y-145203238D01*
X152267695Y-145435466D01*
X152228990Y-145512876D01*
X152190285Y-145551580D01*
X151454895Y-144777485D02*
X151454895Y-144274323D01*
X151764533Y-144545257D01*
X151764533Y-144429142D01*
X151803238Y-144351733D01*
X151841942Y-144313028D01*
X151919352Y-144274323D01*
X152112876Y-144274323D01*
X152190285Y-144313028D01*
X152228990Y-144351733D01*
X152267695Y-144429142D01*
X152267695Y-144661371D01*
X152228990Y-144738780D01*
X152190285Y-144777485D01*
%TO.C,RV4*%
X149267695Y-111283809D02*
X148880647Y-111554742D01*
X149267695Y-111748266D02*
X148454895Y-111748266D01*
X148454895Y-111438628D01*
X148493600Y-111361219D01*
X148532304Y-111322514D01*
X148609714Y-111283809D01*
X148725828Y-111283809D01*
X148803238Y-111322514D01*
X148841942Y-111361219D01*
X148880647Y-111438628D01*
X148880647Y-111748266D01*
X148454895Y-111051580D02*
X149267695Y-110780647D01*
X148454895Y-110509714D01*
X148725828Y-109890438D02*
X149267695Y-109890438D01*
X148416190Y-110083961D02*
X148996761Y-110277485D01*
X148996761Y-109774323D01*
%TO.C,R24*%
X122977485Y-124667695D02*
X122706552Y-124280647D01*
X122513028Y-124667695D02*
X122513028Y-123854895D01*
X122822666Y-123854895D01*
X122900076Y-123893600D01*
X122938780Y-123932304D01*
X122977485Y-124009714D01*
X122977485Y-124125828D01*
X122938780Y-124203238D01*
X122900076Y-124241942D01*
X122822666Y-124280647D01*
X122513028Y-124280647D01*
X123287123Y-123932304D02*
X123325828Y-123893600D01*
X123403238Y-123854895D01*
X123596761Y-123854895D01*
X123674171Y-123893600D01*
X123712876Y-123932304D01*
X123751580Y-124009714D01*
X123751580Y-124087123D01*
X123712876Y-124203238D01*
X123248419Y-124667695D01*
X123751580Y-124667695D01*
X124448266Y-124125828D02*
X124448266Y-124667695D01*
X124254742Y-123816190D02*
X124061219Y-124396761D01*
X124564380Y-124396761D01*
%TO.C,R35*%
X138967695Y-115122514D02*
X138580647Y-115393447D01*
X138967695Y-115586971D02*
X138154895Y-115586971D01*
X138154895Y-115277333D01*
X138193600Y-115199923D01*
X138232304Y-115161219D01*
X138309714Y-115122514D01*
X138425828Y-115122514D01*
X138503238Y-115161219D01*
X138541942Y-115199923D01*
X138580647Y-115277333D01*
X138580647Y-115586971D01*
X138154895Y-114851580D02*
X138154895Y-114348419D01*
X138464533Y-114619352D01*
X138464533Y-114503238D01*
X138503238Y-114425828D01*
X138541942Y-114387123D01*
X138619352Y-114348419D01*
X138812876Y-114348419D01*
X138890285Y-114387123D01*
X138928990Y-114425828D01*
X138967695Y-114503238D01*
X138967695Y-114735466D01*
X138928990Y-114812876D01*
X138890285Y-114851580D01*
X138154895Y-113613028D02*
X138154895Y-114000076D01*
X138541942Y-114038780D01*
X138503238Y-114000076D01*
X138464533Y-113922666D01*
X138464533Y-113729142D01*
X138503238Y-113651733D01*
X138541942Y-113613028D01*
X138619352Y-113574323D01*
X138812876Y-113574323D01*
X138890285Y-113613028D01*
X138928990Y-113651733D01*
X138967695Y-113729142D01*
X138967695Y-113922666D01*
X138928990Y-114000076D01*
X138890285Y-114038780D01*
%TO.C,C17*%
X138890285Y-128522514D02*
X138928990Y-128561219D01*
X138967695Y-128677333D01*
X138967695Y-128754742D01*
X138928990Y-128870857D01*
X138851580Y-128948266D01*
X138774171Y-128986971D01*
X138619352Y-129025676D01*
X138503238Y-129025676D01*
X138348419Y-128986971D01*
X138271009Y-128948266D01*
X138193600Y-128870857D01*
X138154895Y-128754742D01*
X138154895Y-128677333D01*
X138193600Y-128561219D01*
X138232304Y-128522514D01*
X138967695Y-127748419D02*
X138967695Y-128212876D01*
X138967695Y-127980647D02*
X138154895Y-127980647D01*
X138271009Y-128058057D01*
X138348419Y-128135466D01*
X138387123Y-128212876D01*
X138154895Y-127477485D02*
X138154895Y-126935619D01*
X138967695Y-127283961D01*
%TO.C,R19*%
X137377485Y-132667695D02*
X137106552Y-132280647D01*
X136913028Y-132667695D02*
X136913028Y-131854895D01*
X137222666Y-131854895D01*
X137300076Y-131893600D01*
X137338780Y-131932304D01*
X137377485Y-132009714D01*
X137377485Y-132125828D01*
X137338780Y-132203238D01*
X137300076Y-132241942D01*
X137222666Y-132280647D01*
X136913028Y-132280647D01*
X138151580Y-132667695D02*
X137687123Y-132667695D01*
X137919352Y-132667695D02*
X137919352Y-131854895D01*
X137841942Y-131971009D01*
X137764533Y-132048419D01*
X137687123Y-132087123D01*
X138538628Y-132667695D02*
X138693447Y-132667695D01*
X138770857Y-132628990D01*
X138809561Y-132590285D01*
X138886971Y-132474171D01*
X138925676Y-132319352D01*
X138925676Y-132009714D01*
X138886971Y-131932304D01*
X138848266Y-131893600D01*
X138770857Y-131854895D01*
X138616038Y-131854895D01*
X138538628Y-131893600D01*
X138499923Y-131932304D01*
X138461219Y-132009714D01*
X138461219Y-132203238D01*
X138499923Y-132280647D01*
X138538628Y-132319352D01*
X138616038Y-132358057D01*
X138770857Y-132358057D01*
X138848266Y-132319352D01*
X138886971Y-132280647D01*
X138925676Y-132203238D01*
%TO.C,R32*%
X130277485Y-122867695D02*
X130006552Y-122480647D01*
X129813028Y-122867695D02*
X129813028Y-122054895D01*
X130122666Y-122054895D01*
X130200076Y-122093600D01*
X130238780Y-122132304D01*
X130277485Y-122209714D01*
X130277485Y-122325828D01*
X130238780Y-122403238D01*
X130200076Y-122441942D01*
X130122666Y-122480647D01*
X129813028Y-122480647D01*
X130548419Y-122054895D02*
X131051580Y-122054895D01*
X130780647Y-122364533D01*
X130896761Y-122364533D01*
X130974171Y-122403238D01*
X131012876Y-122441942D01*
X131051580Y-122519352D01*
X131051580Y-122712876D01*
X131012876Y-122790285D01*
X130974171Y-122828990D01*
X130896761Y-122867695D01*
X130664533Y-122867695D01*
X130587123Y-122828990D01*
X130548419Y-122790285D01*
X131361219Y-122132304D02*
X131399923Y-122093600D01*
X131477333Y-122054895D01*
X131670857Y-122054895D01*
X131748266Y-122093600D01*
X131786971Y-122132304D01*
X131825676Y-122209714D01*
X131825676Y-122287123D01*
X131786971Y-122403238D01*
X131322514Y-122867695D01*
X131825676Y-122867695D01*
%TO.C,C12*%
X115490285Y-119222514D02*
X115528990Y-119261219D01*
X115567695Y-119377333D01*
X115567695Y-119454742D01*
X115528990Y-119570857D01*
X115451580Y-119648266D01*
X115374171Y-119686971D01*
X115219352Y-119725676D01*
X115103238Y-119725676D01*
X114948419Y-119686971D01*
X114871009Y-119648266D01*
X114793600Y-119570857D01*
X114754895Y-119454742D01*
X114754895Y-119377333D01*
X114793600Y-119261219D01*
X114832304Y-119222514D01*
X115567695Y-118448419D02*
X115567695Y-118912876D01*
X115567695Y-118680647D02*
X114754895Y-118680647D01*
X114871009Y-118758057D01*
X114948419Y-118835466D01*
X114987123Y-118912876D01*
X114832304Y-118138780D02*
X114793600Y-118100076D01*
X114754895Y-118022666D01*
X114754895Y-117829142D01*
X114793600Y-117751733D01*
X114832304Y-117713028D01*
X114909714Y-117674323D01*
X114987123Y-117674323D01*
X115103238Y-117713028D01*
X115567695Y-118177485D01*
X115567695Y-117674323D01*
%TO.C,U3*%
X133280723Y-105854895D02*
X133280723Y-106512876D01*
X133319428Y-106590285D01*
X133358133Y-106628990D01*
X133435542Y-106667695D01*
X133590361Y-106667695D01*
X133667771Y-106628990D01*
X133706476Y-106590285D01*
X133745180Y-106512876D01*
X133745180Y-105854895D01*
X134054819Y-105854895D02*
X134557980Y-105854895D01*
X134287047Y-106164533D01*
X134403161Y-106164533D01*
X134480571Y-106203238D01*
X134519276Y-106241942D01*
X134557980Y-106319352D01*
X134557980Y-106512876D01*
X134519276Y-106590285D01*
X134480571Y-106628990D01*
X134403161Y-106667695D01*
X134170933Y-106667695D01*
X134093523Y-106628990D01*
X134054819Y-106590285D01*
%TO.C,RV2*%
X129412695Y-94783809D02*
X129025647Y-95054742D01*
X129412695Y-95248266D02*
X128599895Y-95248266D01*
X128599895Y-94938628D01*
X128638600Y-94861219D01*
X128677304Y-94822514D01*
X128754714Y-94783809D01*
X128870828Y-94783809D01*
X128948238Y-94822514D01*
X128986942Y-94861219D01*
X129025647Y-94938628D01*
X129025647Y-95248266D01*
X128599895Y-94551580D02*
X129412695Y-94280647D01*
X128599895Y-94009714D01*
X128677304Y-93777485D02*
X128638600Y-93738780D01*
X128599895Y-93661371D01*
X128599895Y-93467847D01*
X128638600Y-93390438D01*
X128677304Y-93351733D01*
X128754714Y-93313028D01*
X128832123Y-93313028D01*
X128948238Y-93351733D01*
X129412695Y-93816190D01*
X129412695Y-93313028D01*
%TO.C,C9*%
X126464533Y-138670285D02*
X126425828Y-138708990D01*
X126309714Y-138747695D01*
X126232304Y-138747695D01*
X126116190Y-138708990D01*
X126038780Y-138631580D01*
X126000076Y-138554171D01*
X125961371Y-138399352D01*
X125961371Y-138283238D01*
X126000076Y-138128419D01*
X126038780Y-138051009D01*
X126116190Y-137973600D01*
X126232304Y-137934895D01*
X126309714Y-137934895D01*
X126425828Y-137973600D01*
X126464533Y-138012304D01*
X126851580Y-138747695D02*
X127006400Y-138747695D01*
X127083809Y-138708990D01*
X127122514Y-138670285D01*
X127199923Y-138554171D01*
X127238628Y-138399352D01*
X127238628Y-138089714D01*
X127199923Y-138012304D01*
X127161219Y-137973600D01*
X127083809Y-137934895D01*
X126928990Y-137934895D01*
X126851580Y-137973600D01*
X126812876Y-138012304D01*
X126774171Y-138089714D01*
X126774171Y-138283238D01*
X126812876Y-138360647D01*
X126851580Y-138399352D01*
X126928990Y-138438057D01*
X127083809Y-138438057D01*
X127161219Y-138399352D01*
X127199923Y-138360647D01*
X127238628Y-138283238D01*
%TO.C,J1*%
X124854895Y-146770933D02*
X125435466Y-146770933D01*
X125551580Y-146809638D01*
X125628990Y-146887047D01*
X125667695Y-147003161D01*
X125667695Y-147080571D01*
X125667695Y-145958133D02*
X125667695Y-146422590D01*
X125667695Y-146190361D02*
X124854895Y-146190361D01*
X124971009Y-146267771D01*
X125048419Y-146345180D01*
X125087123Y-146422590D01*
%TO.C,R11*%
X126077485Y-114267695D02*
X125806552Y-113880647D01*
X125613028Y-114267695D02*
X125613028Y-113454895D01*
X125922666Y-113454895D01*
X126000076Y-113493600D01*
X126038780Y-113532304D01*
X126077485Y-113609714D01*
X126077485Y-113725828D01*
X126038780Y-113803238D01*
X126000076Y-113841942D01*
X125922666Y-113880647D01*
X125613028Y-113880647D01*
X126851580Y-114267695D02*
X126387123Y-114267695D01*
X126619352Y-114267695D02*
X126619352Y-113454895D01*
X126541942Y-113571009D01*
X126464533Y-113648419D01*
X126387123Y-113687123D01*
X127625676Y-114267695D02*
X127161219Y-114267695D01*
X127393447Y-114267695D02*
X127393447Y-113454895D01*
X127316038Y-113571009D01*
X127238628Y-113648419D01*
X127161219Y-113687123D01*
%TO.C,R3*%
X130367695Y-141435466D02*
X129980647Y-141706400D01*
X130367695Y-141899923D02*
X129554895Y-141899923D01*
X129554895Y-141590285D01*
X129593600Y-141512876D01*
X129632304Y-141474171D01*
X129709714Y-141435466D01*
X129825828Y-141435466D01*
X129903238Y-141474171D01*
X129941942Y-141512876D01*
X129980647Y-141590285D01*
X129980647Y-141899923D01*
X129554895Y-141164533D02*
X129554895Y-140661371D01*
X129864533Y-140932304D01*
X129864533Y-140816190D01*
X129903238Y-140738780D01*
X129941942Y-140700076D01*
X130019352Y-140661371D01*
X130212876Y-140661371D01*
X130290285Y-140700076D01*
X130328990Y-140738780D01*
X130367695Y-140816190D01*
X130367695Y-141048419D01*
X130328990Y-141125828D01*
X130290285Y-141164533D01*
%TO.C,R20*%
X129077485Y-130767695D02*
X128806552Y-130380647D01*
X128613028Y-130767695D02*
X128613028Y-129954895D01*
X128922666Y-129954895D01*
X129000076Y-129993600D01*
X129038780Y-130032304D01*
X129077485Y-130109714D01*
X129077485Y-130225828D01*
X129038780Y-130303238D01*
X129000076Y-130341942D01*
X128922666Y-130380647D01*
X128613028Y-130380647D01*
X129387123Y-130032304D02*
X129425828Y-129993600D01*
X129503238Y-129954895D01*
X129696761Y-129954895D01*
X129774171Y-129993600D01*
X129812876Y-130032304D01*
X129851580Y-130109714D01*
X129851580Y-130187123D01*
X129812876Y-130303238D01*
X129348419Y-130767695D01*
X129851580Y-130767695D01*
X130354742Y-129954895D02*
X130432152Y-129954895D01*
X130509561Y-129993600D01*
X130548266Y-130032304D01*
X130586971Y-130109714D01*
X130625676Y-130264533D01*
X130625676Y-130458057D01*
X130586971Y-130612876D01*
X130548266Y-130690285D01*
X130509561Y-130728990D01*
X130432152Y-130767695D01*
X130354742Y-130767695D01*
X130277333Y-130728990D01*
X130238628Y-130690285D01*
X130199923Y-130612876D01*
X130161219Y-130458057D01*
X130161219Y-130264533D01*
X130199923Y-130109714D01*
X130238628Y-130032304D01*
X130277333Y-129993600D01*
X130354742Y-129954895D01*
%TO.C,R23*%
X124567695Y-126622514D02*
X124180647Y-126893447D01*
X124567695Y-127086971D02*
X123754895Y-127086971D01*
X123754895Y-126777333D01*
X123793600Y-126699923D01*
X123832304Y-126661219D01*
X123909714Y-126622514D01*
X124025828Y-126622514D01*
X124103238Y-126661219D01*
X124141942Y-126699923D01*
X124180647Y-126777333D01*
X124180647Y-127086971D01*
X123832304Y-126312876D02*
X123793600Y-126274171D01*
X123754895Y-126196761D01*
X123754895Y-126003238D01*
X123793600Y-125925828D01*
X123832304Y-125887123D01*
X123909714Y-125848419D01*
X123987123Y-125848419D01*
X124103238Y-125887123D01*
X124567695Y-126351580D01*
X124567695Y-125848419D01*
X123754895Y-125577485D02*
X123754895Y-125074323D01*
X124064533Y-125345257D01*
X124064533Y-125229142D01*
X124103238Y-125151733D01*
X124141942Y-125113028D01*
X124219352Y-125074323D01*
X124412876Y-125074323D01*
X124490285Y-125113028D01*
X124528990Y-125151733D01*
X124567695Y-125229142D01*
X124567695Y-125461371D01*
X124528990Y-125538780D01*
X124490285Y-125577485D01*
%TO.C,C15*%
X138890285Y-119622514D02*
X138928990Y-119661219D01*
X138967695Y-119777333D01*
X138967695Y-119854742D01*
X138928990Y-119970857D01*
X138851580Y-120048266D01*
X138774171Y-120086971D01*
X138619352Y-120125676D01*
X138503238Y-120125676D01*
X138348419Y-120086971D01*
X138271009Y-120048266D01*
X138193600Y-119970857D01*
X138154895Y-119854742D01*
X138154895Y-119777333D01*
X138193600Y-119661219D01*
X138232304Y-119622514D01*
X138967695Y-118848419D02*
X138967695Y-119312876D01*
X138967695Y-119080647D02*
X138154895Y-119080647D01*
X138271009Y-119158057D01*
X138348419Y-119235466D01*
X138387123Y-119312876D01*
X138154895Y-118113028D02*
X138154895Y-118500076D01*
X138541942Y-118538780D01*
X138503238Y-118500076D01*
X138464533Y-118422666D01*
X138464533Y-118229142D01*
X138503238Y-118151733D01*
X138541942Y-118113028D01*
X138619352Y-118074323D01*
X138812876Y-118074323D01*
X138890285Y-118113028D01*
X138928990Y-118151733D01*
X138967695Y-118229142D01*
X138967695Y-118422666D01*
X138928990Y-118500076D01*
X138890285Y-118538780D01*
%TO.C,RV1*%
X119667695Y-100983809D02*
X119280647Y-101254742D01*
X119667695Y-101448266D02*
X118854895Y-101448266D01*
X118854895Y-101138628D01*
X118893600Y-101061219D01*
X118932304Y-101022514D01*
X119009714Y-100983809D01*
X119125828Y-100983809D01*
X119203238Y-101022514D01*
X119241942Y-101061219D01*
X119280647Y-101138628D01*
X119280647Y-101448266D01*
X118854895Y-100751580D02*
X119667695Y-100480647D01*
X118854895Y-100209714D01*
X119667695Y-99513028D02*
X119667695Y-99977485D01*
X119667695Y-99745257D02*
X118854895Y-99745257D01*
X118971009Y-99822666D01*
X119048419Y-99900076D01*
X119087123Y-99977485D01*
%TO.C,R12*%
X117267695Y-141222514D02*
X116880647Y-141493447D01*
X117267695Y-141686971D02*
X116454895Y-141686971D01*
X116454895Y-141377333D01*
X116493600Y-141299923D01*
X116532304Y-141261219D01*
X116609714Y-141222514D01*
X116725828Y-141222514D01*
X116803238Y-141261219D01*
X116841942Y-141299923D01*
X116880647Y-141377333D01*
X116880647Y-141686971D01*
X117267695Y-140448419D02*
X117267695Y-140912876D01*
X117267695Y-140680647D02*
X116454895Y-140680647D01*
X116571009Y-140758057D01*
X116648419Y-140835466D01*
X116687123Y-140912876D01*
X116532304Y-140138780D02*
X116493600Y-140100076D01*
X116454895Y-140022666D01*
X116454895Y-139829142D01*
X116493600Y-139751733D01*
X116532304Y-139713028D01*
X116609714Y-139674323D01*
X116687123Y-139674323D01*
X116803238Y-139713028D01*
X117267695Y-140177485D01*
X117267695Y-139674323D01*
%TO.C,C11*%
X143690285Y-110622514D02*
X143728990Y-110661219D01*
X143767695Y-110777333D01*
X143767695Y-110854742D01*
X143728990Y-110970857D01*
X143651580Y-111048266D01*
X143574171Y-111086971D01*
X143419352Y-111125676D01*
X143303238Y-111125676D01*
X143148419Y-111086971D01*
X143071009Y-111048266D01*
X142993600Y-110970857D01*
X142954895Y-110854742D01*
X142954895Y-110777333D01*
X142993600Y-110661219D01*
X143032304Y-110622514D01*
X143767695Y-109848419D02*
X143767695Y-110312876D01*
X143767695Y-110080647D02*
X142954895Y-110080647D01*
X143071009Y-110158057D01*
X143148419Y-110235466D01*
X143187123Y-110312876D01*
X143767695Y-109074323D02*
X143767695Y-109538780D01*
X143767695Y-109306552D02*
X142954895Y-109306552D01*
X143071009Y-109383961D01*
X143148419Y-109461371D01*
X143187123Y-109538780D01*
%TO.C,R36*%
X152267695Y-143522514D02*
X151880647Y-143793447D01*
X152267695Y-143986971D02*
X151454895Y-143986971D01*
X151454895Y-143677333D01*
X151493600Y-143599923D01*
X151532304Y-143561219D01*
X151609714Y-143522514D01*
X151725828Y-143522514D01*
X151803238Y-143561219D01*
X151841942Y-143599923D01*
X151880647Y-143677333D01*
X151880647Y-143986971D01*
X151454895Y-143251580D02*
X151454895Y-142748419D01*
X151764533Y-143019352D01*
X151764533Y-142903238D01*
X151803238Y-142825828D01*
X151841942Y-142787123D01*
X151919352Y-142748419D01*
X152112876Y-142748419D01*
X152190285Y-142787123D01*
X152228990Y-142825828D01*
X152267695Y-142903238D01*
X152267695Y-143135466D01*
X152228990Y-143212876D01*
X152190285Y-143251580D01*
X151454895Y-142051733D02*
X151454895Y-142206552D01*
X151493600Y-142283961D01*
X151532304Y-142322666D01*
X151648419Y-142400076D01*
X151803238Y-142438780D01*
X152112876Y-142438780D01*
X152190285Y-142400076D01*
X152228990Y-142361371D01*
X152267695Y-142283961D01*
X152267695Y-142129142D01*
X152228990Y-142051733D01*
X152190285Y-142013028D01*
X152112876Y-141974323D01*
X151919352Y-141974323D01*
X151841942Y-142013028D01*
X151803238Y-142051733D01*
X151764533Y-142129142D01*
X151764533Y-142283961D01*
X151803238Y-142361371D01*
X151841942Y-142400076D01*
X151919352Y-142438780D01*
%TO.C,C14*%
X129177485Y-128890285D02*
X129138780Y-128928990D01*
X129022666Y-128967695D01*
X128945257Y-128967695D01*
X128829142Y-128928990D01*
X128751733Y-128851580D01*
X128713028Y-128774171D01*
X128674323Y-128619352D01*
X128674323Y-128503238D01*
X128713028Y-128348419D01*
X128751733Y-128271009D01*
X128829142Y-128193600D01*
X128945257Y-128154895D01*
X129022666Y-128154895D01*
X129138780Y-128193600D01*
X129177485Y-128232304D01*
X129951580Y-128967695D02*
X129487123Y-128967695D01*
X129719352Y-128967695D02*
X129719352Y-128154895D01*
X129641942Y-128271009D01*
X129564533Y-128348419D01*
X129487123Y-128387123D01*
X130648266Y-128425828D02*
X130648266Y-128967695D01*
X130454742Y-128116190D02*
X130261219Y-128696761D01*
X130764380Y-128696761D01*
%TO.C,C16*%
X139477485Y-95890285D02*
X139438780Y-95928990D01*
X139322666Y-95967695D01*
X139245257Y-95967695D01*
X139129142Y-95928990D01*
X139051733Y-95851580D01*
X139013028Y-95774171D01*
X138974323Y-95619352D01*
X138974323Y-95503238D01*
X139013028Y-95348419D01*
X139051733Y-95271009D01*
X139129142Y-95193600D01*
X139245257Y-95154895D01*
X139322666Y-95154895D01*
X139438780Y-95193600D01*
X139477485Y-95232304D01*
X140251580Y-95967695D02*
X139787123Y-95967695D01*
X140019352Y-95967695D02*
X140019352Y-95154895D01*
X139941942Y-95271009D01*
X139864533Y-95348419D01*
X139787123Y-95387123D01*
X140948266Y-95154895D02*
X140793447Y-95154895D01*
X140716038Y-95193600D01*
X140677333Y-95232304D01*
X140599923Y-95348419D01*
X140561219Y-95503238D01*
X140561219Y-95812876D01*
X140599923Y-95890285D01*
X140638628Y-95928990D01*
X140716038Y-95967695D01*
X140870857Y-95967695D01*
X140948266Y-95928990D01*
X140986971Y-95890285D01*
X141025676Y-95812876D01*
X141025676Y-95619352D01*
X140986971Y-95541942D01*
X140948266Y-95503238D01*
X140870857Y-95464533D01*
X140716038Y-95464533D01*
X140638628Y-95503238D01*
X140599923Y-95541942D01*
X140561219Y-95619352D01*
%TO.C,D5*%
X134800076Y-127567695D02*
X134800076Y-126754895D01*
X134993600Y-126754895D01*
X135109714Y-126793600D01*
X135187123Y-126871009D01*
X135225828Y-126948419D01*
X135264533Y-127103238D01*
X135264533Y-127219352D01*
X135225828Y-127374171D01*
X135187123Y-127451580D01*
X135109714Y-127528990D01*
X134993600Y-127567695D01*
X134800076Y-127567695D01*
X135999923Y-126754895D02*
X135612876Y-126754895D01*
X135574171Y-127141942D01*
X135612876Y-127103238D01*
X135690285Y-127064533D01*
X135883809Y-127064533D01*
X135961219Y-127103238D01*
X135999923Y-127141942D01*
X136038628Y-127219352D01*
X136038628Y-127412876D01*
X135999923Y-127490285D01*
X135961219Y-127528990D01*
X135883809Y-127567695D01*
X135690285Y-127567695D01*
X135612876Y-127528990D01*
X135574171Y-127490285D01*
%TO.C,R30*%
X138967695Y-126322514D02*
X138580647Y-126593447D01*
X138967695Y-126786971D02*
X138154895Y-126786971D01*
X138154895Y-126477333D01*
X138193600Y-126399923D01*
X138232304Y-126361219D01*
X138309714Y-126322514D01*
X138425828Y-126322514D01*
X138503238Y-126361219D01*
X138541942Y-126399923D01*
X138580647Y-126477333D01*
X138580647Y-126786971D01*
X138154895Y-126051580D02*
X138154895Y-125548419D01*
X138464533Y-125819352D01*
X138464533Y-125703238D01*
X138503238Y-125625828D01*
X138541942Y-125587123D01*
X138619352Y-125548419D01*
X138812876Y-125548419D01*
X138890285Y-125587123D01*
X138928990Y-125625828D01*
X138967695Y-125703238D01*
X138967695Y-125935466D01*
X138928990Y-126012876D01*
X138890285Y-126051580D01*
X138154895Y-125045257D02*
X138154895Y-124967847D01*
X138193600Y-124890438D01*
X138232304Y-124851733D01*
X138309714Y-124813028D01*
X138464533Y-124774323D01*
X138658057Y-124774323D01*
X138812876Y-124813028D01*
X138890285Y-124851733D01*
X138928990Y-124890438D01*
X138967695Y-124967847D01*
X138967695Y-125045257D01*
X138928990Y-125122666D01*
X138890285Y-125161371D01*
X138812876Y-125200076D01*
X138658057Y-125238780D01*
X138464533Y-125238780D01*
X138309714Y-125200076D01*
X138232304Y-125161371D01*
X138193600Y-125122666D01*
X138154895Y-125045257D01*
%TO.C,D6*%
X147567695Y-116699923D02*
X146754895Y-116699923D01*
X146754895Y-116506400D01*
X146793600Y-116390285D01*
X146871009Y-116312876D01*
X146948419Y-116274171D01*
X147103238Y-116235466D01*
X147219352Y-116235466D01*
X147374171Y-116274171D01*
X147451580Y-116312876D01*
X147528990Y-116390285D01*
X147567695Y-116506400D01*
X147567695Y-116699923D01*
X146754895Y-115538780D02*
X146754895Y-115693600D01*
X146793600Y-115771009D01*
X146832304Y-115809714D01*
X146948419Y-115887123D01*
X147103238Y-115925828D01*
X147412876Y-115925828D01*
X147490285Y-115887123D01*
X147528990Y-115848419D01*
X147567695Y-115771009D01*
X147567695Y-115616190D01*
X147528990Y-115538780D01*
X147490285Y-115500076D01*
X147412876Y-115461371D01*
X147219352Y-115461371D01*
X147141942Y-115500076D01*
X147103238Y-115538780D01*
X147064533Y-115616190D01*
X147064533Y-115771009D01*
X147103238Y-115848419D01*
X147141942Y-115887123D01*
X147219352Y-115925828D01*
%TO.C,R1*%
X147864533Y-124267695D02*
X147593600Y-123880647D01*
X147400076Y-124267695D02*
X147400076Y-123454895D01*
X147709714Y-123454895D01*
X147787123Y-123493600D01*
X147825828Y-123532304D01*
X147864533Y-123609714D01*
X147864533Y-123725828D01*
X147825828Y-123803238D01*
X147787123Y-123841942D01*
X147709714Y-123880647D01*
X147400076Y-123880647D01*
X148638628Y-124267695D02*
X148174171Y-124267695D01*
X148406400Y-124267695D02*
X148406400Y-123454895D01*
X148328990Y-123571009D01*
X148251580Y-123648419D01*
X148174171Y-123687123D01*
%TO.C,C23*%
X147877485Y-119890285D02*
X147838780Y-119928990D01*
X147722666Y-119967695D01*
X147645257Y-119967695D01*
X147529142Y-119928990D01*
X147451733Y-119851580D01*
X147413028Y-119774171D01*
X147374323Y-119619352D01*
X147374323Y-119503238D01*
X147413028Y-119348419D01*
X147451733Y-119271009D01*
X147529142Y-119193600D01*
X147645257Y-119154895D01*
X147722666Y-119154895D01*
X147838780Y-119193600D01*
X147877485Y-119232304D01*
X148187123Y-119232304D02*
X148225828Y-119193600D01*
X148303238Y-119154895D01*
X148496761Y-119154895D01*
X148574171Y-119193600D01*
X148612876Y-119232304D01*
X148651580Y-119309714D01*
X148651580Y-119387123D01*
X148612876Y-119503238D01*
X148148419Y-119967695D01*
X148651580Y-119967695D01*
X148922514Y-119154895D02*
X149425676Y-119154895D01*
X149154742Y-119464533D01*
X149270857Y-119464533D01*
X149348266Y-119503238D01*
X149386971Y-119541942D01*
X149425676Y-119619352D01*
X149425676Y-119812876D01*
X149386971Y-119890285D01*
X149348266Y-119928990D01*
X149270857Y-119967695D01*
X149038628Y-119967695D01*
X148961219Y-119928990D01*
X148922514Y-119890285D01*
%TO.C,Q3*%
X135722590Y-130545104D02*
X135645180Y-130506400D01*
X135567771Y-130428990D01*
X135451657Y-130312876D01*
X135374247Y-130274171D01*
X135296838Y-130274171D01*
X135335542Y-130467695D02*
X135258133Y-130428990D01*
X135180723Y-130351580D01*
X135142019Y-130196761D01*
X135142019Y-129925828D01*
X135180723Y-129771009D01*
X135258133Y-129693600D01*
X135335542Y-129654895D01*
X135490361Y-129654895D01*
X135567771Y-129693600D01*
X135645180Y-129771009D01*
X135683885Y-129925828D01*
X135683885Y-130196761D01*
X135645180Y-130351580D01*
X135567771Y-130428990D01*
X135490361Y-130467695D01*
X135335542Y-130467695D01*
X135954819Y-129654895D02*
X136457980Y-129654895D01*
X136187047Y-129964533D01*
X136303161Y-129964533D01*
X136380571Y-130003238D01*
X136419276Y-130041942D01*
X136457980Y-130119352D01*
X136457980Y-130312876D01*
X136419276Y-130390285D01*
X136380571Y-130428990D01*
X136303161Y-130467695D01*
X136070933Y-130467695D01*
X135993523Y-130428990D01*
X135954819Y-130390285D01*
%TO.C,D9*%
X147567695Y-130299923D02*
X146754895Y-130299923D01*
X146754895Y-130106400D01*
X146793600Y-129990285D01*
X146871009Y-129912876D01*
X146948419Y-129874171D01*
X147103238Y-129835466D01*
X147219352Y-129835466D01*
X147374171Y-129874171D01*
X147451580Y-129912876D01*
X147528990Y-129990285D01*
X147567695Y-130106400D01*
X147567695Y-130299923D01*
X147567695Y-129448419D02*
X147567695Y-129293600D01*
X147528990Y-129216190D01*
X147490285Y-129177485D01*
X147374171Y-129100076D01*
X147219352Y-129061371D01*
X146909714Y-129061371D01*
X146832304Y-129100076D01*
X146793600Y-129138780D01*
X146754895Y-129216190D01*
X146754895Y-129371009D01*
X146793600Y-129448419D01*
X146832304Y-129487123D01*
X146909714Y-129525828D01*
X147103238Y-129525828D01*
X147180647Y-129487123D01*
X147219352Y-129448419D01*
X147258057Y-129371009D01*
X147258057Y-129216190D01*
X147219352Y-129138780D01*
X147180647Y-129100076D01*
X147103238Y-129061371D01*
%TO.C,R13*%
X122977485Y-108067695D02*
X122706552Y-107680647D01*
X122513028Y-108067695D02*
X122513028Y-107254895D01*
X122822666Y-107254895D01*
X122900076Y-107293600D01*
X122938780Y-107332304D01*
X122977485Y-107409714D01*
X122977485Y-107525828D01*
X122938780Y-107603238D01*
X122900076Y-107641942D01*
X122822666Y-107680647D01*
X122513028Y-107680647D01*
X123751580Y-108067695D02*
X123287123Y-108067695D01*
X123519352Y-108067695D02*
X123519352Y-107254895D01*
X123441942Y-107371009D01*
X123364533Y-107448419D01*
X123287123Y-107487123D01*
X124022514Y-107254895D02*
X124525676Y-107254895D01*
X124254742Y-107564533D01*
X124370857Y-107564533D01*
X124448266Y-107603238D01*
X124486971Y-107641942D01*
X124525676Y-107719352D01*
X124525676Y-107912876D01*
X124486971Y-107990285D01*
X124448266Y-108028990D01*
X124370857Y-108067695D01*
X124138628Y-108067695D01*
X124061219Y-108028990D01*
X124022514Y-107990285D01*
%TO.C,RV3*%
X119667695Y-109883809D02*
X119280647Y-110154742D01*
X119667695Y-110348266D02*
X118854895Y-110348266D01*
X118854895Y-110038628D01*
X118893600Y-109961219D01*
X118932304Y-109922514D01*
X119009714Y-109883809D01*
X119125828Y-109883809D01*
X119203238Y-109922514D01*
X119241942Y-109961219D01*
X119280647Y-110038628D01*
X119280647Y-110348266D01*
X118854895Y-109651580D02*
X119667695Y-109380647D01*
X118854895Y-109109714D01*
X118854895Y-108916190D02*
X118854895Y-108413028D01*
X119164533Y-108683961D01*
X119164533Y-108567847D01*
X119203238Y-108490438D01*
X119241942Y-108451733D01*
X119319352Y-108413028D01*
X119512876Y-108413028D01*
X119590285Y-108451733D01*
X119628990Y-108490438D01*
X119667695Y-108567847D01*
X119667695Y-108800076D01*
X119628990Y-108877485D01*
X119590285Y-108916190D01*
%TO.C,R14*%
X137477485Y-134667695D02*
X137206552Y-134280647D01*
X137013028Y-134667695D02*
X137013028Y-133854895D01*
X137322666Y-133854895D01*
X137400076Y-133893600D01*
X137438780Y-133932304D01*
X137477485Y-134009714D01*
X137477485Y-134125828D01*
X137438780Y-134203238D01*
X137400076Y-134241942D01*
X137322666Y-134280647D01*
X137013028Y-134280647D01*
X138251580Y-134667695D02*
X137787123Y-134667695D01*
X138019352Y-134667695D02*
X138019352Y-133854895D01*
X137941942Y-133971009D01*
X137864533Y-134048419D01*
X137787123Y-134087123D01*
X138948266Y-134125828D02*
X138948266Y-134667695D01*
X138754742Y-133816190D02*
X138561219Y-134396761D01*
X139064380Y-134396761D01*
%TO.C,TP1*%
X140074323Y-147602895D02*
X140538780Y-147602895D01*
X140306552Y-148415695D02*
X140306552Y-147602895D01*
X140809714Y-148415695D02*
X140809714Y-147602895D01*
X141119352Y-147602895D01*
X141196761Y-147641600D01*
X141235466Y-147680304D01*
X141274171Y-147757714D01*
X141274171Y-147873828D01*
X141235466Y-147951238D01*
X141196761Y-147989942D01*
X141119352Y-148028647D01*
X140809714Y-148028647D01*
X142048266Y-148415695D02*
X141583809Y-148415695D01*
X141816038Y-148415695D02*
X141816038Y-147602895D01*
X141738628Y-147719009D01*
X141661219Y-147796419D01*
X141583809Y-147835123D01*
%TO.C,R4*%
X123764533Y-103167695D02*
X123493600Y-102780647D01*
X123300076Y-103167695D02*
X123300076Y-102354895D01*
X123609714Y-102354895D01*
X123687123Y-102393600D01*
X123725828Y-102432304D01*
X123764533Y-102509714D01*
X123764533Y-102625828D01*
X123725828Y-102703238D01*
X123687123Y-102741942D01*
X123609714Y-102780647D01*
X123300076Y-102780647D01*
X124461219Y-102625828D02*
X124461219Y-103167695D01*
X124267695Y-102316190D02*
X124074171Y-102896761D01*
X124577333Y-102896761D01*
%TO.C,C18*%
X148990285Y-99822514D02*
X149028990Y-99861219D01*
X149067695Y-99977333D01*
X149067695Y-100054742D01*
X149028990Y-100170857D01*
X148951580Y-100248266D01*
X148874171Y-100286971D01*
X148719352Y-100325676D01*
X148603238Y-100325676D01*
X148448419Y-100286971D01*
X148371009Y-100248266D01*
X148293600Y-100170857D01*
X148254895Y-100054742D01*
X148254895Y-99977333D01*
X148293600Y-99861219D01*
X148332304Y-99822514D01*
X149067695Y-99048419D02*
X149067695Y-99512876D01*
X149067695Y-99280647D02*
X148254895Y-99280647D01*
X148371009Y-99358057D01*
X148448419Y-99435466D01*
X148487123Y-99512876D01*
X148603238Y-98583961D02*
X148564533Y-98661371D01*
X148525828Y-98700076D01*
X148448419Y-98738780D01*
X148409714Y-98738780D01*
X148332304Y-98700076D01*
X148293600Y-98661371D01*
X148254895Y-98583961D01*
X148254895Y-98429142D01*
X148293600Y-98351733D01*
X148332304Y-98313028D01*
X148409714Y-98274323D01*
X148448419Y-98274323D01*
X148525828Y-98313028D01*
X148564533Y-98351733D01*
X148603238Y-98429142D01*
X148603238Y-98583961D01*
X148641942Y-98661371D01*
X148680647Y-98700076D01*
X148758057Y-98738780D01*
X148912876Y-98738780D01*
X148990285Y-98700076D01*
X149028990Y-98661371D01*
X149067695Y-98583961D01*
X149067695Y-98429142D01*
X149028990Y-98351733D01*
X148990285Y-98313028D01*
X148912876Y-98274323D01*
X148758057Y-98274323D01*
X148680647Y-98313028D01*
X148641942Y-98351733D01*
X148603238Y-98429142D01*
%TO.C,R9*%
X123064533Y-139417695D02*
X122793600Y-139030647D01*
X122600076Y-139417695D02*
X122600076Y-138604895D01*
X122909714Y-138604895D01*
X122987123Y-138643600D01*
X123025828Y-138682304D01*
X123064533Y-138759714D01*
X123064533Y-138875828D01*
X123025828Y-138953238D01*
X122987123Y-138991942D01*
X122909714Y-139030647D01*
X122600076Y-139030647D01*
X123451580Y-139417695D02*
X123606400Y-139417695D01*
X123683809Y-139378990D01*
X123722514Y-139340285D01*
X123799923Y-139224171D01*
X123838628Y-139069352D01*
X123838628Y-138759714D01*
X123799923Y-138682304D01*
X123761219Y-138643600D01*
X123683809Y-138604895D01*
X123528990Y-138604895D01*
X123451580Y-138643600D01*
X123412876Y-138682304D01*
X123374171Y-138759714D01*
X123374171Y-138953238D01*
X123412876Y-139030647D01*
X123451580Y-139069352D01*
X123528990Y-139108057D01*
X123683809Y-139108057D01*
X123761219Y-139069352D01*
X123799923Y-139030647D01*
X123838628Y-138953238D01*
%TO.C,C4*%
X119164533Y-133140285D02*
X119125828Y-133178990D01*
X119009714Y-133217695D01*
X118932304Y-133217695D01*
X118816190Y-133178990D01*
X118738780Y-133101580D01*
X118700076Y-133024171D01*
X118661371Y-132869352D01*
X118661371Y-132753238D01*
X118700076Y-132598419D01*
X118738780Y-132521009D01*
X118816190Y-132443600D01*
X118932304Y-132404895D01*
X119009714Y-132404895D01*
X119125828Y-132443600D01*
X119164533Y-132482304D01*
X119861219Y-132675828D02*
X119861219Y-133217695D01*
X119667695Y-132366190D02*
X119474171Y-132946761D01*
X119977333Y-132946761D01*
%TO.C,U1*%
X133380723Y-114954895D02*
X133380723Y-115612876D01*
X133419428Y-115690285D01*
X133458133Y-115728990D01*
X133535542Y-115767695D01*
X133690361Y-115767695D01*
X133767771Y-115728990D01*
X133806476Y-115690285D01*
X133845180Y-115612876D01*
X133845180Y-114954895D01*
X134657980Y-115767695D02*
X134193523Y-115767695D01*
X134425752Y-115767695D02*
X134425752Y-114954895D01*
X134348342Y-115071009D01*
X134270933Y-115148419D01*
X134193523Y-115187123D01*
%TO.C,R31*%
X139377485Y-103567695D02*
X139106552Y-103180647D01*
X138913028Y-103567695D02*
X138913028Y-102754895D01*
X139222666Y-102754895D01*
X139300076Y-102793600D01*
X139338780Y-102832304D01*
X139377485Y-102909714D01*
X139377485Y-103025828D01*
X139338780Y-103103238D01*
X139300076Y-103141942D01*
X139222666Y-103180647D01*
X138913028Y-103180647D01*
X139648419Y-102754895D02*
X140151580Y-102754895D01*
X139880647Y-103064533D01*
X139996761Y-103064533D01*
X140074171Y-103103238D01*
X140112876Y-103141942D01*
X140151580Y-103219352D01*
X140151580Y-103412876D01*
X140112876Y-103490285D01*
X140074171Y-103528990D01*
X139996761Y-103567695D01*
X139764533Y-103567695D01*
X139687123Y-103528990D01*
X139648419Y-103490285D01*
X140925676Y-103567695D02*
X140461219Y-103567695D01*
X140693447Y-103567695D02*
X140693447Y-102754895D01*
X140616038Y-102871009D01*
X140538628Y-102948419D01*
X140461219Y-102987123D01*
%TO.C,C24*%
X147877485Y-126290285D02*
X147838780Y-126328990D01*
X147722666Y-126367695D01*
X147645257Y-126367695D01*
X147529142Y-126328990D01*
X147451733Y-126251580D01*
X147413028Y-126174171D01*
X147374323Y-126019352D01*
X147374323Y-125903238D01*
X147413028Y-125748419D01*
X147451733Y-125671009D01*
X147529142Y-125593600D01*
X147645257Y-125554895D01*
X147722666Y-125554895D01*
X147838780Y-125593600D01*
X147877485Y-125632304D01*
X148187123Y-125632304D02*
X148225828Y-125593600D01*
X148303238Y-125554895D01*
X148496761Y-125554895D01*
X148574171Y-125593600D01*
X148612876Y-125632304D01*
X148651580Y-125709714D01*
X148651580Y-125787123D01*
X148612876Y-125903238D01*
X148148419Y-126367695D01*
X148651580Y-126367695D01*
X149348266Y-125825828D02*
X149348266Y-126367695D01*
X149154742Y-125516190D02*
X148961219Y-126096761D01*
X149464380Y-126096761D01*
%TO.C,R7*%
X123764533Y-96467695D02*
X123493600Y-96080647D01*
X123300076Y-96467695D02*
X123300076Y-95654895D01*
X123609714Y-95654895D01*
X123687123Y-95693600D01*
X123725828Y-95732304D01*
X123764533Y-95809714D01*
X123764533Y-95925828D01*
X123725828Y-96003238D01*
X123687123Y-96041942D01*
X123609714Y-96080647D01*
X123300076Y-96080647D01*
X124035466Y-95654895D02*
X124577333Y-95654895D01*
X124228990Y-96467695D01*
%TO.C,D2*%
X117900076Y-146967695D02*
X117900076Y-146154895D01*
X118093600Y-146154895D01*
X118209714Y-146193600D01*
X118287123Y-146271009D01*
X118325828Y-146348419D01*
X118364533Y-146503238D01*
X118364533Y-146619352D01*
X118325828Y-146774171D01*
X118287123Y-146851580D01*
X118209714Y-146928990D01*
X118093600Y-146967695D01*
X117900076Y-146967695D01*
X118674171Y-146232304D02*
X118712876Y-146193600D01*
X118790285Y-146154895D01*
X118983809Y-146154895D01*
X119061219Y-146193600D01*
X119099923Y-146232304D01*
X119138628Y-146309714D01*
X119138628Y-146387123D01*
X119099923Y-146503238D01*
X118635466Y-146967695D01*
X119138628Y-146967695D01*
%TO.C,D1*%
X125200076Y-143367695D02*
X125200076Y-142554895D01*
X125393600Y-142554895D01*
X125509714Y-142593600D01*
X125587123Y-142671009D01*
X125625828Y-142748419D01*
X125664533Y-142903238D01*
X125664533Y-143019352D01*
X125625828Y-143174171D01*
X125587123Y-143251580D01*
X125509714Y-143328990D01*
X125393600Y-143367695D01*
X125200076Y-143367695D01*
X126438628Y-143367695D02*
X125974171Y-143367695D01*
X126206400Y-143367695D02*
X126206400Y-142554895D01*
X126128990Y-142671009D01*
X126051580Y-142748419D01*
X125974171Y-142787123D01*
%TO.C,C7*%
X115490285Y-134035466D02*
X115528990Y-134074171D01*
X115567695Y-134190285D01*
X115567695Y-134267695D01*
X115528990Y-134383809D01*
X115451580Y-134461219D01*
X115374171Y-134499923D01*
X115219352Y-134538628D01*
X115103238Y-134538628D01*
X114948419Y-134499923D01*
X114871009Y-134461219D01*
X114793600Y-134383809D01*
X114754895Y-134267695D01*
X114754895Y-134190285D01*
X114793600Y-134074171D01*
X114832304Y-134035466D01*
X114754895Y-133764533D02*
X114754895Y-133222666D01*
X115567695Y-133571009D01*
%TO.C,R10*%
X137477485Y-138867695D02*
X137206552Y-138480647D01*
X137013028Y-138867695D02*
X137013028Y-138054895D01*
X137322666Y-138054895D01*
X137400076Y-138093600D01*
X137438780Y-138132304D01*
X137477485Y-138209714D01*
X137477485Y-138325828D01*
X137438780Y-138403238D01*
X137400076Y-138441942D01*
X137322666Y-138480647D01*
X137013028Y-138480647D01*
X138251580Y-138867695D02*
X137787123Y-138867695D01*
X138019352Y-138867695D02*
X138019352Y-138054895D01*
X137941942Y-138171009D01*
X137864533Y-138248419D01*
X137787123Y-138287123D01*
X138754742Y-138054895D02*
X138832152Y-138054895D01*
X138909561Y-138093600D01*
X138948266Y-138132304D01*
X138986971Y-138209714D01*
X139025676Y-138364533D01*
X139025676Y-138558057D01*
X138986971Y-138712876D01*
X138948266Y-138790285D01*
X138909561Y-138828990D01*
X138832152Y-138867695D01*
X138754742Y-138867695D01*
X138677333Y-138828990D01*
X138638628Y-138790285D01*
X138599923Y-138712876D01*
X138561219Y-138558057D01*
X138561219Y-138364533D01*
X138599923Y-138209714D01*
X138638628Y-138132304D01*
X138677333Y-138093600D01*
X138754742Y-138054895D01*
%TO.C,D3*%
X134900076Y-125167695D02*
X134900076Y-124354895D01*
X135093600Y-124354895D01*
X135209714Y-124393600D01*
X135287123Y-124471009D01*
X135325828Y-124548419D01*
X135364533Y-124703238D01*
X135364533Y-124819352D01*
X135325828Y-124974171D01*
X135287123Y-125051580D01*
X135209714Y-125128990D01*
X135093600Y-125167695D01*
X134900076Y-125167695D01*
X135635466Y-124354895D02*
X136138628Y-124354895D01*
X135867695Y-124664533D01*
X135983809Y-124664533D01*
X136061219Y-124703238D01*
X136099923Y-124741942D01*
X136138628Y-124819352D01*
X136138628Y-125012876D01*
X136099923Y-125090285D01*
X136061219Y-125128990D01*
X135983809Y-125167695D01*
X135751580Y-125167695D01*
X135674171Y-125128990D01*
X135635466Y-125090285D01*
%TO.C,R2*%
X130367695Y-143435466D02*
X129980647Y-143706400D01*
X130367695Y-143899923D02*
X129554895Y-143899923D01*
X129554895Y-143590285D01*
X129593600Y-143512876D01*
X129632304Y-143474171D01*
X129709714Y-143435466D01*
X129825828Y-143435466D01*
X129903238Y-143474171D01*
X129941942Y-143512876D01*
X129980647Y-143590285D01*
X129980647Y-143899923D01*
X129632304Y-143125828D02*
X129593600Y-143087123D01*
X129554895Y-143009714D01*
X129554895Y-142816190D01*
X129593600Y-142738780D01*
X129632304Y-142700076D01*
X129709714Y-142661371D01*
X129787123Y-142661371D01*
X129903238Y-142700076D01*
X130367695Y-143164533D01*
X130367695Y-142661371D01*
%TO.C,C8*%
X138164533Y-136690285D02*
X138125828Y-136728990D01*
X138009714Y-136767695D01*
X137932304Y-136767695D01*
X137816190Y-136728990D01*
X137738780Y-136651580D01*
X137700076Y-136574171D01*
X137661371Y-136419352D01*
X137661371Y-136303238D01*
X137700076Y-136148419D01*
X137738780Y-136071009D01*
X137816190Y-135993600D01*
X137932304Y-135954895D01*
X138009714Y-135954895D01*
X138125828Y-135993600D01*
X138164533Y-136032304D01*
X138628990Y-136303238D02*
X138551580Y-136264533D01*
X138512876Y-136225828D01*
X138474171Y-136148419D01*
X138474171Y-136109714D01*
X138512876Y-136032304D01*
X138551580Y-135993600D01*
X138628990Y-135954895D01*
X138783809Y-135954895D01*
X138861219Y-135993600D01*
X138899923Y-136032304D01*
X138938628Y-136109714D01*
X138938628Y-136148419D01*
X138899923Y-136225828D01*
X138861219Y-136264533D01*
X138783809Y-136303238D01*
X138628990Y-136303238D01*
X138551580Y-136341942D01*
X138512876Y-136380647D01*
X138474171Y-136458057D01*
X138474171Y-136612876D01*
X138512876Y-136690285D01*
X138551580Y-136728990D01*
X138628990Y-136767695D01*
X138783809Y-136767695D01*
X138861219Y-136728990D01*
X138899923Y-136690285D01*
X138938628Y-136612876D01*
X138938628Y-136458057D01*
X138899923Y-136380647D01*
X138861219Y-136341942D01*
X138783809Y-136303238D01*
%TO.C,R15*%
X135777485Y-136867695D02*
X135506552Y-136480647D01*
X135313028Y-136867695D02*
X135313028Y-136054895D01*
X135622666Y-136054895D01*
X135700076Y-136093600D01*
X135738780Y-136132304D01*
X135777485Y-136209714D01*
X135777485Y-136325828D01*
X135738780Y-136403238D01*
X135700076Y-136441942D01*
X135622666Y-136480647D01*
X135313028Y-136480647D01*
X136551580Y-136867695D02*
X136087123Y-136867695D01*
X136319352Y-136867695D02*
X136319352Y-136054895D01*
X136241942Y-136171009D01*
X136164533Y-136248419D01*
X136087123Y-136287123D01*
X137286971Y-136054895D02*
X136899923Y-136054895D01*
X136861219Y-136441942D01*
X136899923Y-136403238D01*
X136977333Y-136364533D01*
X137170857Y-136364533D01*
X137248266Y-136403238D01*
X137286971Y-136441942D01*
X137325676Y-136519352D01*
X137325676Y-136712876D01*
X137286971Y-136790285D01*
X137248266Y-136828990D01*
X137170857Y-136867695D01*
X136977333Y-136867695D01*
X136899923Y-136828990D01*
X136861219Y-136790285D01*
%TO.C,R27*%
X129467695Y-120022514D02*
X129080647Y-120293447D01*
X129467695Y-120486971D02*
X128654895Y-120486971D01*
X128654895Y-120177333D01*
X128693600Y-120099923D01*
X128732304Y-120061219D01*
X128809714Y-120022514D01*
X128925828Y-120022514D01*
X129003238Y-120061219D01*
X129041942Y-120099923D01*
X129080647Y-120177333D01*
X129080647Y-120486971D01*
X128732304Y-119712876D02*
X128693600Y-119674171D01*
X128654895Y-119596761D01*
X128654895Y-119403238D01*
X128693600Y-119325828D01*
X128732304Y-119287123D01*
X128809714Y-119248419D01*
X128887123Y-119248419D01*
X129003238Y-119287123D01*
X129467695Y-119751580D01*
X129467695Y-119248419D01*
X128654895Y-118977485D02*
X128654895Y-118435619D01*
X129467695Y-118783961D01*
%TO.C,R5*%
X123864533Y-118167695D02*
X123593600Y-117780647D01*
X123400076Y-118167695D02*
X123400076Y-117354895D01*
X123709714Y-117354895D01*
X123787123Y-117393600D01*
X123825828Y-117432304D01*
X123864533Y-117509714D01*
X123864533Y-117625828D01*
X123825828Y-117703238D01*
X123787123Y-117741942D01*
X123709714Y-117780647D01*
X123400076Y-117780647D01*
X124599923Y-117354895D02*
X124212876Y-117354895D01*
X124174171Y-117741942D01*
X124212876Y-117703238D01*
X124290285Y-117664533D01*
X124483809Y-117664533D01*
X124561219Y-117703238D01*
X124599923Y-117741942D01*
X124638628Y-117819352D01*
X124638628Y-118012876D01*
X124599923Y-118090285D01*
X124561219Y-118128990D01*
X124483809Y-118167695D01*
X124290285Y-118167695D01*
X124212876Y-118128990D01*
X124174171Y-118090285D01*
%TO.C,R25*%
X139477485Y-94867695D02*
X139206552Y-94480647D01*
X139013028Y-94867695D02*
X139013028Y-94054895D01*
X139322666Y-94054895D01*
X139400076Y-94093600D01*
X139438780Y-94132304D01*
X139477485Y-94209714D01*
X139477485Y-94325828D01*
X139438780Y-94403238D01*
X139400076Y-94441942D01*
X139322666Y-94480647D01*
X139013028Y-94480647D01*
X139787123Y-94132304D02*
X139825828Y-94093600D01*
X139903238Y-94054895D01*
X140096761Y-94054895D01*
X140174171Y-94093600D01*
X140212876Y-94132304D01*
X140251580Y-94209714D01*
X140251580Y-94287123D01*
X140212876Y-94403238D01*
X139748419Y-94867695D01*
X140251580Y-94867695D01*
X140986971Y-94054895D02*
X140599923Y-94054895D01*
X140561219Y-94441942D01*
X140599923Y-94403238D01*
X140677333Y-94364533D01*
X140870857Y-94364533D01*
X140948266Y-94403238D01*
X140986971Y-94441942D01*
X141025676Y-94519352D01*
X141025676Y-94712876D01*
X140986971Y-94790285D01*
X140948266Y-94828990D01*
X140870857Y-94867695D01*
X140677333Y-94867695D01*
X140599923Y-94828990D01*
X140561219Y-94790285D01*
%TO.C,C2*%
X123764533Y-98490285D02*
X123725828Y-98528990D01*
X123609714Y-98567695D01*
X123532304Y-98567695D01*
X123416190Y-98528990D01*
X123338780Y-98451580D01*
X123300076Y-98374171D01*
X123261371Y-98219352D01*
X123261371Y-98103238D01*
X123300076Y-97948419D01*
X123338780Y-97871009D01*
X123416190Y-97793600D01*
X123532304Y-97754895D01*
X123609714Y-97754895D01*
X123725828Y-97793600D01*
X123764533Y-97832304D01*
X124074171Y-97832304D02*
X124112876Y-97793600D01*
X124190285Y-97754895D01*
X124383809Y-97754895D01*
X124461219Y-97793600D01*
X124499923Y-97832304D01*
X124538628Y-97909714D01*
X124538628Y-97987123D01*
X124499923Y-98103238D01*
X124035466Y-98567695D01*
X124538628Y-98567695D01*
%TO.C,D7*%
X145167695Y-116699923D02*
X144354895Y-116699923D01*
X144354895Y-116506400D01*
X144393600Y-116390285D01*
X144471009Y-116312876D01*
X144548419Y-116274171D01*
X144703238Y-116235466D01*
X144819352Y-116235466D01*
X144974171Y-116274171D01*
X145051580Y-116312876D01*
X145128990Y-116390285D01*
X145167695Y-116506400D01*
X145167695Y-116699923D01*
X144354895Y-115964533D02*
X144354895Y-115422666D01*
X145167695Y-115771009D01*
%TO.C,R6*%
X138264533Y-141267695D02*
X137993600Y-140880647D01*
X137800076Y-141267695D02*
X137800076Y-140454895D01*
X138109714Y-140454895D01*
X138187123Y-140493600D01*
X138225828Y-140532304D01*
X138264533Y-140609714D01*
X138264533Y-140725828D01*
X138225828Y-140803238D01*
X138187123Y-140841942D01*
X138109714Y-140880647D01*
X137800076Y-140880647D01*
X138961219Y-140454895D02*
X138806400Y-140454895D01*
X138728990Y-140493600D01*
X138690285Y-140532304D01*
X138612876Y-140648419D01*
X138574171Y-140803238D01*
X138574171Y-141112876D01*
X138612876Y-141190285D01*
X138651580Y-141228990D01*
X138728990Y-141267695D01*
X138883809Y-141267695D01*
X138961219Y-141228990D01*
X138999923Y-141190285D01*
X139038628Y-141112876D01*
X139038628Y-140919352D01*
X138999923Y-140841942D01*
X138961219Y-140803238D01*
X138883809Y-140764533D01*
X138728990Y-140764533D01*
X138651580Y-140803238D01*
X138612876Y-140841942D01*
X138574171Y-140919352D01*
D11*
%TO.C,C10*%
X141261252Y-104865000D02*
X140738748Y-104865000D01*
X141261252Y-106335000D02*
X140738748Y-106335000D01*
%TO.C,D8*%
X145700000Y-127450000D02*
X143700000Y-127450000D01*
X143700000Y-127450000D02*
X143700000Y-131350000D01*
X145700000Y-127450000D02*
X145700000Y-131350000D01*
%TO.C,C22*%
X144938748Y-143735000D02*
X145461252Y-143735000D01*
X144938748Y-142265000D02*
X145461252Y-142265000D01*
%TO.C,R34*%
X149627064Y-141635000D02*
X149172936Y-141635000D01*
X149627064Y-140165000D02*
X149172936Y-140165000D01*
%TO.C,C3*%
X126861252Y-101335000D02*
X126338748Y-101335000D01*
X126861252Y-99865000D02*
X126338748Y-99865000D01*
%TO.C,R17*%
X141227064Y-111665000D02*
X140772936Y-111665000D01*
X141227064Y-113135000D02*
X140772936Y-113135000D01*
%TO.C,C19*%
X130538748Y-126835000D02*
X131061252Y-126835000D01*
X130538748Y-125365000D02*
X131061252Y-125365000D01*
%TO.C,Q1*%
X133635000Y-137740000D02*
X130900000Y-137740000D01*
X133635000Y-139400000D02*
X133635000Y-140060000D01*
X133635000Y-137730000D02*
X133635000Y-138400000D01*
X132225000Y-140060000D02*
X133635000Y-140060000D01*
%TO.C,Q4*%
X145200000Y-147460000D02*
X144550000Y-147460000D01*
X145200000Y-147460000D02*
X146875000Y-147460000D01*
X145200000Y-144340000D02*
X145850000Y-144340000D01*
X145200000Y-144340000D02*
X144550000Y-144340000D01*
%TO.C,U2*%
X133700000Y-97540000D02*
X135650000Y-97540000D01*
X133700000Y-102660000D02*
X135650000Y-102660000D01*
X133700000Y-97540000D02*
X130250000Y-97540000D01*
X133700000Y-102660000D02*
X131750000Y-102660000D01*
%TO.C,Q2*%
X133200000Y-132040000D02*
X132550000Y-132040000D01*
X133200000Y-132040000D02*
X133850000Y-132040000D01*
X133200000Y-135160000D02*
X132550000Y-135160000D01*
X133200000Y-135160000D02*
X134875000Y-135160000D01*
%TO.C,R16*%
X126372936Y-133865000D02*
X126827064Y-133865000D01*
X126372936Y-135335000D02*
X126827064Y-135335000D01*
%TO.C,R21*%
X141227064Y-107065000D02*
X140772936Y-107065000D01*
X141227064Y-108535000D02*
X140772936Y-108535000D01*
%TO.C,RV5*%
X149270000Y-130030000D02*
X150600000Y-130030000D01*
X149270000Y-137770000D02*
X151930000Y-137770000D01*
X149270000Y-132630000D02*
X149270000Y-137770000D01*
X151930000Y-132630000D02*
X151930000Y-137770000D01*
X149270000Y-132630000D02*
X151930000Y-132630000D01*
X149270000Y-131360000D02*
X149270000Y-130030000D01*
%TO.C,R8*%
X121627064Y-142365000D02*
X121172936Y-142365000D01*
X121627064Y-143835000D02*
X121172936Y-143835000D01*
%TO.C,R22*%
X140772936Y-122535000D02*
X141227064Y-122535000D01*
X140772936Y-121065000D02*
X141227064Y-121065000D01*
%TO.C,R26*%
X140772936Y-129365000D02*
X141227064Y-129365000D01*
X140772936Y-130835000D02*
X141227064Y-130835000D01*
%TO.C,C21*%
X141261252Y-116665000D02*
X140738748Y-116665000D01*
X141261252Y-118135000D02*
X140738748Y-118135000D01*
%TO.C,C5*%
X126338748Y-106325000D02*
X126861252Y-106325000D01*
X126338748Y-104855000D02*
X126861252Y-104855000D01*
%TO.C,R37*%
X144972936Y-140165000D02*
X145427064Y-140165000D01*
X144972936Y-141635000D02*
X145427064Y-141635000D01*
%TO.C,C6*%
X126861252Y-109355000D02*
X126338748Y-109355000D01*
X126861252Y-110825000D02*
X126338748Y-110825000D01*
%TO.C,R18*%
X126372936Y-133235000D02*
X126827064Y-133235000D01*
X126372936Y-131765000D02*
X126827064Y-131765000D01*
%TO.C,R38*%
X145627064Y-121065000D02*
X145172936Y-121065000D01*
X145627064Y-122535000D02*
X145172936Y-122535000D01*
%TO.C,R28*%
X126827064Y-122735000D02*
X126372936Y-122735000D01*
X126827064Y-121265000D02*
X126372936Y-121265000D01*
%TO.C,D4*%
X133250000Y-123600000D02*
X137150000Y-123600000D01*
X133250000Y-121600000D02*
X137150000Y-121600000D01*
X133250000Y-121600000D02*
X133250000Y-123600000D01*
%TO.C,C13*%
X116740000Y-117260000D02*
X116740000Y-115560000D01*
X121195563Y-111740000D02*
X116740000Y-111740000D01*
X122260000Y-112804437D02*
X121195563Y-111740000D01*
X121195563Y-117260000D02*
X116740000Y-117260000D01*
X122812500Y-116497500D02*
X122812500Y-115872500D01*
X122260000Y-116195563D02*
X122260000Y-115560000D01*
X116740000Y-111740000D02*
X116740000Y-113440000D01*
X123125000Y-116185000D02*
X122500000Y-116185000D01*
X122260000Y-116195563D02*
X121195563Y-117260000D01*
X122260000Y-112804437D02*
X122260000Y-113440000D01*
%TO.C,R29*%
X141227064Y-123165000D02*
X140772936Y-123165000D01*
X141227064Y-124635000D02*
X140772936Y-124635000D01*
%TO.C,C1*%
X140738748Y-143935000D02*
X141261252Y-143935000D01*
X140738748Y-142465000D02*
X141261252Y-142465000D01*
%TO.C,C20*%
X149138748Y-146665000D02*
X149661252Y-146665000D01*
X149138748Y-148135000D02*
X149661252Y-148135000D01*
%TO.C,R33*%
X149627064Y-144465000D02*
X149172936Y-144465000D01*
X149627064Y-145935000D02*
X149172936Y-145935000D01*
%TO.C,RV4*%
X145470000Y-106645000D02*
X145470000Y-111785000D01*
X148130000Y-106645000D02*
X148130000Y-111785000D01*
X145470000Y-104045000D02*
X146800000Y-104045000D01*
X145470000Y-111785000D02*
X148130000Y-111785000D01*
X145470000Y-105375000D02*
X145470000Y-104045000D01*
X145470000Y-106645000D02*
X148130000Y-106645000D01*
%TO.C,R24*%
X126372936Y-124735000D02*
X126827064Y-124735000D01*
X126372936Y-123265000D02*
X126827064Y-123265000D01*
%TO.C,R35*%
X141227064Y-115935000D02*
X140772936Y-115935000D01*
X141227064Y-114465000D02*
X140772936Y-114465000D01*
%TO.C,C17*%
X140738748Y-128735000D02*
X141261252Y-128735000D01*
X140738748Y-127265000D02*
X141261252Y-127265000D01*
%TO.C,R19*%
X141227064Y-131465000D02*
X140772936Y-131465000D01*
X141227064Y-132935000D02*
X140772936Y-132935000D01*
%TO.C,R32*%
X131027064Y-123265000D02*
X130572936Y-123265000D01*
X131027064Y-124735000D02*
X130572936Y-124735000D01*
%TO.C,C12*%
X115890000Y-124610000D02*
X115890000Y-122260000D01*
X123343750Y-123441250D02*
X123343750Y-122653750D01*
X121645563Y-117790000D02*
X115890000Y-117790000D01*
X115890000Y-117790000D02*
X115890000Y-120140000D01*
X122710000Y-123545563D02*
X121645563Y-124610000D01*
X122710000Y-118854437D02*
X121645563Y-117790000D01*
X121645563Y-124610000D02*
X115890000Y-124610000D01*
X122710000Y-123545563D02*
X122710000Y-122260000D01*
X122710000Y-118854437D02*
X122710000Y-120140000D01*
X123737500Y-123047500D02*
X122950000Y-123047500D01*
%TO.C,U3*%
X133900000Y-107140000D02*
X135850000Y-107140000D01*
X133900000Y-107140000D02*
X130450000Y-107140000D01*
X133900000Y-112260000D02*
X131950000Y-112260000D01*
X133900000Y-112260000D02*
X135850000Y-112260000D01*
%TO.C,RV2*%
X132645000Y-95630000D02*
X132645000Y-92970000D01*
X132645000Y-92970000D02*
X137785000Y-92970000D01*
X137785000Y-95630000D02*
X137785000Y-92970000D01*
X132645000Y-95630000D02*
X137785000Y-95630000D01*
X131375000Y-95630000D02*
X130045000Y-95630000D01*
X130045000Y-95630000D02*
X130045000Y-94300000D01*
%TO.C,C9*%
X126861252Y-137435000D02*
X126338748Y-137435000D01*
X126861252Y-135965000D02*
X126338748Y-135965000D01*
%TO.C,J1*%
X128730000Y-145170000D02*
X138950000Y-145170000D01*
X138950000Y-147830000D02*
X138950000Y-145170000D01*
X126130000Y-145170000D02*
X127460000Y-145170000D01*
X126130000Y-146500000D02*
X126130000Y-145170000D01*
X128730000Y-147830000D02*
X138950000Y-147830000D01*
X128730000Y-147830000D02*
X128730000Y-145170000D01*
%TO.C,R11*%
X126372936Y-111655000D02*
X126827064Y-111655000D01*
X126372936Y-113125000D02*
X126827064Y-113125000D01*
%TO.C,R3*%
X132627064Y-142035000D02*
X132172936Y-142035000D01*
X132627064Y-140565000D02*
X132172936Y-140565000D01*
%TO.C,R20*%
X126372936Y-129665000D02*
X126827064Y-129665000D01*
X126372936Y-131135000D02*
X126827064Y-131135000D01*
%TO.C,R23*%
X126372936Y-125365000D02*
X126827064Y-125365000D01*
X126372936Y-126835000D02*
X126827064Y-126835000D01*
%TO.C,C15*%
X140738748Y-120335000D02*
X141261252Y-120335000D01*
X140738748Y-118865000D02*
X141261252Y-118865000D01*
%TO.C,RV1*%
X115570000Y-96330000D02*
X118230000Y-96330000D01*
X115570000Y-93730000D02*
X116900000Y-93730000D01*
X115570000Y-96330000D02*
X115570000Y-101470000D01*
X115570000Y-101470000D02*
X118230000Y-101470000D01*
X118230000Y-96330000D02*
X118230000Y-101470000D01*
X115570000Y-95060000D02*
X115570000Y-93730000D01*
%TO.C,R12*%
X119627064Y-141435000D02*
X119172936Y-141435000D01*
X119627064Y-139965000D02*
X119172936Y-139965000D01*
%TO.C,C11*%
X140738748Y-110835000D02*
X141261252Y-110835000D01*
X140738748Y-109365000D02*
X141261252Y-109365000D01*
%TO.C,R36*%
X149627064Y-142265000D02*
X149172936Y-142265000D01*
X149627064Y-143735000D02*
X149172936Y-143735000D01*
%TO.C,C14*%
X126861252Y-127465000D02*
X126338748Y-127465000D01*
X126861252Y-128935000D02*
X126338748Y-128935000D01*
%TO.C,C16*%
X139638748Y-98465000D02*
X140161252Y-98465000D01*
X139638748Y-99935000D02*
X140161252Y-99935000D01*
%TO.C,D5*%
X137750000Y-128200000D02*
X133850000Y-128200000D01*
X137750000Y-128200000D02*
X137750000Y-126200000D01*
X137750000Y-126200000D02*
X133850000Y-126200000D01*
%TO.C,R30*%
X140772936Y-125165000D02*
X141227064Y-125165000D01*
X140772936Y-126635000D02*
X141227064Y-126635000D01*
%TO.C,D6*%
X146200000Y-113850000D02*
X146200000Y-117750000D01*
X148200000Y-113850000D02*
X146200000Y-113850000D01*
X148200000Y-113850000D02*
X148200000Y-117750000D01*
%TO.C,R1*%
X145172936Y-123165000D02*
X145627064Y-123165000D01*
X145172936Y-124635000D02*
X145627064Y-124635000D01*
%TO.C,C23*%
X145138748Y-118865000D02*
X145661252Y-118865000D01*
X145138748Y-120335000D02*
X145661252Y-120335000D01*
%TO.C,Q3*%
X133200000Y-128540000D02*
X132550000Y-128540000D01*
X133200000Y-128540000D02*
X133850000Y-128540000D01*
X133200000Y-131660000D02*
X132550000Y-131660000D01*
X133200000Y-131660000D02*
X134875000Y-131660000D01*
%TO.C,D9*%
X148200000Y-131950000D02*
X148200000Y-128050000D01*
X146200000Y-131950000D02*
X148200000Y-131950000D01*
X146200000Y-131950000D02*
X146200000Y-128050000D01*
%TO.C,R13*%
X126372936Y-108525000D02*
X126827064Y-108525000D01*
X126372936Y-107055000D02*
X126827064Y-107055000D01*
%TO.C,RV3*%
X118230000Y-105245000D02*
X118230000Y-110385000D01*
X115570000Y-102645000D02*
X116900000Y-102645000D01*
X115570000Y-105245000D02*
X115570000Y-110385000D01*
X115570000Y-103975000D02*
X115570000Y-102645000D01*
X115570000Y-110385000D02*
X118230000Y-110385000D01*
X115570000Y-105245000D02*
X118230000Y-105245000D01*
%TO.C,R14*%
X141227064Y-135035000D02*
X140772936Y-135035000D01*
X141227064Y-133565000D02*
X140772936Y-133565000D01*
%TO.C,TP1*%
X142050000Y-146400000D02*
G75*
G03*
X142050000Y-146400000I-950000J0D01*
G01*
%TO.C,R4*%
X126372936Y-102065000D02*
X126827064Y-102065000D01*
X126372936Y-103535000D02*
X126827064Y-103535000D01*
%TO.C,C18*%
X146695563Y-96540000D02*
X147760000Y-97604437D01*
X146695563Y-96540000D02*
X146060000Y-96540000D01*
X142240000Y-97604437D02*
X142240000Y-102060000D01*
X143304437Y-96540000D02*
X142240000Y-97604437D01*
X147760000Y-102060000D02*
X146060000Y-102060000D01*
X143304437Y-96540000D02*
X143940000Y-96540000D01*
X146685000Y-95675000D02*
X146685000Y-96300000D01*
X142240000Y-102060000D02*
X143940000Y-102060000D01*
X146997500Y-95987500D02*
X146372500Y-95987500D01*
X147760000Y-97604437D02*
X147760000Y-102060000D01*
%TO.C,R9*%
X122972936Y-141435000D02*
X123427064Y-141435000D01*
X122972936Y-139965000D02*
X123427064Y-139965000D01*
%TO.C,C4*%
X122710000Y-126154437D02*
X121645563Y-125090000D01*
X123737500Y-130347500D02*
X122950000Y-130347500D01*
X115890000Y-131910000D02*
X115890000Y-129560000D01*
X122710000Y-130845563D02*
X121645563Y-131910000D01*
X115890000Y-125090000D02*
X115890000Y-127440000D01*
X123343750Y-130741250D02*
X123343750Y-129953750D01*
X121645563Y-125090000D02*
X115890000Y-125090000D01*
X121645563Y-131910000D02*
X115890000Y-131910000D01*
X122710000Y-130845563D02*
X122710000Y-129560000D01*
X122710000Y-126154437D02*
X122710000Y-127440000D01*
%TO.C,U1*%
X134000000Y-116040000D02*
X135950000Y-116040000D01*
X134000000Y-116040000D02*
X132050000Y-116040000D01*
X134000000Y-121160000D02*
X132050000Y-121160000D01*
X134000000Y-121160000D02*
X137450000Y-121160000D01*
%TO.C,R31*%
X139672936Y-100865000D02*
X140127064Y-100865000D01*
X139672936Y-102335000D02*
X140127064Y-102335000D01*
%TO.C,C24*%
X145138748Y-126735000D02*
X145661252Y-126735000D01*
X145138748Y-125265000D02*
X145661252Y-125265000D01*
%TO.C,R7*%
X126372936Y-95265000D02*
X126827064Y-95265000D01*
X126372936Y-96735000D02*
X126827064Y-96735000D01*
%TO.C,D2*%
X120135000Y-145364000D02*
X120135000Y-145520000D01*
X120135000Y-147680000D02*
X120135000Y-147836000D01*
X122736130Y-145520163D02*
G75*
G03*
X120654039Y-145520000I-1041130J-1079837D01*
G01*
X120654039Y-147680000D02*
G75*
G03*
X122736130Y-147679837I1040961J1080000D01*
G01*
X123367335Y-145521392D02*
G75*
G03*
X120135000Y-145364484I-1672335J-1078609D01*
G01*
X120135000Y-147835516D02*
G75*
G03*
X123367335Y-147678608I1560000J1235517D01*
G01*
%TO.C,D1*%
X123550000Y-142000000D02*
X123550000Y-144000000D01*
X123550000Y-144000000D02*
X127450000Y-144000000D01*
X123550000Y-142000000D02*
X127450000Y-142000000D01*
%TO.C,C7*%
X122710000Y-133454437D02*
X122710000Y-134740000D01*
X123737500Y-137647500D02*
X122950000Y-137647500D01*
X121645563Y-139210000D02*
X115890000Y-139210000D01*
X122710000Y-138145563D02*
X122710000Y-136860000D01*
X123343750Y-138041250D02*
X123343750Y-137253750D01*
X115890000Y-132390000D02*
X115890000Y-134740000D01*
X122710000Y-133454437D02*
X121645563Y-132390000D01*
X122710000Y-138145563D02*
X121645563Y-139210000D01*
X115890000Y-139210000D02*
X115890000Y-136860000D01*
X121645563Y-132390000D02*
X115890000Y-132390000D01*
%TO.C,R10*%
X140772936Y-137765000D02*
X141227064Y-137765000D01*
X140772936Y-139235000D02*
X141227064Y-139235000D01*
%TO.C,D3*%
X133250000Y-123800000D02*
X137150000Y-123800000D01*
X133250000Y-123800000D02*
X133250000Y-125800000D01*
X133250000Y-125800000D02*
X137150000Y-125800000D01*
%TO.C,R2*%
X132627064Y-142565000D02*
X132172936Y-142565000D01*
X132627064Y-144035000D02*
X132172936Y-144035000D01*
%TO.C,C8*%
X140738748Y-137135000D02*
X141261252Y-137135000D01*
X140738748Y-135665000D02*
X141261252Y-135665000D01*
%TO.C,R15*%
X133072936Y-135765000D02*
X133527064Y-135765000D01*
X133072936Y-137235000D02*
X133527064Y-137235000D01*
%TO.C,R27*%
X126827064Y-120635000D02*
X126372936Y-120635000D01*
X126827064Y-119165000D02*
X126372936Y-119165000D01*
%TO.C,R5*%
X126372936Y-117065000D02*
X126827064Y-117065000D01*
X126372936Y-118535000D02*
X126827064Y-118535000D01*
%TO.C,R25*%
X139672936Y-97735000D02*
X140127064Y-97735000D01*
X139672936Y-96265000D02*
X140127064Y-96265000D01*
%TO.C,C2*%
X126338748Y-97565000D02*
X126861252Y-97565000D01*
X126338748Y-99035000D02*
X126861252Y-99035000D01*
%TO.C,D7*%
X145700000Y-118350000D02*
X145700000Y-114450000D01*
X143700000Y-118350000D02*
X145700000Y-118350000D01*
X143700000Y-118350000D02*
X143700000Y-114450000D01*
%TO.C,R6*%
X141227064Y-140065000D02*
X140772936Y-140065000D01*
X141227064Y-141535000D02*
X140772936Y-141535000D01*
%TD*%
%LPC*%
D12*
%TO.C,C10*%
X142037500Y-105600000D03*
X139962500Y-105600000D03*
%TD*%
D13*
%TO.C,D8*%
X144700000Y-128050000D03*
X144700000Y-131350000D03*
%TD*%
D14*
%TO.C,C22*%
X144162500Y-143000000D03*
X146237500Y-143000000D03*
%TD*%
D15*
%TO.C,R34*%
X150400000Y-140900000D03*
X148400000Y-140900000D03*
%TD*%
D12*
%TO.C,C3*%
X127637500Y-100600000D03*
X125562500Y-100600000D03*
%TD*%
D15*
%TO.C,R17*%
X142000000Y-112400000D03*
X140000000Y-112400000D03*
%TD*%
D14*
%TO.C,C19*%
X129762500Y-126100000D03*
X131837500Y-126100000D03*
%TD*%
D16*
%TO.C,Q1*%
X131570000Y-138250000D03*
X131570000Y-139550000D03*
X134230000Y-138900000D03*
%TD*%
D17*
%TO.C,Q4*%
X146137500Y-146850000D03*
X146137500Y-144950000D03*
X144262500Y-145900000D03*
%TD*%
D18*
%TO.C,U2*%
X131225000Y-98195000D03*
X131225000Y-99465000D03*
X131225000Y-100735000D03*
X131225000Y-102005000D03*
X136175000Y-102005000D03*
X136175000Y-100735000D03*
X136175000Y-99465000D03*
X136175000Y-98195000D03*
%TD*%
D17*
%TO.C,Q2*%
X134137500Y-134550000D03*
X134137500Y-132650000D03*
X132262500Y-133600000D03*
%TD*%
D19*
%TO.C,R16*%
X125600000Y-134600000D03*
X127600000Y-134600000D03*
%TD*%
D15*
%TO.C,R21*%
X142000000Y-107800000D03*
X140000000Y-107800000D03*
%TD*%
D20*
%TO.C,RV5*%
X150600000Y-131360000D03*
D21*
X150600000Y-133900000D03*
X150600000Y-136440000D03*
%TD*%
D15*
%TO.C,R8*%
X122400000Y-143100000D03*
X120400000Y-143100000D03*
%TD*%
D19*
%TO.C,R22*%
X140000000Y-121800000D03*
X142000000Y-121800000D03*
%TD*%
%TO.C,R26*%
X140000000Y-130100000D03*
X142000000Y-130100000D03*
%TD*%
D12*
%TO.C,C21*%
X142037500Y-117400000D03*
X139962500Y-117400000D03*
%TD*%
D14*
%TO.C,C5*%
X125562500Y-105590000D03*
X127637500Y-105590000D03*
%TD*%
D19*
%TO.C,R37*%
X144200000Y-140900000D03*
X146200000Y-140900000D03*
%TD*%
D12*
%TO.C,C6*%
X127637500Y-110090000D03*
X125562500Y-110090000D03*
%TD*%
D19*
%TO.C,R18*%
X125600000Y-132500000D03*
X127600000Y-132500000D03*
%TD*%
D15*
%TO.C,R38*%
X146400000Y-121800000D03*
X144400000Y-121800000D03*
%TD*%
%TO.C,R28*%
X127600000Y-122000000D03*
X125600000Y-122000000D03*
%TD*%
D22*
%TO.C,D4*%
X133850000Y-122600000D03*
X137150000Y-122600000D03*
%TD*%
D23*
%TO.C,C13*%
X121700000Y-114500000D03*
X117300000Y-114500000D03*
%TD*%
D15*
%TO.C,R29*%
X142000000Y-123900000D03*
X140000000Y-123900000D03*
%TD*%
D14*
%TO.C,C1*%
X139962500Y-143200000D03*
X142037500Y-143200000D03*
%TD*%
%TO.C,C20*%
X148362500Y-147400000D03*
X150437500Y-147400000D03*
%TD*%
D15*
%TO.C,R33*%
X150400000Y-145200000D03*
X148400000Y-145200000D03*
%TD*%
D20*
%TO.C,RV4*%
X146800000Y-105375000D03*
D21*
X146800000Y-107915000D03*
X146800000Y-110455000D03*
%TD*%
D19*
%TO.C,R24*%
X125600000Y-124000000D03*
X127600000Y-124000000D03*
%TD*%
D15*
%TO.C,R35*%
X142000000Y-115200000D03*
X140000000Y-115200000D03*
%TD*%
D14*
%TO.C,C17*%
X139962500Y-128000000D03*
X142037500Y-128000000D03*
%TD*%
D15*
%TO.C,R19*%
X142000000Y-132200000D03*
X140000000Y-132200000D03*
%TD*%
%TO.C,R32*%
X131800000Y-124000000D03*
X129800000Y-124000000D03*
%TD*%
D24*
%TO.C,C12*%
X122100000Y-121200000D03*
X116500000Y-121200000D03*
%TD*%
D18*
%TO.C,U3*%
X131425000Y-107795000D03*
X131425000Y-109065000D03*
X131425000Y-110335000D03*
X131425000Y-111605000D03*
X136375000Y-111605000D03*
X136375000Y-110335000D03*
X136375000Y-109065000D03*
X136375000Y-107795000D03*
%TD*%
D20*
%TO.C,RV2*%
X131375000Y-94300000D03*
D21*
X133915000Y-94300000D03*
X136455000Y-94300000D03*
%TD*%
D12*
%TO.C,C9*%
X127637500Y-136700000D03*
X125562500Y-136700000D03*
%TD*%
D20*
%TO.C,J1*%
X127460000Y-146500000D03*
D21*
X130000000Y-146500000D03*
X132540000Y-146500000D03*
X135080000Y-146500000D03*
X137620000Y-146500000D03*
%TD*%
D19*
%TO.C,R11*%
X125600000Y-112390000D03*
X127600000Y-112390000D03*
%TD*%
D15*
%TO.C,R3*%
X133400000Y-141300000D03*
X131400000Y-141300000D03*
%TD*%
D19*
%TO.C,R20*%
X125600000Y-130400000D03*
X127600000Y-130400000D03*
%TD*%
%TO.C,R23*%
X125600000Y-126100000D03*
X127600000Y-126100000D03*
%TD*%
D14*
%TO.C,C15*%
X139962500Y-119600000D03*
X142037500Y-119600000D03*
%TD*%
D20*
%TO.C,RV1*%
X116900000Y-95060000D03*
D21*
X116900000Y-97600000D03*
X116900000Y-100140000D03*
%TD*%
D15*
%TO.C,R12*%
X120400000Y-140700000D03*
X118400000Y-140700000D03*
%TD*%
D14*
%TO.C,C11*%
X139962500Y-110100000D03*
X142037500Y-110100000D03*
%TD*%
D15*
%TO.C,R36*%
X150400000Y-143000000D03*
X148400000Y-143000000D03*
%TD*%
D12*
%TO.C,C14*%
X127637500Y-128200000D03*
X125562500Y-128200000D03*
%TD*%
D14*
%TO.C,C16*%
X138862500Y-99200000D03*
X140937500Y-99200000D03*
%TD*%
D22*
%TO.C,D5*%
X137150000Y-127200000D03*
X133850000Y-127200000D03*
%TD*%
D19*
%TO.C,R30*%
X140000000Y-125900000D03*
X142000000Y-125900000D03*
%TD*%
D13*
%TO.C,D6*%
X147200000Y-114450000D03*
X147200000Y-117750000D03*
%TD*%
D19*
%TO.C,R1*%
X144400000Y-123900000D03*
X146400000Y-123900000D03*
%TD*%
D14*
%TO.C,C23*%
X144362500Y-119600000D03*
X146437500Y-119600000D03*
%TD*%
D17*
%TO.C,Q3*%
X134137500Y-131050000D03*
X134137500Y-129150000D03*
X132262500Y-130100000D03*
%TD*%
D13*
%TO.C,D9*%
X147200000Y-131350000D03*
X147200000Y-128050000D03*
%TD*%
D19*
%TO.C,R13*%
X125600000Y-107790000D03*
X127600000Y-107790000D03*
%TD*%
D20*
%TO.C,RV3*%
X116900000Y-103975000D03*
D21*
X116900000Y-106515000D03*
X116900000Y-109055000D03*
%TD*%
D15*
%TO.C,R14*%
X142000000Y-134300000D03*
X140000000Y-134300000D03*
%TD*%
D25*
%TO.C,TP1*%
X141100000Y-146400000D03*
%TD*%
D19*
%TO.C,R4*%
X125600000Y-102800000D03*
X127600000Y-102800000D03*
%TD*%
D26*
%TO.C,C18*%
X145000000Y-97100000D03*
X145000000Y-101500000D03*
%TD*%
D19*
%TO.C,R9*%
X122200000Y-140700000D03*
X124200000Y-140700000D03*
%TD*%
D24*
%TO.C,C4*%
X122000000Y-128500000D03*
X116600000Y-128500000D03*
%TD*%
D27*
%TO.C,U1*%
X136475000Y-120505000D03*
X136475000Y-119235000D03*
X136475000Y-117965000D03*
X136475000Y-116695000D03*
X131525000Y-116695000D03*
X131525000Y-117965000D03*
X131525000Y-119235000D03*
X131525000Y-120505000D03*
%TD*%
D19*
%TO.C,R31*%
X138900000Y-101600000D03*
X140900000Y-101600000D03*
%TD*%
D14*
%TO.C,C24*%
X144362500Y-126000000D03*
X146437500Y-126000000D03*
%TD*%
D19*
%TO.C,R7*%
X125600000Y-96000000D03*
X127600000Y-96000000D03*
%TD*%
D28*
%TO.C,D2*%
X120425000Y-146600000D03*
D29*
X122965000Y-146600000D03*
%TD*%
D22*
%TO.C,D1*%
X124150000Y-143000000D03*
X127450000Y-143000000D03*
%TD*%
D24*
%TO.C,C7*%
X122100000Y-135800000D03*
X116500000Y-135800000D03*
%TD*%
D19*
%TO.C,R10*%
X140000000Y-138500000D03*
X142000000Y-138500000D03*
%TD*%
D22*
%TO.C,D3*%
X133850000Y-124800000D03*
X137150000Y-124800000D03*
%TD*%
D15*
%TO.C,R2*%
X133400000Y-143300000D03*
X131400000Y-143300000D03*
%TD*%
D14*
%TO.C,C8*%
X139962500Y-136400000D03*
X142037500Y-136400000D03*
%TD*%
D19*
%TO.C,R15*%
X132300000Y-136500000D03*
X134300000Y-136500000D03*
%TD*%
D15*
%TO.C,R27*%
X127600000Y-119900000D03*
X125600000Y-119900000D03*
%TD*%
D19*
%TO.C,R5*%
X125600000Y-117800000D03*
X127600000Y-117800000D03*
%TD*%
%TO.C,R25*%
X138900000Y-97000000D03*
X140900000Y-97000000D03*
%TD*%
D14*
%TO.C,C2*%
X125562500Y-98300000D03*
X127637500Y-98300000D03*
%TD*%
D13*
%TO.C,D7*%
X144700000Y-117750000D03*
X144700000Y-114450000D03*
%TD*%
D15*
%TO.C,R6*%
X142000000Y-140800000D03*
X140000000Y-140800000D03*
%TD*%
M02*
