M48
; DRILL file {KiCad (6.0.2)} date Sat Aug 13 11:44:49 2022
; FORMAT={-:-/ absolute / inch / decimal}
; #@! TF.CreationDate,2022-08-13T11:44:49+02:00
; #@! TF.GenerationSoftware,Kicad,Pcbnew,(6.0.2)
; #@! TF.FileFunction,Plated,1,2,PTH
FMAT,2
INCH
; #@! TA.AperFunction,Plated,PTH,ViaDrill
T1C0.0118
; #@! TA.AperFunction,Plated,PTH,ViaDrill
T2C0.0157
; #@! TA.AperFunction,Plated,PTH,ComponentDrill
T3C0.0354
; #@! TA.AperFunction,Plated,PTH,ComponentDrill
T4C0.0394
%
G90
G05
T1
X4.5709Y-5.5394
X4.5709Y-5.7283
X4.5827Y-5.2913
X4.5827Y-5.4055
X4.5866Y-4.6969
X4.5866Y-4.8386
X4.5866Y-5.0079
X4.5866Y-5.1142
X4.5866Y-5.2008
X4.6024Y-4.0157
X4.6969Y-5.0591
X4.6969Y-5.3465
X4.7402Y-3.9055
X4.7402Y-4.0157
X4.7402Y-4.122
X4.7402Y-4.2441
X4.7402Y-4.3386
X4.8228Y-5.7008
X4.8307Y-3.9055
X4.8346Y-4.0157
X4.8346Y-4.122
X4.8346Y-4.2441
X4.8346Y-4.3386
X4.8937Y-4.563
X4.8937Y-4.8622
X5.1063Y-4.0157
X5.1102Y-4.3937
X5.1575Y-5.378
X5.1654Y-4.0472
X5.1732Y-4.4291
X5.2283Y-4.5945
X5.2441Y-4.5276
X5.311Y-4.5945
X5.311Y-5.6457
X5.3622Y-3.8661
X5.374Y-4.2441
X5.374Y-4.5591
X5.3937Y-5.6457
X5.4173Y-5.3937
X5.4449Y-4.6457
X5.4646Y-4.8228
X5.5157Y-3.6654
X5.5512Y-4.752
X5.5945Y-4.8819
X5.6378Y-4.9567
X5.6378Y-4.9921
X5.6457Y-5.2165
X5.6654Y-5.4606
X5.6969Y-5.2165
X5.6969Y-5.315
X5.6969Y-5.4094
X5.7795Y-4.0669
X5.7953Y-5.2126
X5.7953Y-5.315
X5.7992Y-5.5039
X5.815Y-4.7047
X5.874Y-4.0709
X5.9449Y-3.6654
X5.9449Y-3.811
X5.9449Y-3.9724
X5.9449Y-4.1772
X5.9449Y-4.311
X5.9528Y-5.4685
T2
X4.8071Y-5.3465
X4.8898Y-4.0472
X4.8898Y-4.4291
X5.2717Y-4.7441
X5.6693Y-4.4252
X5.8268Y-4.8819
X5.8268Y-5.4213
X5.9882Y-5.7283
T3
X4.7411Y-5.7717
X4.8411Y-5.7717
T4
X4.6024Y-3.7425
X4.6024Y-3.8425
X4.6024Y-3.9425
X4.6024Y-4.0935
X4.6024Y-4.1935
X4.6024Y-4.2935
X5.0181Y-5.7677
X5.1181Y-5.7677
X5.1722Y-3.7126
X5.2181Y-5.7677
X5.2722Y-3.7126
X5.3181Y-5.7677
X5.3722Y-3.7126
X5.4181Y-5.7677
X5.7795Y-4.1486
X5.7795Y-4.2486
X5.7795Y-4.3486
X5.9291Y-5.1717
X5.9291Y-5.2717
X5.9291Y-5.3717
T0
M30
